<svg width="111" height="34" viewBox="0 0 111 34" fill="none" xmlns="http://www.w3.org/2000/svg">
<path d="M15.5436 34C11.2278 34 6.91283 34 2.59854 34C2.15674 33.9947 1.71658 33.9447 1.2846 33.851C0.934091 33.7861 0.616993 33.5996 0.38803 33.3237C0.159068 33.0478 0.0326068 32.6997 0.0304739 32.3396C0.0304739 32.1583 0.0304739 31.9769 0.0304739 31.7955C0.0197915 27.3088 0.0497024 22.8264 0.00269953 18.3505C-0.0209061 17.5733 0.110499 16.7993 0.389088 16.0745C0.667677 15.3496 1.08775 14.6889 1.6243 14.1316C5.68363 9.69671 9.69383 5.22297 13.7211 0.764339C14.6377 -0.250457 16.0179 -0.259093 16.9259 0.764339L28.6488 13.8833C28.9693 14.2417 29.3047 14.5893 29.591 14.9629C30.2036 15.7939 30.5259 16.807 30.5075 17.8431C30.5075 22.5933 30.5075 27.3434 30.5075 32.0935C30.5075 33.2011 29.8388 33.8985 28.7428 33.946C28.2172 33.9676 27.6917 33.9849 27.1661 33.9849C23.2933 33.9849 19.4199 33.9849 15.5457 33.9849L15.5436 34ZM2.29729 29.8199C2.43403 29.7357 2.51094 29.6904 2.58786 29.6364C5.24565 27.7723 7.90416 25.9097 10.5634 24.0485C10.6582 23.9918 10.7353 23.9093 10.7859 23.8104C10.8365 23.7115 10.8586 23.6003 10.8497 23.4893C10.8411 20.0462 10.8411 16.6031 10.8497 13.16V12.7065H19.8443V13.1686C19.8443 16.6232 19.8443 20.0779 19.8443 23.5325C19.8355 23.6288 19.8534 23.7257 19.8961 23.8122C19.9387 23.8988 20.0044 23.9717 20.0857 24.0226C22.7051 25.796 25.3201 27.5737 27.9309 29.3557C28.0143 29.4118 28.1061 29.455 28.2172 29.5176C28.2172 29.4161 28.2279 29.3578 28.2279 29.3017C28.2279 25.4613 28.2279 21.6202 28.2279 17.7784C28.2269 17.1437 27.9844 16.5338 27.5506 16.0748C26.0879 14.4483 24.6286 12.8188 23.173 11.1865C21.0735 8.83449 18.9762 6.48462 16.881 4.13692C16.3725 3.5669 15.8619 3.00121 15.3342 2.40961C15.1611 2.59745 15.0137 2.75291 14.8706 2.91268C10.9408 7.25976 7.01538 11.6032 3.09421 15.9431C2.83213 16.215 2.62585 16.5366 2.48725 16.8893C2.34865 17.2421 2.28046 17.6191 2.28661 17.9986C2.29729 21.7901 2.28661 25.5837 2.28661 29.3773L2.29729 29.8199ZM3.77147 31.6163H27.0934C27.0678 31.571 27.0635 31.558 27.055 31.5515C24.2063 29.6083 21.3577 27.6651 18.509 25.7219C18.3793 25.646 18.2316 25.6072 18.0817 25.6096C16.2529 25.6009 14.424 25.6009 12.5952 25.6096C12.4216 25.6176 12.2536 25.6744 12.1102 25.7737C10.6232 26.8057 9.14119 27.8428 7.66416 28.885L3.77147 31.6163ZM13.1293 15.006V23.2734H17.5219V15.006H13.1293Z" fill="#2E2E2E"/>
<path d="M70.0796 14.6606H73.154V16.3879C73.3527 16.1525 73.4809 15.9841 73.6262 15.833C74.5812 14.8463 75.7755 14.4079 77.1087 14.3561C80.4608 14.2266 82.9071 16.2799 83.4775 19.6655C83.7039 21.0254 83.6822 22.4158 83.4134 23.7678C83.6271 23.4699 83.8536 23.1805 84.0544 22.8696C84.5415 22.0859 84.6825 21.192 84.8577 20.3024C85.3577 17.7309 86.6673 15.7682 89.2055 14.9197C91.2309 14.2482 93.1537 14.6498 94.848 15.9453C97.0485 17.6143 96.5849 20.0692 95.3671 21.4835C94.3886 22.6192 93.1046 23.2108 91.6774 23.4785C91.0171 23.5774 90.3514 23.6351 89.6841 23.6512C89.3764 23.6707 89.0687 23.6512 88.7376 23.6512C88.8852 24.1699 89.208 24.6199 89.6499 24.923C91.0151 25.9399 93.0939 25.8708 94.5638 24.7373C94.9458 24.428 95.303 24.0887 95.632 23.7225C95.8072 23.539 95.9718 23.5066 96.1598 23.6534C96.5742 23.9967 96.9973 24.3335 97.3797 24.7114C97.7621 25.0892 97.7429 25.2231 97.4523 25.6549C96.9951 26.3741 96.3983 26.9921 95.698 27.4716C94.9977 27.9511 94.2085 28.2821 93.378 28.4445C91.107 28.9066 88.9876 28.5525 87.1673 27.0368C86.5263 26.5078 86.0349 25.8125 85.4965 25.2166C84.7295 25.778 83.9155 26.4257 83.0545 26.9957C81.5229 28.0526 79.711 28.617 77.8564 28.6151C77.0934 28.5937 76.3342 28.4976 75.5896 28.3279C74.7692 28.153 74.3889 27.8659 73.2395 26.8489V33.9741H70.0796V14.6606ZM80.4373 21.4338C80.3711 20.9825 80.339 20.5226 80.2386 20.08C79.8669 18.4693 78.7067 17.42 77.1685 17.2731C76.4257 17.1802 75.6735 17.3401 75.0308 17.7276C74.3881 18.1152 73.8916 18.7081 73.6198 19.4128C73.3052 20.1282 73.1596 20.9078 73.1945 21.6898C73.2293 22.4719 73.4437 23.235 73.8206 23.919C74.438 25.0676 75.4379 25.6463 76.7476 25.6722C77.3663 25.707 77.982 25.563 78.5226 25.2571C79.0633 24.9512 79.5066 24.4961 79.8006 23.9449C80.2159 23.1747 80.432 22.3109 80.4288 21.4338H80.4373ZM88.1436 21.0603C88.9948 21.1685 89.8583 21.1202 90.6925 20.9178C91.5001 20.7234 92.2799 20.4579 92.8845 19.8382C93.6729 19.0371 93.5041 18.0742 92.4893 17.6208C92.0383 17.4006 91.5354 17.3118 91.0373 17.3644C90.5391 17.4171 90.0653 17.609 89.6691 17.9187C89.162 18.2592 88.7531 18.7291 88.4837 19.2808C88.2143 19.8325 88.094 20.4464 88.1351 21.0603H88.1436Z" fill="#2E2E2E"/>
<path d="M56.0044 14.6584H59.0745V16.4073C59.2647 16.1785 59.3843 16.0208 59.5211 15.8783C60.4761 14.8722 61.6768 14.4231 63.0228 14.3669C66.3877 14.2331 68.8447 16.2972 69.4045 19.7022C69.7057 21.531 69.5946 23.3187 68.8105 25.018C67.0372 28.8699 62.9095 29.1722 60.6534 27.9868C60.1257 27.7104 59.6706 27.2937 59.1749 26.9375V33.9849H56.0044V14.6584ZM66.3792 21.4381C66.312 20.9022 66.2165 20.3703 66.0929 19.8447C65.6656 18.3182 64.4713 17.3487 62.9929 17.2537C61.3948 17.1609 60.0958 17.9619 59.5061 19.4927C59.2138 20.1976 59.0831 20.9602 59.1238 21.7234C59.1645 22.4865 59.3755 23.2305 59.7411 23.8995C60.0055 24.4255 60.4082 24.8678 60.9049 25.1778C61.4016 25.4879 61.9732 25.6537 62.557 25.6571C63.9137 25.7154 64.9712 25.1778 65.6848 23.9989C66.1591 23.2259 66.3194 22.3558 66.3792 21.4381Z" fill="#2E2E2E"/>
<path d="M55.0345 28.1725C54.1478 28.1725 53.2889 28.1725 52.4301 28.1725C52.2164 28.1725 52.2164 28.0494 52.2164 27.8875C52.2335 27.3563 52.2463 26.8252 52.2591 26.294C52.2591 26.1796 52.2591 26.0651 52.2591 25.8622C52.1716 25.9723 52.1331 26.0133 52.1032 26.0587C50.9538 27.8615 49.2638 28.6172 47.2021 28.5849C45.5653 28.5723 43.989 27.9579 42.7677 26.8564C41.5465 25.755 40.7639 24.2418 40.5661 22.5997C40.2798 20.5269 40.596 18.5664 41.8779 16.8758C43.3393 14.9326 45.3412 14.1424 47.7148 14.2525C49.1463 14.3194 50.4282 14.7858 51.443 15.8481C51.7298 16.1849 51.9953 16.5397 52.2378 16.9104V14.68H55.0345V28.1725ZM51.5648 21.3474C51.5456 18.6766 50.2124 17.1608 47.796 16.9298C45.8967 16.7484 44.258 17.7373 43.6213 19.4906C43.38 20.1248 43.2653 20.8011 43.284 21.4804C43.3027 22.1597 43.4544 22.8285 43.7303 23.4483C43.9936 24.0872 44.4164 24.6463 44.9573 25.0708C45.4983 25.4953 46.1389 25.7709 46.8167 25.8705C47.4945 25.9701 48.1863 25.8904 48.8245 25.6392C49.4627 25.388 50.0255 24.9738 50.4581 24.4371C51.1582 23.5611 51.5478 22.4734 51.5648 21.3474Z" fill="#2E2E2E"/>
<path d="M103.759 19.3977C103.759 18.1022 103.759 16.8931 103.759 15.6732C103.759 14.9348 103.99 14.7059 104.727 14.7038C104.979 14.7038 105.229 14.7038 105.481 14.7038C106.084 14.721 106.351 14.9888 106.353 15.5998C106.353 16.7225 106.353 17.8475 106.353 18.9702V19.402H107.171C108.152 19.402 109.13 19.402 110.111 19.402C110.72 19.402 110.989 19.6784 110.998 20.2873C110.998 20.5637 110.983 20.8443 110.998 21.1207C111.007 21.2437 110.989 21.3671 110.946 21.4825C110.903 21.5979 110.835 21.7024 110.748 21.7889C110.661 21.8753 110.557 21.9416 110.442 21.9832C110.327 22.0248 110.205 22.0407 110.083 22.0297C108.985 22.0081 107.885 22.0297 106.785 22.0297H106.357V22.44C106.357 23.5519 106.357 24.6639 106.357 25.7758C106.357 26.4344 106.109 26.6913 105.456 26.7172C105.157 26.7302 104.857 26.728 104.558 26.7172C104.037 26.7021 103.766 26.4279 103.764 25.9011C103.764 24.7524 103.764 23.6059 103.764 22.4464V22.0146H102.727C101.83 22.0146 100.933 22.0146 100.038 22.0146C99.3667 22.0146 99.1103 21.7447 99.1082 21.0646C99.1082 20.7861 99.1082 20.5097 99.1082 20.2312C99.1082 19.6741 99.388 19.3977 99.9628 19.3934C101.05 19.3934 102.138 19.3934 103.225 19.3934L103.759 19.3977Z" fill="#2E2E2E"/>
<path d="M90.7867 12.1171C90.1457 12.6893 89.5048 13.2507 88.8638 13.8164C88.381 14.2482 88.2976 14.2482 87.8169 13.8164C87.5135 13.5465 87.2102 13.2723 86.9132 12.9937C86.6162 12.7152 86.5949 12.5619 86.9004 12.2791C87.7251 11.5104 88.5604 10.7547 89.3958 9.99685C89.6607 9.75503 89.9235 9.50673 90.2034 9.28218C90.5986 8.96046 90.9918 8.94751 91.372 9.28218C92.483 10.2711 93.584 11.2707 94.6751 12.2812C94.9742 12.5554 94.9528 12.7282 94.6537 12.9959C94.314 13.3003 93.9786 13.6069 93.6367 13.9114C93.2949 14.2158 93.1582 14.2223 92.8078 13.9114C92.1861 13.3651 91.575 12.8081 90.9576 12.2575C90.9148 12.2186 90.8593 12.1754 90.7867 12.1171Z" fill="#2E2E2E"/>
</svg>
