<svg width="260" height="79" viewBox="0 0 260 79" fill="none" xmlns="http://www.w3.org/2000/svg">
<path d="M36.4083 79C26.2994 79 16.1922 79 6.08667 79C5.05183 78.9876 4.02082 78.8716 3.00896 78.6538C2.18796 78.5031 1.44521 78.0698 0.9089 77.4286C0.372591 76.7875 0.0763763 75.9788 0.0713804 75.1421C0.0713804 74.7206 0.0713804 74.2992 0.0713804 73.8778C0.0463584 63.4529 0.11642 53.0379 0.00632323 42.638C-0.0489692 40.8322 0.258826 39.0336 0.911377 37.3495C1.56393 35.6654 2.54789 34.1301 3.80466 32.8351C13.313 22.5306 22.7063 12.1357 32.1396 1.77597C34.2864 -0.581944 37.5193 -0.602011 39.6462 1.77597L67.1053 32.2582C67.856 33.091 68.6416 33.8987 69.3122 34.7666C70.7471 36.6977 71.5022 39.0515 71.4591 41.4591C71.4591 52.4961 71.4591 63.5331 71.4591 74.5701C71.4591 77.1438 69.8927 78.7642 67.3255 78.8746C66.0944 78.9248 64.8633 78.9649 63.6322 78.9649C54.5609 78.9649 45.488 78.9649 36.4133 78.9649L36.4083 79ZM5.38105 69.2874C5.70133 69.0918 5.88149 68.9864 6.06165 68.861C12.2871 64.5298 18.5143 60.2019 24.7431 55.8774C24.9651 55.7457 25.1457 55.554 25.2643 55.3242C25.3829 55.0944 25.4346 54.8359 25.4137 54.5781C25.3936 46.5779 25.3936 38.5777 25.4137 30.5776V29.524H46.4822V30.5976C46.4822 38.6246 46.4822 46.6515 46.4822 54.6784C46.4616 54.9022 46.5035 55.1273 46.6034 55.3284C46.7033 55.5296 46.8572 55.6988 47.0477 55.8172C53.1831 59.9377 59.3084 64.0683 65.4238 68.2088C65.619 68.3392 65.8342 68.4396 66.0944 68.5851C66.0944 68.3493 66.1194 68.2138 66.1194 68.0834C66.1194 59.1601 66.1194 50.2352 66.1194 41.3086C66.1171 39.8339 65.549 38.4167 64.533 37.3503C61.1067 33.5709 57.6887 29.7849 54.279 25.9922C49.3614 20.5272 44.4487 15.0672 39.5411 9.61225C38.35 8.28781 37.154 6.9734 35.9179 5.59879C35.5125 6.03525 35.1672 6.39646 34.8319 6.76771C25.6272 16.8683 16.4324 26.9604 7.24769 37.0443C6.63381 37.676 6.15064 38.4232 5.82598 39.2429C5.50133 40.0625 5.34161 40.9385 5.35602 41.8203C5.38105 50.6298 5.35602 59.4444 5.35602 68.259L5.38105 69.2874ZM8.83408 73.4614H63.4621C63.402 73.3561 63.392 73.326 63.372 73.3109C56.6995 68.7958 50.027 64.2806 43.3544 59.7655C43.0505 59.5892 42.7046 59.499 42.3535 59.5046C38.0698 59.4845 33.786 59.4845 29.5022 59.5046C29.0956 59.5232 28.7021 59.6553 28.3662 59.8859C24.8832 62.2839 21.4118 64.6937 17.9521 67.1151L8.83408 73.4614ZM30.7533 34.867V54.0764H41.0424V34.867H30.7533Z" fill="#2E2E2E"/>
<path d="M164.151 34.0643H171.352V38.0777C171.817 37.5309 172.118 37.1396 172.458 36.7884C174.695 34.4957 177.492 33.4773 180.615 33.3569C188.467 33.0559 194.197 37.8269 195.533 45.6933C196.063 48.8532 196.013 52.0837 195.383 55.2252C195.883 54.5329 196.414 53.8607 196.884 53.1382C198.025 51.3171 198.356 49.2402 198.766 47.1732C199.937 41.1982 203.005 36.6379 208.95 34.6663C213.694 33.1061 218.198 34.0392 222.167 37.0493C227.321 40.9273 226.235 46.6314 223.383 49.9174C221.091 52.5563 218.083 53.9309 214.74 54.553C213.193 54.7828 211.634 54.9168 210.071 54.9543C209.35 54.9995 208.63 54.9543 207.854 54.9543C208.2 56.1595 208.956 57.205 209.991 57.9093C213.189 60.2722 218.058 60.1116 221.501 57.4778C222.396 56.7591 223.232 55.9707 224.003 55.1199C224.414 54.6935 224.799 54.6182 225.239 54.9594C226.21 55.757 227.201 56.5397 228.097 57.4176C228.993 58.2955 228.948 58.6066 228.267 59.61C227.196 61.2811 225.798 62.7171 224.158 63.8311C222.517 64.9452 220.669 65.7142 218.724 66.0917C213.404 67.1653 208.439 66.3425 204.176 62.8207C202.674 61.5916 201.523 59.9762 200.262 58.5915C198.466 59.8959 196.559 61.401 194.542 62.7254C190.955 65.181 186.711 66.4925 182.367 66.488C180.579 66.4384 178.801 66.2149 177.057 65.8208C175.135 65.4144 174.244 64.7472 171.552 62.3843V78.9398H164.151V34.0643ZM188.412 49.8021C188.257 48.7535 188.182 47.685 187.946 46.6565C187.076 42.914 184.358 40.4758 180.755 40.1346C179.015 39.9187 177.254 40.2903 175.748 41.1907C174.243 42.0911 173.08 43.4689 172.443 45.1063C171.706 46.7686 171.365 48.5798 171.447 50.397C171.528 52.2141 172.03 53.9873 172.913 55.5764C174.36 58.2454 176.702 59.5899 179.769 59.6501C181.218 59.731 182.661 59.3965 183.927 58.6857C185.193 57.975 186.232 56.9174 186.921 55.6366C187.893 53.847 188.399 51.8401 188.392 49.8021H188.412ZM206.463 48.9341C208.456 49.1856 210.479 49.0735 212.433 48.603C214.325 48.1515 216.151 47.5344 217.568 46.0946C219.414 44.2334 219.019 41.9959 216.642 40.9423C215.585 40.4307 214.407 40.2245 213.241 40.3468C212.074 40.4691 210.964 40.9151 210.036 41.6347C208.848 42.4258 207.89 43.5176 207.259 44.7996C206.628 46.0815 206.347 47.5079 206.443 48.9341H206.463Z" fill="#2E2E2E"/>
<path d="M131.182 34.0593H138.373V38.1229C138.818 37.5911 139.099 37.2249 139.419 36.8938C141.656 34.5559 144.468 33.5124 147.621 33.382C155.503 33.071 161.258 37.867 162.569 45.7786C163.275 50.0278 163.015 54.1818 161.178 58.13C157.024 67.08 147.356 67.7824 142.071 65.0282C140.835 64.386 139.769 63.4177 138.608 62.59V78.9649H131.182V34.0593ZM155.483 49.8121C155.326 48.5668 155.102 47.3309 154.812 46.1097C153.811 42.5628 151.014 40.3102 147.551 40.0895C143.808 39.8738 140.765 41.735 139.384 45.292C138.699 46.9297 138.393 48.7016 138.488 50.4749C138.584 52.2481 139.078 53.9768 139.934 55.5313C140.554 56.7535 141.497 57.7811 142.66 58.5014C143.824 59.2218 145.163 59.6071 146.53 59.615C149.708 59.7504 152.185 58.5013 153.857 55.7621C154.968 53.966 155.343 51.9443 155.483 49.8121Z" fill="#2E2E2E"/>
<path d="M128.91 65.4595C126.833 65.4595 124.821 65.4595 122.809 65.4595C122.309 65.4595 122.309 65.1736 122.309 64.7973C122.349 63.5632 122.379 62.329 122.409 61.0949C122.409 60.829 122.409 60.5631 122.409 60.0915C122.204 60.3474 122.114 60.4427 122.044 60.5481C119.351 64.7371 115.393 66.493 110.563 66.4178C106.729 66.3886 103.037 64.961 100.177 62.4017C97.3162 59.8424 95.483 56.3266 95.0198 52.5111C94.3492 47.695 95.0899 43.1397 98.0925 39.2115C101.516 34.6964 106.205 32.8602 111.765 33.116C115.117 33.2716 118.12 34.3552 120.497 36.8235C121.169 37.6061 121.791 38.4305 122.359 39.2918V34.1094H128.91V65.4595ZM120.782 49.6013C120.737 43.3955 117.615 39.8737 111.955 39.3369C107.506 38.9155 103.667 41.2132 102.176 45.2869C101.611 46.7606 101.342 48.332 101.386 49.9104C101.43 51.4887 101.785 53.0428 102.431 54.4827C103.048 55.9674 104.038 57.2663 105.306 58.2528C106.573 59.2392 108.073 59.8794 109.661 60.1109C111.248 60.3424 112.869 60.1572 114.364 59.5735C115.859 58.9898 117.177 58.0274 118.19 56.7804C119.83 54.745 120.743 52.2175 120.782 49.6013Z" fill="#2E2E2E"/>
<path d="M243.04 45.0712C243.04 42.0611 243.04 39.2517 243.04 36.4172C243.04 34.7014 243.58 34.1696 245.307 34.1646C245.897 34.1646 246.483 34.1646 247.073 34.1646C248.485 34.2047 249.11 34.8268 249.115 36.2466C249.115 38.8553 249.115 41.4691 249.115 44.0779V45.0812H251.032C253.329 45.0812 255.621 45.0812 257.918 45.0812C259.344 45.0812 259.975 45.7234 259.995 47.1381C259.995 47.7803 259.96 48.4325 259.995 49.0746C260.016 49.3604 259.974 49.6472 259.873 49.9152C259.772 50.1833 259.615 50.4262 259.411 50.6271C259.207 50.828 258.962 50.9821 258.693 51.0787C258.424 51.1753 258.138 51.2122 257.853 51.1867C255.281 51.1365 252.703 51.1867 250.126 51.1867H249.125V52.1399C249.125 54.7236 249.125 57.3072 249.125 59.8909C249.125 61.421 248.545 62.018 247.013 62.0782C246.313 62.1083 245.612 62.1033 244.912 62.0782C243.69 62.0431 243.055 61.406 243.05 60.1819C243.05 57.5129 243.05 54.849 243.05 52.155V51.1516H240.623C238.521 51.1516 236.419 51.1516 234.322 51.1516C232.751 51.1516 232.15 50.5245 232.145 48.9442C232.145 48.297 232.145 47.6549 232.145 47.0077C232.145 45.7133 232.801 45.0712 234.147 45.0612C236.694 45.0612 239.242 45.0612 241.789 45.0612L243.04 45.0712Z" fill="#2E2E2E"/>
<path d="M212.653 28.1545C211.152 29.484 209.651 30.7883 208.149 32.1027C207.018 33.1061 206.823 33.1061 205.697 32.1027C204.986 31.4756 204.276 30.8385 203.58 30.1913C202.885 29.5442 202.835 29.188 203.55 28.5308C205.482 26.7448 207.439 24.9889 209.395 23.228C210.016 22.6661 210.631 22.0891 211.287 21.5674C212.213 20.8199 213.134 20.7898 214.024 21.5674C216.627 23.8651 219.206 26.1879 221.761 28.5358C222.462 29.1729 222.412 29.5743 221.711 30.1963C220.915 30.9037 220.13 31.6161 219.329 32.3235C218.528 33.0309 218.208 33.0459 217.387 32.3235C215.931 31.0542 214.5 29.7599 213.054 28.4806C212.953 28.3903 212.823 28.2899 212.653 28.1545Z" fill="#2E2E2E"/>
</svg>
