<svg width="93" height="31" viewBox="0 0 93 31" fill="none" xmlns="http://www.w3.org/2000/svg">
<path d="M85.5932 0H5.84452C5.32363 0.0079846 4.80406 0.0546134 4.29011 0.1395C3.77626 0.22805 3.27854 0.392614 2.81343 0.62775C2.34526 0.863255 1.91974 1.17494 1.55436 1.55C1.18101 1.91494 0.871087 2.33922 0.637265 2.8055C0.401461 3.26929 0.236429 3.7656 0.147627 4.278C0.0608949 4.79016 0.0167035 5.30859 0.0155029 5.828C0.0155029 6.06825 0.0155029 6.3085 0.0155029 6.541V24.459C0.0155029 24.6992 0.0155029 24.9317 0.0155029 25.172C0.0167035 25.6914 0.0608949 26.2098 0.147627 26.722C0.236357 27.2369 0.401374 27.7358 0.637265 28.2022C0.873256 28.6649 1.18298 29.0863 1.55436 29.45C1.92034 29.8223 2.34582 30.1313 2.81343 30.3645C3.27854 30.5996 3.77626 30.7642 4.29011 30.8528C4.80406 30.9376 5.32363 30.9843 5.84452 30.9923H87.1554C87.6763 30.9846 88.1959 30.938 88.7098 30.8528C89.2258 30.7631 89.726 30.5986 90.1943 30.3645C90.6606 30.1293 91.0858 29.8205 91.4533 29.45C91.82 29.0822 92.1291 28.6616 92.3704 28.2022C92.6004 27.734 92.7626 27.2356 92.8523 26.722C92.9378 26.2096 92.9845 25.6914 92.9922 25.172C92.9922 24.9317 92.9922 24.6992 92.9922 24.459V6.541C92.9922 6.3085 92.9922 6.06825 92.9922 5.828C92.9845 5.30857 92.9378 4.79045 92.8523 4.278C92.7626 3.76684 92.6003 3.27102 92.3704 2.8055C92.1312 2.3425 91.8219 1.91903 91.4533 1.55C91.0858 1.17951 90.6606 0.870695 90.1943 0.6355C89.726 0.40143 89.2258 0.236938 88.7098 0.14725C88.1959 0.062019 87.6763 0.0153879 87.1554 0.00775H85.601L85.5932 0Z" fill="#B7B7B7"/>
<path d="M6.55957 30.3182H5.86008C5.3739 30.3266 4.88784 30.2955 4.40672 30.2252C3.95301 30.1364 3.5154 29.9797 3.10879 29.7602C2.70791 29.5637 2.34278 29.3017 2.02848 28.9852C1.71068 28.6692 1.448 28.3025 1.25128 27.9002C1.04429 27.4954 0.900162 27.0616 0.823815 26.6137C0.744798 26.1345 0.703222 25.65 0.699463 25.1644C0.699463 25.0017 0.699463 24.4514 0.699463 24.4514V6.54119C0.699463 6.54119 0.699463 6.00644 0.699463 5.85144C0.702907 5.36586 0.744485 4.8813 0.823815 4.40219C0.89496 3.94907 1.03656 3.50979 1.2435 3.10019C1.43856 2.69694 1.70143 2.32997 2.02071 2.01519C2.34055 1.70174 2.7077 1.44023 3.10879 1.24019C3.51472 1.03379 3.94973 0.890072 4.39894 0.813941C4.88201 0.734747 5.37054 0.693288 5.86008 0.689941H87.1476C87.632 0.694029 88.1153 0.735486 88.5932 0.813941C89.0445 0.8917 89.4819 1.03532 89.8912 1.24019C90.6972 1.64684 91.3531 2.29811 91.7642 3.10019C91.9664 3.50356 92.1078 3.93444 92.1839 4.37894C92.2615 4.861 92.3057 5.34782 92.316 5.83594V6.52569C92.316 6.82019 92.316 7.09919 92.316 7.37819V23.6067C92.316 23.8934 92.316 24.1647 92.316 24.4437V25.1644C92.306 25.6449 92.2619 26.124 92.1839 26.5982C92.1101 27.0482 91.9686 27.4845 91.7642 27.8924C91.564 28.2903 91.3017 28.6539 90.987 28.9697C90.6701 29.2866 90.3023 29.5485 89.8989 29.7447C89.4948 29.973 89.0566 30.1352 88.601 30.2252C88.1207 30.3059 87.6347 30.3473 87.1476 30.3492H6.55957V30.3182Z" fill="black"/>
<path d="M19.2513 15.7324C19.2581 15.0851 19.43 14.4502 19.7509 13.8875C20.0718 13.3248 20.5311 12.8529 21.0854 12.5161C20.7332 12.0155 20.2689 11.6036 19.7293 11.313C19.1897 11.0224 18.5896 10.8612 17.9766 10.8421C16.6787 10.7026 15.4119 11.6171 14.7435 11.6171C14.0751 11.6171 13.0414 10.8421 11.9378 10.8421C11.2247 10.8652 10.5298 11.0723 9.92092 11.4431C9.31204 11.814 8.80996 12.3358 8.46369 12.9579C6.99478 15.5851 8.08286 19.3749 9.52068 21.4984C10.2435 22.5291 11.0751 23.6761 12.1865 23.6296C13.2979 23.5831 13.6632 22.9476 14.9689 22.9476C16.2746 22.9476 16.6321 23.6296 17.759 23.6064C18.886 23.5831 19.6476 22.5756 20.3393 21.5371C20.8558 20.8051 21.2543 19.9971 21.5207 19.1424C20.8477 18.86 20.2733 18.3857 19.8696 17.7791C19.4658 17.1725 19.2507 16.4604 19.2513 15.7324Z" fill="white"/>
<path d="M17.0984 9.46256C17.7264 8.70645 18.0357 7.73679 17.9611 6.75781C16.9977 6.86149 16.1079 7.32032 15.4662 8.04431C14.8374 8.76142 14.5188 9.69766 14.5802 10.6483C15.0625 10.6531 15.5396 10.5488 15.9757 10.3435C16.4118 10.1381 16.7956 9.83695 17.0984 9.46256Z" fill="white"/>
<path d="M32.8756 21.0337H29.1994L28.3134 23.6377H26.759L30.2408 14.0122H31.8652L35.3471 23.6377H33.7927L32.8756 21.0337ZM29.5802 19.8325H32.4947L31.088 15.6087H31.0491L29.5802 19.8325Z" fill="white"/>
<path d="M42.8706 20.1499C42.8706 22.3276 41.697 23.7304 39.9327 23.7304C39.4826 23.7493 39.0362 23.6417 38.6445 23.4197C38.2528 23.1976 37.9316 22.8702 37.7177 22.4749V25.9469H36.241V16.6469H37.64V17.8249C37.8672 17.4352 38.196 17.1141 38.5914 16.8958C38.9869 16.6774 39.4343 16.57 39.8861 16.5849C41.697 16.5461 42.8706 17.9489 42.8706 20.1499ZM41.3861 20.1499C41.3861 18.7316 40.6089 17.8249 39.5286 17.8249C38.4483 17.8249 37.6788 18.7781 37.6788 20.1499C37.6788 21.5216 38.4561 22.5136 39.5286 22.5136C40.6011 22.5136 41.3861 21.5604 41.3861 20.1499Z" fill="white"/>
<path d="M50.6114 20.1501C50.6114 22.3279 49.4456 23.7306 47.6814 23.7306C47.2311 23.7505 46.7843 23.6432 46.3925 23.4211C46.0006 23.199 45.6796 22.8711 45.4664 22.4751V25.9471H43.9897V16.6471H45.3887V17.8251C45.6152 17.4366 45.9428 17.1163 46.3367 16.898C46.7307 16.6798 47.1765 16.5717 47.627 16.5851C49.4379 16.5464 50.6114 17.9491 50.6114 20.1501ZM49.127 20.1501C49.127 18.7319 48.3964 17.8251 47.2695 17.8251C46.1425 17.8251 45.4275 18.7784 45.4275 20.1501C45.4275 21.5219 46.1659 22.4751 47.2695 22.4751C48.3731 22.4751 49.127 21.5606 49.127 20.1501Z" fill="white"/>
<path d="M55.7332 20.9249C55.842 21.8781 56.7668 22.4749 58.0648 22.4749C59.3627 22.4749 60.1554 21.8471 60.1554 20.9869C60.1554 20.1266 59.6269 19.7934 58.3756 19.4834L57.1243 19.1811C55.3523 18.7549 54.5363 17.9334 54.5363 16.5926C54.5363 14.9264 55.9819 13.7871 58.0414 13.7871C60.101 13.7871 61.4844 14.9264 61.5311 16.5926H60.0466C59.9611 15.6316 59.1606 15.0426 58.0026 15.0426C56.8446 15.0426 56.044 15.6239 56.044 16.4841C56.044 17.1584 56.5492 17.5614 57.7927 17.8714L58.8575 18.1271C60.8394 18.5921 61.6632 19.3904 61.6632 20.7931C61.6632 22.5989 60.2176 23.7226 57.9326 23.7226C55.7953 23.7226 54.3497 22.6221 54.2565 20.8861L55.7332 20.9249Z" fill="white"/>
<path d="M64.7799 14.9575V16.616H66.1167V17.7553H64.7799V21.6303C64.7799 22.227 65.0441 22.506 65.6348 22.506C65.7927 22.5156 65.951 22.5156 66.1089 22.506V23.6375C65.8527 23.6857 65.5924 23.709 65.3317 23.7073C63.9016 23.7073 63.3498 23.1725 63.3498 21.8085V17.7553H62.3006V16.616H63.3265V14.9575H64.7799Z" fill="white"/>
<path d="M66.886 20.1502C66.886 17.9414 68.1917 16.5542 70.228 16.5542C72.2642 16.5542 73.5622 17.9414 73.5622 20.1502C73.5622 22.3589 72.2798 23.7229 70.228 23.7229C68.1761 23.7229 66.886 22.3434 66.886 20.1502ZM72.0933 20.1502C72.0933 18.6389 71.3938 17.7399 70.228 17.7399C69.0622 17.7399 68.3938 18.6002 68.3938 20.1502C68.3938 21.7002 69.0855 22.5604 70.2591 22.5604C71.4326 22.5604 72.0933 21.6459 72.0933 20.1502Z" fill="white"/>
<path d="M74.7591 16.6161H76.1658V17.8251C76.26 17.4527 76.4798 17.1239 76.7883 16.8939C77.0968 16.6639 77.4752 16.5466 77.8601 16.5619C78.0276 16.5592 78.1947 16.5774 78.3575 16.6161V17.9646C78.1551 17.8807 77.9393 17.8334 77.7202 17.8251C77.5032 17.8093 77.2853 17.8419 77.0826 17.9208C76.8798 17.9997 76.6973 18.1227 76.5483 18.2809C76.3993 18.4391 76.2877 18.6285 76.2215 18.8352C76.1553 19.042 76.1363 19.2608 76.1658 19.4759V23.6376H74.7591V16.6161Z" fill="white"/>
<path d="M85.0104 21.576C84.8161 22.847 83.5726 23.7228 81.9871 23.7228C79.9353 23.7228 78.6685 22.351 78.6685 20.1578C78.6685 17.9645 79.9431 16.5308 81.9249 16.5308C83.9068 16.5308 85.0959 17.8638 85.0959 19.995V20.4833H80.1218V20.5763C80.0996 20.8345 80.1327 21.0944 80.2188 21.3389C80.305 21.5834 80.4423 21.8069 80.6216 21.9944C80.8009 22.182 81.0181 22.3295 81.2589 22.427C81.4997 22.5246 81.7585 22.57 82.0182 22.5603C82.3591 22.592 82.7011 22.5134 82.9937 22.3361C83.2863 22.1588 83.5138 21.8923 83.6426 21.576H85.0104ZM80.1296 19.4758H83.6503C83.6633 19.2439 83.6279 19.0119 83.5465 18.7943C83.4651 18.5768 83.3394 18.3784 83.1773 18.2117C83.0152 18.045 82.8203 17.9135 82.6047 17.8256C82.3892 17.7377 82.1577 17.6953 81.9249 17.701C81.6902 17.7 81.4575 17.7451 81.2403 17.8337C81.023 17.9224 80.8254 18.0528 80.6587 18.2176C80.4919 18.3824 80.3594 18.5783 80.2686 18.7942C80.1779 19.0101 80.1306 19.2417 80.1296 19.4758Z" fill="white"/>
<path d="M27.7228 11.3927V6.74268H29.5881C30.4585 6.74268 30.9793 7.18443 30.9793 7.89743C30.9819 8.1262 30.9064 8.34907 30.7652 8.52936C30.6239 8.70966 30.4253 8.83664 30.2021 8.88943V8.94368C30.4845 8.9655 30.7474 9.09553 30.9358 9.30648C31.1242 9.51743 31.2233 9.79293 31.2124 10.0752C31.2124 10.8889 30.6217 11.3849 29.658 11.3849L27.7228 11.3927ZM28.4456 8.72668H29.3005C29.9378 8.72668 30.2642 8.49418 30.2642 8.05243C30.2642 7.61068 29.9533 7.37818 29.4171 7.37818H28.4456V8.72668ZM29.487 10.7804C30.1321 10.7804 30.4741 10.5169 30.4741 10.0054C30.4741 9.49393 30.1243 9.30018 29.4404 9.30018H28.4456V10.7882L29.487 10.7804Z" fill="white"/>
<path d="M31.9509 10.4006C31.9509 9.77289 32.425 9.41639 33.2566 9.36214L34.197 9.30014V8.99789C34.197 8.63364 33.9483 8.42439 33.482 8.42439C33.0156 8.42439 32.8291 8.56389 32.7514 8.81189H32.083C32.1529 8.20739 32.7203 7.82764 33.513 7.82764C34.3058 7.82764 34.8809 8.26164 34.8809 8.99789V11.3926H34.197V10.8966C34.0874 11.0735 33.9323 11.2179 33.7477 11.3147C33.5632 11.4115 33.356 11.4571 33.1478 11.4469C32.9983 11.4668 32.8464 11.4546 32.7021 11.4111C32.5578 11.3676 32.4245 11.2938 32.3111 11.1947C32.1977 11.0956 32.1069 10.9735 32.0448 10.8366C31.9827 10.6996 31.9507 10.551 31.9509 10.4006ZM34.197 10.0751V9.78064L33.3421 9.83489C32.8602 9.83489 32.6426 10.0364 32.6426 10.3386C32.6426 10.6409 32.9146 10.8346 33.2877 10.8346C33.3978 10.8464 33.5091 10.8358 33.615 10.8037C33.7209 10.7716 33.8193 10.7184 33.9042 10.6476C33.989 10.5767 34.0587 10.4894 34.109 10.3911C34.1593 10.2927 34.1892 10.1853 34.197 10.0751Z" fill="white"/>
<path d="M35.8835 6.86641C35.8834 6.80944 35.895 6.75305 35.9175 6.7007C35.94 6.64835 35.9731 6.60114 36.0145 6.56195C36.056 6.52277 36.1051 6.49245 36.1587 6.47284C36.2124 6.45323 36.2694 6.44475 36.3265 6.44791C36.3816 6.44791 36.4362 6.45874 36.4871 6.47977C36.538 6.5008 36.5843 6.53163 36.6233 6.57049C36.6622 6.60935 36.6931 6.65548 36.7142 6.70626C36.7353 6.75703 36.7462 6.81145 36.7462 6.86641C36.7462 6.92137 36.7353 6.97579 36.7142 7.02657C36.6931 7.07734 36.6622 7.12347 36.6233 7.16234C36.5843 7.2012 36.538 7.23202 36.4871 7.25306C36.4362 7.27409 36.3816 7.28491 36.3265 7.28491C36.2694 7.28808 36.2124 7.27959 36.1587 7.25999C36.1051 7.24038 36.056 7.21005 36.0145 7.17087C35.9731 7.13169 35.94 7.08448 35.9175 7.03212C35.895 6.97977 35.8834 6.92338 35.8835 6.86641ZM35.9845 7.89716H36.6762V11.3924H35.9845V7.89716Z" fill="white"/>
<path d="M39.0467 10.1527L38.2695 11.3927H37.4923L38.6503 9.65671L37.4767 7.89746H38.2539L39.0311 9.12971H39.0856L39.8628 7.89746H40.64L39.4819 9.62571L40.6477 11.3927H39.8705L39.0933 10.1527H39.0467Z" fill="white"/>
<path d="M41.2617 10.4006C41.2617 9.77289 41.728 9.41639 42.5596 9.36214L43.5234 9.30014V8.99789C43.5234 8.63364 43.2824 8.42439 42.8083 8.42439C42.3343 8.42439 42.1555 8.56389 42.0778 8.81189H41.4094C41.4793 8.20739 42.0467 7.82764 42.8394 7.82764C43.6322 7.82764 44.2151 8.26164 44.2151 8.99789V11.3926H43.5234V10.8966H43.469C43.3594 11.0735 43.2043 11.2179 43.0197 11.3147C42.8352 11.4115 42.628 11.4571 42.4197 11.4469C42.2733 11.4609 42.1256 11.4443 41.986 11.3981C41.8464 11.352 41.718 11.2773 41.609 11.1788C41.5 11.0803 41.4128 10.9602 41.353 10.8263C41.2932 10.6923 41.2621 10.5473 41.2617 10.4006ZM43.5234 10.0751V9.78064L42.6685 9.83489C42.1866 9.83489 41.969 10.0364 41.969 10.3386C41.969 10.6409 42.241 10.8346 42.6218 10.8346C42.7315 10.8464 42.8424 10.8358 42.9479 10.8036C43.0534 10.7713 43.1512 10.7181 43.2355 10.6471C43.3197 10.5761 43.3887 10.4889 43.4382 10.3905C43.4877 10.2922 43.5166 10.1849 43.5234 10.0751Z" fill="white"/>
<path d="M45.2798 7.89706H45.9405V8.43956H45.9949C46.0688 8.25248 46.2005 8.09376 46.371 7.98645C46.5415 7.87914 46.7419 7.82882 46.9431 7.84281C47.0437 7.82974 47.1456 7.82974 47.2462 7.84281V8.52481C47.1195 8.5139 46.992 8.5139 46.8653 8.52481C46.755 8.51418 46.6437 8.52607 46.5381 8.55975C46.4326 8.59344 46.335 8.64821 46.2514 8.72072C46.1677 8.79324 46.0998 8.88199 46.0517 8.98155C46.0036 9.08111 45.9763 9.18939 45.9716 9.29981V11.3923H45.2798V7.89706Z" fill="white"/>
<path d="M49.9118 7.89722H50.5724V8.45522H50.6268C50.7147 8.25707 50.8621 8.09101 51.0486 7.97995C51.2352 7.86889 51.4517 7.81832 51.6683 7.83522C51.836 7.82657 52.0035 7.85512 52.1587 7.91882C52.314 7.98252 52.4531 8.07977 52.5661 8.20358C52.6791 8.32738 52.7632 8.47465 52.8122 8.63476C52.8612 8.79487 52.874 8.96383 52.8496 9.12947V11.3925H52.1579V9.29997C52.1579 8.73422 51.917 8.45522 51.3807 8.45522C51.2644 8.44587 51.1474 8.46278 51.0385 8.5047C50.9296 8.54661 50.8315 8.61245 50.7516 8.69733C50.6717 8.78221 50.612 8.88395 50.577 8.99499C50.5419 9.10602 50.5324 9.22351 50.5491 9.33872V11.3925H49.8574L49.9118 7.89722Z" fill="white"/>
<path d="M53.7513 10.4006C53.7513 9.77289 54.2176 9.41639 55.057 9.36214L56.0052 9.30014V8.99789C56.0052 8.63364 55.7565 8.42439 55.2824 8.42439C54.8083 8.42439 54.6295 8.56389 54.5518 8.81189H53.8834C53.9611 8.20739 54.5207 7.82764 55.3135 7.82764C56.1062 7.82764 56.6891 8.26164 56.6891 8.99789V11.3926H56.0207V10.8966H55.9585C55.8496 11.0741 55.6946 11.2189 55.5099 11.3158C55.3252 11.4126 55.1177 11.4579 54.9093 11.4469C54.7629 11.4609 54.6152 11.4443 54.4756 11.3981C54.336 11.352 54.2076 11.2773 54.0986 11.1788C53.9896 11.0803 53.9024 10.9602 53.8426 10.8263C53.7828 10.6923 53.7517 10.5473 53.7513 10.4006ZM56.0052 10.1061V9.81164L55.1502 9.86589C54.6684 9.86589 54.443 10.0674 54.443 10.3696C54.443 10.6719 54.7228 10.8656 55.0958 10.8656C55.2084 10.8774 55.3222 10.8659 55.4301 10.8319C55.5381 10.7979 55.6378 10.742 55.7231 10.6678C55.8085 10.5937 55.8775 10.5028 55.9261 10.4008C55.9746 10.2988 56.0015 10.188 56.0052 10.0751V10.1061Z" fill="white"/>
</svg>
