<svg width="93" height="28" viewBox="0 0 93 28" fill="none" xmlns="http://www.w3.org/2000/svg">
<g clip-path="url(#clip0_2_157)">
<path d="M89.5556 0H3.44444C1.54213 0 0 1.53212 0 3.42208V23.9545C0 25.8445 1.54213 27.3766 3.44444 27.3766H89.5556C91.4579 27.3766 93 25.8445 93 23.9545V3.42208C93 1.53212 91.4579 0 89.5556 0Z" fill="black"/>
<path d="M89.5556 0.547532C90.3229 0.547532 91.0588 0.850386 91.6015 1.38947C92.1441 1.92855 92.4489 2.6597 92.4489 3.42208V23.9545C92.4489 24.7169 92.1441 25.4481 91.6015 25.9872C91.0588 26.5262 90.3229 26.8291 89.5556 26.8291H3.44444C2.67708 26.8291 1.94115 26.5262 1.39855 25.9872C0.855944 25.4481 0.551111 24.7169 0.551111 23.9545V3.42208C0.551111 2.6597 0.855944 1.92855 1.39855 1.38947C1.94115 0.850386 2.67708 0.547532 3.44444 0.547532H89.5556ZM89.5556 0H3.44444C2.53092 0 1.65481 0.360539 1.00885 1.0023C0.362896 1.64407 0 2.51449 0 3.42208L0 23.9545C0 24.8621 0.362896 25.7326 1.00885 26.3743C1.65481 27.0161 2.53092 27.3766 3.44444 27.3766H89.5556C90.4691 27.3766 91.3452 27.0161 91.9911 26.3743C92.6371 25.7326 93 24.8621 93 23.9545V3.42208C93 2.51449 92.6371 1.64407 91.9911 1.0023C91.3452 0.360539 90.4691 0 89.5556 0V0Z" fill="#A6A6A6"/>
<path d="M46.9408 14.8862C46.3604 14.8875 45.7934 15.0599 45.3116 15.3814C44.8297 15.7029 44.4547 16.1591 44.2338 16.6924C44.013 17.2256 43.9562 17.812 44.0708 18.3773C44.1854 18.9426 44.4661 19.4615 44.8775 19.8683C45.2889 20.2751 45.8124 20.5515 46.382 20.6627C46.9515 20.7739 47.5414 20.7148 48.0771 20.4928C48.6129 20.2709 49.0703 19.8961 49.3916 19.4159C49.713 18.9357 49.8837 18.3716 49.8824 17.795C49.888 17.4103 49.8157 17.0284 49.6696 16.6721C49.5236 16.3157 49.3069 15.9922 49.0325 15.7208C48.758 15.4494 48.4314 15.2357 48.072 15.0923C47.7127 14.9489 47.328 14.8788 46.9408 14.8862ZM46.9408 19.5608C46.5851 19.5855 46.2301 19.5033 45.9219 19.3249C45.6138 19.1465 45.3668 18.8801 45.2131 18.5604C45.0594 18.2407 45.006 17.8825 45.0599 17.5322C45.1139 17.182 45.2726 16.856 45.5155 16.5966C45.7584 16.3372 46.0742 16.1563 46.4219 16.0776C46.7697 15.9989 47.1332 16.0259 47.4652 16.1552C47.7973 16.2844 48.0825 16.5099 48.2838 16.8024C48.4852 17.0948 48.5933 17.4406 48.5942 17.795C48.6053 18.0195 48.571 18.2439 48.4934 18.455C48.4158 18.6662 48.2964 18.8597 48.1423 19.0243C47.9883 19.1889 47.8026 19.3211 47.5962 19.4133C47.3898 19.5054 47.167 19.5555 46.9408 19.5608ZM40.5204 14.8862C39.94 14.8875 39.373 15.0599 38.8911 15.3814C38.4093 15.7029 38.0342 16.1591 37.8134 16.6924C37.5925 17.2256 37.5358 17.812 37.6504 18.3773C37.7649 18.9426 38.0457 19.4615 38.457 19.8683C38.8684 20.2751 39.392 20.5515 39.9615 20.6627C40.531 20.7739 41.121 20.7148 41.6567 20.4928C42.1924 20.2709 42.6499 19.8961 42.9712 19.4159C43.2925 18.9357 43.4633 18.3716 43.4619 17.795C43.4676 17.4103 43.3952 17.0284 43.2492 16.6721C43.1032 16.3157 42.8865 15.9922 42.612 15.7208C42.3376 15.4494 42.0109 15.2357 41.6516 15.0923C41.2923 14.9489 40.9076 14.8788 40.5204 14.8862ZM40.5204 19.5608C40.1646 19.5855 39.8096 19.5033 39.5015 19.3249C39.1934 19.1465 38.9464 18.8801 38.7927 18.5604C38.6389 18.2407 38.5856 17.8825 38.6395 17.5322C38.6934 17.182 38.8522 16.856 39.0951 16.5966C39.3379 16.3372 39.6538 16.1563 40.0015 16.0776C40.3492 15.9989 40.7127 16.0259 41.0448 16.1552C41.3768 16.2844 41.662 16.5099 41.8634 16.8024C42.0647 17.0948 42.1729 17.4406 42.1737 17.795C42.1848 18.0195 42.1506 18.2439 42.073 18.455C41.9954 18.6662 41.876 18.8597 41.7219 19.0243C41.5678 19.1889 41.3821 19.3211 41.1758 19.4133C40.9694 19.5054 40.7466 19.5555 40.5204 19.5608ZM32.8875 15.7828V17.0147H35.8635C35.8168 17.595 35.5741 18.1425 35.1746 18.5683C34.8761 18.8705 34.517 19.1071 34.1207 19.2627C33.7243 19.4183 33.2995 19.4896 32.8737 19.4718C31.9967 19.4718 31.1557 19.1257 30.5356 18.5096C29.9154 17.8935 29.5671 17.0579 29.5671 16.1866C29.5671 15.3153 29.9154 14.4797 30.5356 13.8636C31.1557 13.2475 31.9967 12.9014 32.8737 12.9014C33.7145 12.889 34.5263 13.2062 35.1333 13.7843L36.0082 12.9151C35.5976 12.5116 35.1101 12.1936 34.5742 11.9797C34.0384 11.7658 33.4649 11.6603 32.8875 11.6694C32.2751 11.6458 31.6641 11.7452 31.0913 11.9617C30.5185 12.1782 29.9955 12.5073 29.5538 12.9295C29.1121 13.3516 28.7607 13.8579 28.5206 14.4182C28.2806 14.9785 28.1569 15.5811 28.1569 16.19C28.1569 16.7989 28.2806 17.4016 28.5206 17.9618C28.7607 18.5221 29.1121 19.0284 29.5538 19.4506C29.9955 19.8727 30.5185 20.2018 31.0913 20.4183C31.6641 20.6349 32.2751 20.7342 32.8875 20.7106C33.4768 20.734 34.0644 20.6332 34.6117 20.415C35.1591 20.1968 35.6537 19.866 36.0633 19.4444C36.7867 18.6549 37.1722 17.6165 37.1379 16.5493C37.1404 16.2925 37.1197 16.0359 37.0759 15.7828H32.8875ZM64.1011 16.741C63.9214 16.2158 63.5854 15.7573 63.1376 15.4261C62.6899 15.0949 62.1514 14.9066 61.5935 14.8862C61.2167 14.8855 60.8437 14.9615 60.4976 15.1097C60.1516 15.2578 59.8398 15.4749 59.5815 15.7476C59.3233 16.0202 59.124 16.3425 58.9961 16.6947C58.8682 17.0468 58.8144 17.4213 58.8379 17.795C58.8321 18.4197 59.0298 19.0296 59.4015 19.5336C59.7733 20.0375 60.2992 20.4084 60.9007 20.5909C61.5021 20.7734 62.1469 20.7577 62.7386 20.5461C63.3303 20.3345 63.8373 19.9385 64.1837 19.417L63.1848 18.7326C63.0359 18.9792 62.8247 19.1828 62.5722 19.3233C62.3196 19.4637 62.0345 19.5362 61.7451 19.5334C61.4465 19.5456 61.1511 19.4678 60.8979 19.3103C60.6446 19.1527 60.4452 18.9227 60.3259 18.6505L64.2457 17.0421L64.1011 16.741ZM60.1055 17.7128C60.0915 17.5006 60.1205 17.2877 60.1905 17.0867C60.2606 16.8858 60.3705 16.7007 60.5136 16.5426C60.6568 16.3844 60.8303 16.2563 61.0241 16.1658C61.2178 16.0753 61.4278 16.0242 61.6417 16.0155C61.8629 16.0014 62.0834 16.0523 62.2758 16.1618C62.4681 16.2714 62.6237 16.4347 62.7233 16.6315L60.1055 17.7128ZM56.9228 20.5326H58.2111V11.9774H56.9228V20.5326ZM54.8148 15.5364H54.7666C54.571 15.3249 54.3321 15.1574 54.0659 15.0453C53.7998 14.9331 53.5125 14.8789 53.2235 14.8862C52.4707 14.9225 51.7607 15.2451 51.2409 15.7873C50.721 16.3294 50.431 17.0496 50.431 17.7984C50.431 18.5472 50.721 19.2673 51.2409 19.8095C51.7607 20.3516 52.4707 20.6743 53.2235 20.7106C53.5156 20.7164 53.8053 20.6581 54.0721 20.5397C54.3388 20.4214 54.576 20.2461 54.7666 20.0262H54.8148V20.4436C54.8148 21.5592 54.2155 22.1547 53.2511 22.1547C52.9289 22.1477 52.6161 22.0457 52.3524 21.8616C52.0886 21.6776 51.8859 21.4199 51.7699 21.1212L50.6539 21.5798C50.8603 22.0946 51.219 22.5351 51.6827 22.8431C52.1465 23.1511 52.6933 23.3119 53.2511 23.3045C54.7597 23.3045 56.0066 22.4216 56.0066 20.2725V15.0573H54.8148V15.5364ZM53.3337 19.5608C52.8824 19.5328 52.4587 19.3349 52.149 19.0075C51.8394 18.6801 51.667 18.2477 51.667 17.7984C51.667 17.3491 51.8394 16.9167 52.149 16.5892C52.4587 16.2618 52.8824 16.064 53.3337 16.036C53.5543 16.0455 53.7708 16.0989 53.9702 16.1932C54.1695 16.2874 54.3478 16.4206 54.4944 16.5847C54.6409 16.7488 54.7527 16.9405 54.8232 17.1484C54.8936 17.3563 54.9212 17.5762 54.9044 17.795C54.9232 18.0144 54.897 18.2354 54.8273 18.4446C54.7577 18.6537 54.6461 18.8466 54.4993 19.0117C54.3525 19.1768 54.1735 19.3105 53.9731 19.4049C53.7728 19.4993 53.5553 19.5523 53.3337 19.5608ZM70.1357 11.9774H67.0495V20.5326H68.3377V17.2885H70.1357C70.5029 17.3147 70.8715 17.2655 71.2187 17.1439C71.5658 17.0223 71.884 16.831 72.1535 16.5818C72.4229 16.3327 72.6378 16.031 72.7848 15.6957C72.9317 15.3604 73.0075 14.9987 73.0075 14.633C73.0075 14.2673 72.9317 13.9055 72.7848 13.5702C72.6378 13.2349 72.4229 12.9332 72.1535 12.6841C71.884 12.4349 71.5658 12.2436 71.2187 12.122C70.8715 12.0004 70.5029 11.9512 70.1357 11.9774ZM70.1357 16.0839H68.3377V13.1683H70.1633C70.5543 13.1683 70.9292 13.3226 71.2057 13.5973C71.4822 13.872 71.6375 14.2445 71.6375 14.633C71.6375 15.0214 71.4822 15.3939 71.2057 15.6686C70.9292 15.9433 70.5543 16.0976 70.1633 16.0976L70.1357 16.0839ZM78.0855 14.8588C77.6164 14.8301 77.149 14.9386 76.7413 15.1709C76.3336 15.4033 76.0034 15.7492 75.7915 16.166L76.9282 16.6383C77.043 16.4326 77.2154 16.2643 77.4244 16.1537C77.6335 16.0432 77.8702 15.9952 78.1062 16.0155C78.2697 15.9965 78.4354 16.0101 78.5936 16.0554C78.7518 16.1007 78.8993 16.1769 79.0276 16.2795C79.1558 16.382 79.2622 16.509 79.3406 16.6528C79.4189 16.7967 79.4677 16.9546 79.4839 17.1174V17.1995C79.0697 16.9832 78.6086 16.8704 78.1406 16.871C76.9144 16.871 75.6606 17.5554 75.6606 18.801C75.6727 19.0658 75.7383 19.3255 75.8534 19.5645C75.9685 19.8036 76.1308 20.0173 76.3306 20.1929C76.5305 20.3685 76.7638 20.5023 77.0167 20.5865C77.2697 20.6708 77.5371 20.7036 77.8031 20.6832C78.1263 20.701 78.4485 20.633 78.7366 20.4863C79.0247 20.3395 79.2684 20.1193 79.4426 19.8482H79.4839V20.5326H80.7239V17.2406C80.7239 15.7417 79.5804 14.8725 78.1131 14.8725L78.0855 14.8588ZM77.9271 19.5471C77.5068 19.5471 76.9213 19.3349 76.9213 18.8216C76.9213 18.1372 77.6515 17.9045 78.2991 17.9045C78.7083 17.8944 79.1127 17.9937 79.4702 18.1919C79.4269 18.5636 79.2495 18.9071 78.9709 19.1588C78.6922 19.4105 78.3311 19.5533 77.9546 19.5608L77.9271 19.5471ZM85.2431 15.0573L83.7688 18.7668H83.7275L82.1982 15.0573H80.8204L83.1144 20.2452L81.8055 23.1266H83.1833L86.6759 15.0573H85.2431ZM73.6697 20.5326H74.9511V11.9774H73.6697V20.5326Z" fill="white"/>
<path d="M7.19204 5.1607C6.97244 5.4304 6.86411 5.77287 6.88892 6.11888V21.2582C6.86548 21.6075 6.98185 21.9518 7.2127 22.2163L7.26092 22.2711L15.7756 13.7912V13.5859L7.24026 5.11279L7.19204 5.1607Z" fill="url(#paint0_linear_2_157)"/>
<path d="M18.6001 16.6174L15.7756 13.7907V13.5854L18.6001 10.7588L18.6621 10.7999L22.0445 12.7025C23.009 13.2432 23.009 14.133 22.0445 14.6805L18.6759 16.5832L18.6001 16.6174Z" fill="url(#paint1_linear_2_157)"/>
<path d="M18.6826 16.5836L15.7754 13.6885L7.19189 22.2163C7.38656 22.3884 7.63572 22.4875 7.89618 22.4962C8.15664 22.505 8.41197 22.4229 8.61789 22.2642L18.6826 16.5836Z" fill="url(#paint2_linear_2_157)"/>
<path d="M18.6826 10.7999L8.61789 5.11928C8.41331 4.95839 8.15818 4.8743 7.89737 4.88181C7.63655 4.88932 7.38675 4.98795 7.19189 5.16035L15.7754 13.6882L18.6826 10.7999Z" fill="url(#paint3_linear_2_157)"/>
<path opacity="0.2" d="M18.5999 16.5151L8.61789 22.1616C8.41946 22.3104 8.17762 22.3909 7.92901 22.3909C7.68039 22.3909 7.43856 22.3104 7.24012 22.1616L7.19189 22.2095L7.24012 22.2642C7.43856 22.413 7.68039 22.4935 7.92901 22.4935C8.17762 22.4935 8.41946 22.413 8.61789 22.2642L18.6826 16.5836L18.5999 16.5151Z" fill="black"/>
<path opacity="0.12" d="M7.19189 22.1203C6.97061 21.8488 6.86218 21.5036 6.88878 21.1553V21.2579C6.86534 21.6072 6.98171 21.9516 7.21256 22.2161L7.26078 22.1682L7.19189 22.1203Z" fill="black"/>
<path opacity="0.12" d="M22.0445 14.5782L18.6001 16.5151L18.6621 16.5836L22.0445 14.674C22.2442 14.5902 22.4174 14.4544 22.5459 14.2809C22.6744 14.1075 22.7535 13.9028 22.7748 13.6885C22.7317 13.8832 22.6432 14.0652 22.5163 14.2198C22.3895 14.3743 22.2279 14.4971 22.0445 14.5782Z" fill="black"/>
<path opacity="0.25" d="M8.61809 5.21546L22.0445 12.7988C22.2279 12.8799 22.3895 13.0027 22.5163 13.1572C22.6432 13.3118 22.7317 13.4938 22.7748 13.6885C22.7535 13.4742 22.6744 13.2695 22.5459 13.0961C22.4174 12.9227 22.2442 12.7868 22.0445 12.703L8.61809 5.11965C7.66053 4.57211 6.88898 5.02383 6.88898 6.11889V6.22155C6.88898 5.12649 7.66053 4.67478 8.61809 5.21546Z" fill="white"/>
<path d="M28.4786 8.89746V4.79097H29.7393C30.0197 4.7775 30.2999 4.82093 30.5628 4.9186C30.8258 5.01626 31.0659 5.16612 31.2686 5.35903C31.4573 5.55694 31.6044 5.79019 31.7014 6.04518C31.7984 6.30017 31.8433 6.5718 31.8335 6.84422C31.8433 7.11663 31.7984 7.38826 31.7014 7.64325C31.6044 7.89824 31.4573 8.13149 31.2686 8.3294C31.0659 8.52231 30.8258 8.67217 30.5628 8.76984C30.2999 8.8675 30.0197 8.91093 29.7393 8.89746H28.4786ZM29.0091 8.391H29.7393C29.9462 8.40149 30.1532 8.37122 30.3482 8.30191C30.5433 8.23261 30.7227 8.12565 30.876 7.98719C31.0198 7.83457 31.1312 7.65467 31.2034 7.45828C31.2756 7.26188 31.3072 7.05302 31.2962 6.84422C31.3074 6.63642 31.276 6.42853 31.2037 6.2332C31.1315 6.03788 31.02 5.85921 30.876 5.70809C30.7239 5.56744 30.5449 5.45861 30.3496 5.38807C30.1543 5.31752 29.9468 5.2867 29.7393 5.29744H29.0091V8.391Z" fill="white" stroke="white" stroke-width="0.0805195" stroke-miterlimit="10"/>
<path d="M32.5845 8.89751V4.79102H33.1149V8.89751H32.5845Z" fill="white" stroke="white" stroke-width="0.0805195" stroke-miterlimit="10"/>
<path d="M35.223 8.9864C34.9087 8.98135 34.6034 8.88106 34.3481 8.69895C34.0628 8.50525 33.8612 8.21211 33.7832 7.87765L34.2654 7.67917C34.3245 7.90198 34.4493 8.10217 34.6236 8.25408C34.7882 8.40163 35.0013 8.48438 35.223 8.48678C35.4359 8.49388 35.6448 8.4287 35.8154 8.30199C35.8944 8.24812 35.9586 8.1754 36.0019 8.09049C36.0452 8.00558 36.0664 7.91121 36.0634 7.81605C36.0689 7.71374 36.0492 7.61163 36.006 7.5186C35.9628 7.42558 35.8974 7.34443 35.8154 7.28221C35.5797 7.12388 35.3189 7.0059 35.0439 6.93316C34.7333 6.85565 34.4468 6.7028 34.2103 6.48829C34.1183 6.39969 34.0457 6.29316 33.9971 6.17538C33.9485 6.05761 33.925 5.93113 33.9279 5.80387C33.928 5.6576 33.9594 5.51302 34.02 5.3797C34.0805 5.24638 34.1689 5.12735 34.2792 5.03048C34.5287 4.83305 34.8354 4.72049 35.1542 4.7094C35.473 4.69831 35.7869 4.78928 36.0496 4.96888C36.248 5.10948 36.3973 5.30806 36.4768 5.53695L35.9945 5.73543C35.9488 5.5934 35.8597 5.46902 35.7396 5.37953C35.5896 5.26051 35.401 5.1997 35.2092 5.20843C35.0203 5.20537 34.8358 5.26565 34.6856 5.37953C34.6187 5.42837 34.5645 5.49232 34.5273 5.5661C34.4902 5.63989 34.4713 5.72138 34.4721 5.80387C34.4712 5.87914 34.4889 5.95348 34.5238 6.02032C34.5586 6.08716 34.6095 6.14446 34.6719 6.18714C34.8483 6.31677 35.0466 6.41411 35.2574 6.4746C35.4309 6.52616 35.6011 6.58787 35.7672 6.65939C35.9137 6.72616 36.0523 6.80879 36.1805 6.90578C36.3166 7.00248 36.4257 7.13203 36.4974 7.28221C36.5716 7.44806 36.6091 7.62774 36.6076 7.80921C36.6108 7.99454 36.5682 8.17782 36.4836 8.34305C36.4079 8.49287 36.2939 8.62031 36.153 8.71264C36.0184 8.80633 35.8695 8.87797 35.7121 8.9248C35.553 8.96911 35.3882 8.98987 35.223 8.9864Z" fill="white" stroke="white" stroke-width="0.0805195" stroke-miterlimit="10"/>
<path d="M37.8888 8.8977H37.3584V4.79121H38.7362C39.0735 4.78545 39.3997 4.91069 39.6455 5.14026C39.7695 5.24969 39.8678 5.38492 39.9332 5.53633C39.9987 5.68773 40.0298 5.85161 40.0244 6.01631C40.0288 6.17987 39.9972 6.34242 39.9318 6.49257C39.8663 6.64271 39.7686 6.77683 39.6455 6.88552C39.3997 7.11509 39.0735 7.24032 38.7362 7.23457H37.8888V8.8977ZM37.8888 6.7281H38.7844C38.8846 6.73267 38.9846 6.71543 39.0774 6.6776C39.1702 6.63977 39.2536 6.58226 39.3217 6.50909C39.3895 6.44515 39.4434 6.36819 39.4803 6.28288C39.5171 6.19758 39.5361 6.10572 39.5361 6.01289C39.5361 5.92005 39.5171 5.82819 39.4803 5.74289C39.4434 5.65759 39.3895 5.58062 39.3217 5.51669C39.2536 5.44351 39.1702 5.386 39.0774 5.34817C38.9846 5.31034 38.8846 5.29311 38.7844 5.29767H37.8888V6.7281Z" fill="white" stroke="white" stroke-width="0.0805195" stroke-miterlimit="10"/>
<path d="M44.0889 8.36354C43.8899 8.56137 43.6536 8.71831 43.3936 8.82539C43.1335 8.93247 42.8548 8.98758 42.5733 8.98758C42.2918 8.98758 42.0131 8.93247 41.753 8.82539C41.493 8.71831 41.2567 8.56137 41.0577 8.36354C40.8623 8.1627 40.7102 7.92436 40.6107 7.66311C40.5112 7.40186 40.4664 7.12318 40.4791 6.84413C40.47 6.56313 40.5192 6.28328 40.6235 6.02192C40.7277 5.76056 40.8849 5.52326 41.0853 5.32473C41.2843 5.12689 41.5205 4.96995 41.7806 4.86288C42.0406 4.7558 42.3194 4.70068 42.6009 4.70068C42.8824 4.70068 43.1611 4.7558 43.4211 4.86288C43.6812 4.96995 43.9175 5.12689 44.1164 5.32473C44.3154 5.52458 44.4722 5.76196 44.5775 6.02289C44.6828 6.28383 44.7345 6.56305 44.7295 6.84413C44.7341 7.12761 44.6796 7.40897 44.5693 7.67047C44.459 7.93197 44.2955 8.16795 44.0889 8.36354ZM41.4504 8.02133C41.5956 8.17111 41.7701 8.28969 41.9633 8.36975C42.1564 8.4498 42.364 8.48961 42.5733 8.48673C42.7827 8.49085 42.9907 8.4516 43.1841 8.37148C43.3774 8.29135 43.5518 8.1721 43.6962 8.02133C43.8551 7.86927 43.9806 7.68618 44.0647 7.48358C44.1489 7.28099 44.19 7.06327 44.1853 6.84413C44.1935 6.62698 44.1568 6.41046 44.0774 6.20797C43.9981 6.00548 43.8777 5.82134 43.7238 5.66694C43.5794 5.51617 43.4049 5.39692 43.2116 5.31679C43.0183 5.23666 42.8103 5.19741 42.6009 5.20154C42.3916 5.19865 42.184 5.23847 41.9908 5.31852C41.7977 5.39858 41.6231 5.51716 41.478 5.66694C41.3263 5.82261 41.2078 6.00714 41.1297 6.20943C41.0516 6.41172 41.0154 6.62761 41.0233 6.84413C41.0154 7.06066 41.0516 7.27655 41.1297 7.47884C41.2078 7.68113 41.3263 7.86565 41.478 8.02133H41.4504Z" fill="white" stroke="white" stroke-width="0.0805195" stroke-miterlimit="10"/>
<path d="M45.4666 8.89751V4.79102H46.1554L48.1601 7.98724V7.19331V4.79102H48.6906V8.89751H48.1394L46.0728 5.55072V6.33779V8.89751H45.4666Z" fill="white" stroke="white" stroke-width="0.0805195" stroke-miterlimit="10"/>
<path d="M49.6001 8.89731V4.79082H50.1305V8.89731H49.6001ZM50.0961 4.46914H49.6345L49.9308 3.73682H50.5094L50.0961 4.46914Z" fill="white" stroke="white" stroke-width="0.0805195" stroke-miterlimit="10"/>
<path d="M52.1075 8.89751L50.6539 4.79102H51.2395L52.3555 8.12412L53.5748 4.79102H54.1604L52.6586 8.89751H52.1075Z" fill="white" stroke="white" stroke-width="0.0805195" stroke-miterlimit="10"/>
<path d="M57.1777 5.29748H55.2902V6.59787H56.9917V7.09065H55.2902V8.39104H57.1777V8.89751H54.7666V4.79102H57.1777V5.29748Z" fill="white" stroke="white" stroke-width="0.0805195" stroke-miterlimit="10"/>
<path d="M58.0045 8.89751V4.79102H58.5556V8.39104H60.3467V8.89751H58.0045Z" fill="white" stroke="white" stroke-width="0.0805195" stroke-miterlimit="10"/>
<path d="M62.3788 8.89751V4.79102H63.0263L65.0379 7.98724V7.19331V4.79102H65.5683V8.89751H65.0103L62.9092 5.55072V6.33779V8.89751H62.3788Z" fill="white" stroke="white" stroke-width="0.0805195" stroke-miterlimit="10"/>
<path d="M69.8947 8.36344C69.6958 8.56128 69.4595 8.71822 69.1995 8.8253C68.9394 8.93237 68.6607 8.98749 68.3792 8.98749C68.0977 8.98749 67.8189 8.93237 67.5589 8.8253C67.2988 8.71822 67.0626 8.56128 66.8636 8.36344C66.6633 8.16491 66.5061 7.92761 66.4018 7.66625C66.2975 7.40489 66.2484 7.12504 66.2574 6.84404C66.2484 6.56304 66.2975 6.28318 66.4018 6.02182C66.5061 5.76047 66.6633 5.52317 66.8636 5.32463C67.062 5.12701 67.2977 4.97021 67.5572 4.86323C67.8166 4.75624 68.0948 4.70117 68.3757 4.70117C68.6567 4.70117 68.9348 4.75624 69.1943 4.86323C69.4538 4.97021 69.6895 5.12701 69.8878 5.32463C70.0895 5.52258 70.2479 5.75962 70.3534 6.02101C70.4589 6.28239 70.5091 6.56254 70.501 6.84404C70.51 7.12504 70.4609 7.40489 70.3566 7.66625C70.2523 7.92761 70.0951 8.16491 69.8947 8.36344ZM67.2563 8.02123C67.403 8.16898 67.5779 8.2863 67.7706 8.36637C67.9634 8.44644 68.1702 8.48768 68.3792 8.48768C68.5881 8.48768 68.795 8.44644 68.9877 8.36637C69.1805 8.2863 69.3553 8.16898 69.5021 8.02123C69.6547 7.86589 69.7742 7.68159 69.8535 7.47933C69.9328 7.27707 69.9702 7.061 69.9636 6.84404C69.9702 6.62707 69.9328 6.41101 69.8535 6.20875C69.7742 6.00649 69.6547 5.82218 69.5021 5.66684C69.3553 5.51909 69.1805 5.40178 68.9877 5.3217C68.795 5.24163 68.5881 5.2004 68.3792 5.2004C68.1702 5.2004 67.9634 5.24163 67.7706 5.3217C67.5779 5.40178 67.403 5.51909 67.2563 5.66684C67.1086 5.82442 66.9942 6.00974 66.9196 6.2119C66.8451 6.41406 66.812 6.62898 66.8223 6.84404C66.812 7.05909 66.8451 7.27401 66.9196 7.47617C66.9942 7.67833 67.1086 7.86365 67.2563 8.02123Z" fill="white" stroke="white" stroke-width="0.0805195" stroke-miterlimit="10"/>
</g>
<defs>
<linearGradient id="paint0_linear_2_157" x1="15.0178" y1="5.96147" x2="3.53356" y2="17.5208" gradientUnits="userSpaceOnUse">
<stop stop-color="#00A0FF"/>
<stop offset="0.01" stop-color="#00A1FF"/>
<stop offset="0.26" stop-color="#00BEFF"/>
<stop offset="0.51" stop-color="#00D2FF"/>
<stop offset="0.76" stop-color="#00DFFF"/>
<stop offset="1" stop-color="#00E3FF"/>
</linearGradient>
<linearGradient id="paint1_linear_2_157" x1="23.3052" y1="13.6881" x2="6.64097" y2="13.6881" gradientUnits="userSpaceOnUse">
<stop stop-color="#FFE000"/>
<stop offset="0.41" stop-color="#FFBD00"/>
<stop offset="0.78" stop-color="#FFA500"/>
<stop offset="1" stop-color="#FF9C00"/>
</linearGradient>
<linearGradient id="paint2_linear_2_157" x1="17.105" y1="15.2626" x2="1.52799" y2="30.9346" gradientUnits="userSpaceOnUse">
<stop stop-color="#FF3A44"/>
<stop offset="1" stop-color="#C31162"/>
</linearGradient>
<linearGradient id="paint3_linear_2_157" x1="5.02878" y1="0.123048" x2="11.9823" y2="7.12201" gradientUnits="userSpaceOnUse">
<stop stop-color="#32A071"/>
<stop offset="0.07" stop-color="#2DA771"/>
<stop offset="0.48" stop-color="#15CF74"/>
<stop offset="0.8" stop-color="#06E775"/>
<stop offset="1" stop-color="#00F076"/>
</linearGradient>
<clipPath id="clip0_2_157">
<rect width="93" height="27.3766" fill="white"/>
</clipPath>
</defs>
</svg>
