<svg width="30" height="32" viewBox="0 0 30 32" fill="none" xmlns="http://www.w3.org/2000/svg">
<path d="M15.2809 32C11.0296 32 6.77832 32 2.52702 32C2.13645 31.9976 1.74671 31.9649 1.36155 31.9023C0.517789 31.7654 0.0122647 31.1612 0.00123511 30.3029C0.00123511 29.7324 0.00123511 29.162 0.00123511 28.5915C0.00123511 24.7584 0.0196178 20.9252 0.00123511 17.092C-0.0139025 16.4141 0.110236 15.7401 0.36646 15.109C0.622683 14.4779 1.0059 13.9021 1.49391 13.4152C4.90757 9.84502 8.2955 6.24286 11.6798 2.65314C12.3103 1.98495 12.9371 1.31143 13.5695 0.643246C13.7593 0.441959 13.9901 0.28088 14.2475 0.170173C14.5049 0.0594656 14.7833 0.00153281 15.065 3.00071e-05C15.3467 -0.0014728 15.6257 0.053487 15.8843 0.161442C16.143 0.269396 16.3757 0.428002 16.5677 0.627252C18.8962 3.11518 21.2198 5.6031 23.5384 8.09103C25.2351 9.90899 26.9208 11.7358 28.6359 13.5378C29.5164 14.4106 30.0064 15.5832 29.9999 16.8023C29.9999 21.315 29.9999 25.8276 29.9999 30.3402C30.0014 30.5528 29.959 30.7635 29.8753 30.9601C29.7915 31.1567 29.6681 31.3351 29.5122 31.485C29.3563 31.6349 29.171 31.7533 28.9672 31.8332C28.7634 31.913 28.5452 31.9528 28.3253 31.9502C24.7076 31.968 21.0899 31.9716 17.4795 31.9805H15.2809V32ZM15.0714 2.25151L8.9922 8.70413C6.95173 10.8651 4.91064 13.0248 2.86893 15.1834C2.46586 15.5925 2.24135 16.136 2.24208 16.701C2.24208 20.4175 2.24208 24.1328 2.24208 27.8469C2.24208 27.9162 2.24208 27.9873 2.25679 28.0815C2.36157 28.014 2.44062 27.966 2.51782 27.9145C5.15023 26.1457 7.78508 24.3792 10.4224 22.6152C10.5024 22.5702 10.5676 22.5044 10.6105 22.4251C10.6535 22.3459 10.6724 22.2565 10.665 22.1674C10.6577 18.862 10.6577 15.5578 10.665 12.2548V11.942H19.4887V12.2583C19.4887 15.5755 19.4887 18.888 19.4887 22.1958C19.4789 22.2685 19.491 22.3424 19.5236 22.4086C19.5562 22.4749 19.6079 22.5305 19.6725 22.569C22.2204 24.2193 24.7645 25.8744 27.305 27.5342L27.7536 27.8238C27.7641 27.7746 27.7715 27.7247 27.7756 27.6746C27.7756 24.0019 27.7756 20.3293 27.7756 16.6566C27.7735 16.1136 27.5572 15.5918 27.1708 15.1976L25.4465 13.3601C23.9392 11.756 22.4391 10.1513 20.9465 8.54597C18.9942 6.45611 17.0438 4.36447 15.0732 2.25151H15.0714ZM26.748 29.7964C26.6653 29.7378 26.6322 29.7111 26.5973 29.6898C23.7958 27.8653 20.9936 26.042 18.1909 24.2199C18.0803 24.1548 17.9527 24.1215 17.8232 24.1239C15.9923 24.1168 14.162 24.1168 12.3323 24.1239C12.1798 24.1272 12.0312 24.1721 11.904 24.2537C9.23241 26.0379 6.56385 27.828 3.89837 29.624C3.83219 29.6667 3.77336 29.72 3.67777 29.8017L26.748 29.7964ZM17.2258 21.9381V14.1189H12.8912V21.9381H17.2258Z" fill="#7A7A7A"/>
</svg>
