<svg width="106" height="32" viewBox="0 0 106 32" fill="none" xmlns="http://www.w3.org/2000/svg">
<path d="M15.0875 32C10.9928 32 6.89872 32 2.80533 32C2.38615 31.995 1.96853 31.948 1.55866 31.8598C1.22611 31.7987 0.925245 31.6232 0.708006 31.3635C0.490767 31.1038 0.370781 30.7762 0.368757 30.4373C0.368757 30.2666 0.368757 30.0959 0.368757 29.9252C0.358622 25.7024 0.387001 21.4837 0.342405 17.2711C0.320008 16.5396 0.444685 15.8111 0.709009 15.1289C0.973334 14.4467 1.3719 13.8248 1.88097 13.3003C5.73246 9.12631 9.53732 4.91573 13.3584 0.719378C14.228 -0.235724 15.5375 -0.243853 16.399 0.719378L27.5217 13.0666C27.8258 13.404 28.1441 13.7311 28.4157 14.0827C28.9969 14.8649 29.3028 15.8183 29.2853 16.7935C29.2853 21.2642 29.2853 25.7349 29.2853 30.2056C29.2853 31.2481 28.6508 31.9045 27.6109 31.9492C27.1123 31.9695 26.6136 31.9858 26.1149 31.9858C22.4405 31.9858 18.7653 31.9858 15.0895 31.9858L15.0875 32ZM2.51951 28.0658C2.64924 27.9865 2.72222 27.9439 2.79519 27.8931C5.3169 26.1387 7.83929 24.3856 10.3624 22.6339C10.4523 22.5805 10.5255 22.5029 10.5735 22.4098C10.6215 22.3167 10.6425 22.212 10.634 22.1076C10.6259 18.867 10.6259 15.6264 10.634 12.3859V11.9591H19.1681V12.394C19.1681 15.6454 19.1681 18.8968 19.1681 22.1482C19.1597 22.2389 19.1767 22.33 19.2172 22.4115C19.2576 22.493 19.32 22.5616 19.3971 22.6095C21.8823 24.2786 24.3635 25.9517 26.8406 27.6289C26.9197 27.6817 27.0069 27.7224 27.1123 27.7813C27.1123 27.6858 27.1224 27.6309 27.1224 27.5781C27.1224 23.9636 27.1224 20.3484 27.1224 16.7326C27.1214 16.1353 26.8914 15.5612 26.4798 15.1292C25.0919 13.5984 23.7074 12.0648 22.3263 10.5285C20.3343 8.31481 18.3444 6.10318 16.3565 3.89357C15.874 3.35709 15.3896 2.82467 14.8889 2.26786C14.7247 2.44466 14.5848 2.59097 14.449 2.74135C10.7205 6.83271 6.99602 10.9207 3.27562 15.0053C3.02696 15.2612 2.83124 15.5638 2.69974 15.8958C2.56823 16.2279 2.50354 16.5827 2.50937 16.9399C2.51951 20.5083 2.50937 24.0787 2.50937 27.6492L2.51951 28.0658ZM3.91821 29.7565H26.046C26.0217 29.7139 26.0176 29.7017 26.0095 29.6956C23.3067 27.8666 20.6039 26.0377 17.9011 24.2088C17.778 24.1374 17.6379 24.1009 17.4957 24.1031C15.7605 24.095 14.0253 24.095 12.2901 24.1031C12.1254 24.1107 11.966 24.1642 11.83 24.2576C10.4191 25.2289 9.01298 26.205 7.61158 27.1859L3.91821 29.7565ZM12.7969 14.1233V21.9044H16.9646V14.1233H12.7969Z" fill="#7A7A7A"/>
<path d="M66.832 13.7982H69.749V15.4239C69.9375 15.2024 70.0592 15.0439 70.197 14.9017C71.1031 13.973 72.2363 13.5604 73.5012 13.5117C76.6817 13.3897 79.0027 15.3223 79.544 18.5087C79.7588 19.7886 79.7382 21.0972 79.4832 22.3697C79.6859 22.0893 79.9007 21.817 80.0913 21.5244C80.5535 20.7867 80.6873 19.9454 80.8535 19.1082C81.3278 16.6879 82.5704 14.8407 84.9786 14.0421C86.9003 13.4101 88.7247 13.788 90.3322 15.0073C92.4201 16.5782 91.9802 18.8887 90.8248 20.2197C89.8964 21.2886 88.6781 21.8454 87.324 22.0974C86.6975 22.1905 86.0658 22.2448 85.4327 22.26C85.1408 22.2783 84.8489 22.26 84.5347 22.26C84.6747 22.7482 84.981 23.1717 85.4003 23.4569C86.6956 24.4141 88.6679 24.349 90.0626 23.2822C90.425 22.9911 90.7639 22.6717 91.0761 22.3271C91.2423 22.1543 91.3984 22.1238 91.5768 22.262C91.9701 22.5851 92.3714 22.9022 92.7343 23.2578C93.0971 23.6134 93.0789 23.7394 92.8032 24.1458C92.3694 24.8227 91.8032 25.4044 91.1387 25.8557C90.4743 26.3069 89.7255 26.6184 88.9375 26.7713C86.7827 27.2062 84.7719 26.8729 83.0448 25.4464C82.4366 24.9485 81.9704 24.2942 81.4596 23.7333C80.7318 24.2617 79.9595 24.8713 79.1426 25.4078C77.6894 26.4024 75.9703 26.9337 74.2107 26.9319C73.4867 26.9118 72.7664 26.8213 72.0599 26.6616C71.2815 26.497 70.9207 26.2267 69.8301 25.2696V31.9756H66.832V13.7982ZM76.6594 20.173C76.5966 19.7483 76.5662 19.3154 76.4709 18.8989C76.1182 17.3829 75.0175 16.3953 73.5579 16.2571C72.8532 16.1696 72.1396 16.3201 71.5298 16.6849C70.92 17.0496 70.4488 17.6077 70.1909 18.2709C69.8925 18.9442 69.7543 19.6779 69.7874 20.414C69.8205 21.15 70.0239 21.8683 70.3815 22.512C70.9673 23.5931 71.916 24.1377 73.1586 24.1621C73.7456 24.1948 74.3298 24.0594 74.8428 23.7715C75.3557 23.4836 75.7763 23.0552 76.0553 22.5364C76.4493 21.8115 76.6543 20.9985 76.6513 20.173H76.6594ZM83.9711 19.8214C84.7787 19.9233 85.598 19.8779 86.3895 19.6873C87.1557 19.5044 87.8956 19.2545 88.4693 18.6713C89.2173 17.9173 89.0571 17.011 88.0943 16.5843C87.6663 16.377 87.1893 16.2935 86.7166 16.343C86.2439 16.3926 85.7944 16.5732 85.4185 16.8647C84.9374 17.1851 84.5494 17.6274 84.2938 18.1467C84.0382 18.6659 83.9241 19.2437 83.963 19.8214H83.9711Z" fill="#7A7A7A"/>
<path d="M53.4766 13.7962H56.3895V15.4422C56.5699 15.2268 56.6834 15.0784 56.8132 14.9443C57.7193 13.9973 58.8585 13.5747 60.1356 13.5218C63.3283 13.3958 65.6594 15.3386 66.1905 18.5432C66.4763 20.2644 66.3709 21.9471 65.627 23.5463C63.9445 27.1717 60.0281 27.4562 57.8875 26.3405C57.3868 26.0804 56.9551 25.6882 56.4848 25.3529V31.9858H53.4766V13.7962ZM63.3201 20.1771C63.2564 19.6727 63.1657 19.172 63.0485 18.6774C62.6431 17.2406 61.5099 16.3282 60.1072 16.2388C58.5909 16.1514 57.3585 16.9053 56.799 18.3461C56.5216 19.0095 56.3976 19.7272 56.4362 20.4455C56.4748 21.1638 56.6751 21.864 57.022 22.4937C57.2728 22.9888 57.6549 23.405 58.1262 23.6968C58.5974 23.9886 59.1398 24.1446 59.6937 24.1479C60.9809 24.2027 61.9843 23.6967 62.6613 22.5872C63.1114 21.8597 63.2634 21.0407 63.3201 20.1771Z" fill="#7A7A7A"/>
<path d="M52.5545 26.5153C51.7133 26.5153 50.8984 26.5153 50.0835 26.5153C49.8808 26.5153 49.8808 26.3994 49.8808 26.247C49.897 25.7471 49.9091 25.2472 49.9213 24.7473C49.9213 24.6396 49.9213 24.5319 49.9213 24.3409C49.8382 24.4445 49.8017 24.4831 49.7733 24.5258C48.6827 26.2226 47.0793 26.9339 45.1232 26.9034C43.5702 26.8916 42.0746 26.3133 40.9159 25.2767C39.7572 24.24 39.0146 22.8158 38.827 21.2703C38.5554 19.3195 38.8554 17.4743 40.0716 15.8832C41.4582 14.0542 43.3576 13.3105 45.6097 13.4141C46.9678 13.4771 48.1841 13.9161 49.1469 14.9159C49.4191 15.2329 49.6709 15.5668 49.901 15.9157V13.8165H52.5545V26.5153ZM49.2625 20.0917C49.2442 17.578 47.9793 16.1514 45.6867 15.934C43.8846 15.7633 42.3298 16.694 41.7257 18.3441C41.4967 18.941 41.388 19.5776 41.4057 20.2169C41.4235 20.8562 41.5674 21.4857 41.8291 22.069C42.079 22.6704 42.4801 23.1965 42.9934 23.5961C43.5066 23.9956 44.1145 24.255 44.7576 24.3487C45.4006 24.4425 46.057 24.3675 46.6625 24.1311C47.268 23.8946 47.8021 23.5048 48.2125 22.9997C48.8767 22.1752 49.2464 21.1514 49.2625 20.0917Z" fill="#7A7A7A"/>
<path d="M98.788 18.2567C98.788 17.0374 98.788 15.8994 98.788 14.7513C98.788 14.0563 99.0069 13.8409 99.7063 13.8389C99.9455 13.8389 100.183 13.8389 100.422 13.8389C100.993 13.8551 101.247 14.1071 101.249 14.6822C101.249 15.7389 101.249 16.7977 101.249 17.8544V18.2608H102.025C102.956 18.2608 103.884 18.2608 104.815 18.2608C105.392 18.2608 105.648 18.5209 105.656 19.094C105.656 19.3541 105.642 19.6183 105.656 19.8784C105.664 19.9941 105.647 20.1103 105.607 20.2189C105.566 20.3274 105.502 20.4258 105.419 20.5072C105.337 20.5886 105.238 20.651 105.129 20.6901C105.02 20.7293 104.903 20.7442 104.788 20.7339C103.746 20.7136 102.702 20.7339 101.658 20.7339H101.253V21.12C101.253 22.1665 101.253 23.2131 101.253 24.2596C101.253 24.8794 101.018 25.1213 100.398 25.1457C100.114 25.1578 99.8299 25.1558 99.5461 25.1457C99.0515 25.1314 98.7941 24.8733 98.792 24.3775C98.792 23.2964 98.792 22.2174 98.792 21.1261V20.7197H97.8089C96.9575 20.7197 96.1061 20.7197 95.2568 20.7197C94.6203 20.7197 94.377 20.4657 94.375 19.8255C94.375 19.5634 94.375 19.3033 94.375 19.0411C94.375 18.5168 94.6405 18.2567 95.1858 18.2527C96.2176 18.2527 97.2494 18.2527 98.2812 18.2527L98.788 18.2567Z" fill="#7A7A7A"/>
<path d="M86.4778 11.4044C85.8697 11.9429 85.2615 12.4712 84.6534 13.0037C84.1953 13.4101 84.1162 13.4101 83.6601 13.0037C83.3723 12.7496 83.0844 12.4916 82.8027 12.2294C82.5209 11.9673 82.5006 11.823 82.7905 11.5568C83.5729 10.8333 84.3655 10.1221 85.1581 9.40881C85.4095 9.18121 85.6588 8.94751 85.9244 8.73617C86.2994 8.43338 86.6724 8.42119 87.0332 8.73617C88.0873 9.66689 89.1319 10.6078 90.1671 11.5588C90.4509 11.8169 90.4306 11.9795 90.1468 12.2314C89.8245 12.518 89.5063 12.8065 89.1819 13.0931C88.8576 13.3796 88.7279 13.3857 88.3954 13.0931C87.8055 12.5789 87.2258 12.0546 86.6399 11.5365C86.5994 11.4999 86.5467 11.4592 86.4778 11.4044Z" fill="#7A7A7A"/>
</svg>
