<svg width="100" height="31" viewBox="0 0 100 31" fill="none" xmlns="http://www.w3.org/2000/svg">
<path d="M14.0032 30.3846C10.1152 30.3846 6.22778 30.3846 2.34103 30.3846C1.94301 30.3798 1.54647 30.3352 1.15729 30.2515C0.841524 30.1935 0.55585 30.0268 0.349577 29.7802C0.143304 29.5337 0.0293755 29.2226 0.027454 28.9008C0.027454 28.7387 0.027454 28.5766 0.027454 28.4145C0.0178302 24.4049 0.0447769 20.3992 0.00243201 16.3992C-0.0188343 15.7047 0.0995484 15.0129 0.35053 14.3652C0.601511 13.7174 0.979958 13.127 1.46333 12.6289C5.12039 8.66561 8.73318 4.66758 12.3614 0.683063C13.1871 -0.223825 14.4305 -0.231543 15.2485 0.683063L25.8097 12.407C26.0984 12.7273 26.4006 13.038 26.6586 13.3718C27.2104 14.1145 27.5008 15.0198 27.4843 15.9458C27.4843 20.1908 27.4843 24.4358 27.4843 28.6808C27.4843 29.6707 26.8818 30.2939 25.8944 30.3364C25.4209 30.3557 24.9474 30.3711 24.4739 30.3711C20.985 30.3711 17.4954 30.3711 14.0051 30.3711L14.0032 30.3846ZM2.06963 26.649C2.19282 26.5738 2.26211 26.5332 2.3314 26.485C4.72581 24.8192 7.12087 23.1546 9.51656 21.4913C9.60197 21.4406 9.67144 21.3669 9.71704 21.2785C9.76265 21.1902 9.78255 21.0907 9.77448 20.9916C9.76678 17.9146 9.76678 14.8376 9.77448 11.7606V11.3554H17.8778V11.7683C17.8778 14.8556 17.8778 17.9429 17.8778 21.0302C17.8698 21.1162 17.886 21.2028 17.9244 21.2802C17.9628 21.3575 18.022 21.4226 18.0953 21.4682C20.455 23.053 22.8109 24.6416 25.163 26.2342C25.2381 26.2843 25.3208 26.3229 25.4209 26.3789C25.4209 26.2882 25.4306 26.2361 25.4306 26.1859C25.4306 22.7539 25.4306 19.3212 25.4306 15.8879C25.4296 15.3207 25.2112 14.7756 24.8204 14.3655C23.5026 12.9119 22.188 11.4557 20.8765 9.997C18.9851 7.89508 17.0957 5.79508 15.2081 3.69702C14.75 3.18762 14.29 2.68208 13.8146 2.15338C13.6587 2.32125 13.5259 2.46018 13.3969 2.60297C9.85661 6.48779 6.32016 10.3694 2.78757 14.2478C2.55147 14.4908 2.36563 14.7781 2.24076 15.0934C2.1159 15.4087 2.05447 15.7456 2.06001 16.0847C2.06963 19.473 2.06001 22.8632 2.06001 26.2535L2.06963 26.649ZM3.39772 28.2544H24.4085C24.3854 28.2139 24.3816 28.2023 24.3739 28.1965C21.8075 26.4599 19.2411 24.7233 16.6748 22.9867C16.5579 22.9189 16.4248 22.8842 16.2898 22.8864C14.6422 22.8787 12.9946 22.8787 11.347 22.8864C11.1906 22.8935 11.0393 22.9443 10.9101 23.033C9.57046 23.9554 8.23531 24.8822 6.90465 25.8135L3.39772 28.2544ZM11.8282 13.4104V20.7986H15.7855V13.4104H11.8282Z" fill="#0065DD"/>
<path d="M63.1348 13.1017H65.9045V14.6453C66.0835 14.435 66.199 14.2845 66.3299 14.1494C67.1903 13.2676 68.2662 12.8759 69.4673 12.8296C72.4872 12.7139 74.6911 14.5489 75.205 17.5744C75.409 18.7897 75.3894 20.0322 75.1472 21.2405C75.3397 20.9743 75.5437 20.7157 75.7247 20.4378C76.1635 19.7374 76.2906 18.9386 76.4484 18.1436C76.8988 15.8455 78.0787 14.0916 80.3653 13.3332C82.19 12.7332 83.9223 13.0921 85.4486 14.2498C87.4311 15.7413 87.0134 17.9352 85.9163 19.1991C85.0348 20.214 83.878 20.7427 82.5923 20.982C81.9974 21.0704 81.3976 21.1219 80.7964 21.1363C80.5193 21.1537 80.2421 21.1363 79.9438 21.1363C80.0768 21.5999 80.3676 22.002 80.7656 22.2728C81.9956 23.1817 83.8684 23.1199 85.1926 22.1069C85.5367 21.8305 85.8585 21.5273 86.155 21.2C86.3128 21.036 86.461 21.0071 86.6304 21.1383C87.0038 21.4451 87.3849 21.7461 87.7295 22.0838C88.074 22.4214 88.0567 22.5411 87.7949 22.927C87.383 23.5697 86.8453 24.122 86.2144 24.5505C85.5836 24.979 84.8725 25.2748 84.1244 25.4199C82.0783 25.8329 80.169 25.5164 78.5291 24.1619C77.9516 23.6891 77.5089 23.0678 77.0239 22.5353C76.3329 23.0369 75.5996 23.6158 74.8239 24.1252C73.444 25.0697 71.8117 25.5741 70.1409 25.5724C69.4535 25.5533 68.7696 25.4673 68.0987 25.3157C67.3596 25.1595 67.017 24.9028 65.9815 23.994V30.3615H63.1348V13.1017ZM72.466 19.1547C72.4064 18.7514 72.3775 18.3404 72.287 17.9449C71.9521 16.5054 70.907 15.5677 69.5211 15.4365C68.852 15.3534 68.1744 15.4963 67.5953 15.8426C67.0163 16.1889 66.569 16.7189 66.3241 17.3486C66.0407 17.988 65.9096 18.6846 65.941 19.3835C65.9724 20.0824 66.1655 20.7644 66.505 21.3756C67.0613 22.4021 67.9621 22.9192 69.142 22.9424C69.6993 22.9735 70.254 22.8449 70.7411 22.5715C71.2282 22.2981 71.6276 21.8914 71.8925 21.3988C72.2666 20.7104 72.4612 19.9386 72.4583 19.1547H72.466ZM79.4087 18.8209C80.1755 18.9176 80.9534 18.8745 81.7049 18.6935C82.4325 18.5199 83.135 18.2825 83.6797 17.7288C84.39 17.0129 84.2379 16.1523 83.3237 15.7471C82.9173 15.5503 82.4643 15.471 82.0155 15.5181C81.5667 15.5651 81.1399 15.7366 80.783 16.0134C80.3262 16.3177 79.9577 16.7376 79.715 17.2307C79.4723 17.7237 79.364 18.2723 79.401 18.8209H79.4087Z" fill="#0065DD"/>
<path d="M50.4546 13.0997H53.2205V14.6627C53.3918 14.4581 53.4996 14.3173 53.6228 14.1899C54.4831 13.2907 55.5648 12.8894 56.7775 12.8392C59.809 12.7196 62.0224 14.5642 62.5267 17.6071C62.7981 19.2415 62.698 20.8391 61.9916 22.3577C60.3941 25.8 56.6754 26.0701 54.6429 25.0108C54.1675 24.7638 53.7575 24.3914 53.3109 24.0731V30.3711H50.4546V13.0997ZM59.8013 19.1585C59.7408 18.6795 59.6547 18.2042 59.5433 17.7345C59.1584 16.3703 58.0824 15.5039 56.7505 15.419C55.3108 15.3361 54.1405 16.0519 53.6093 17.42C53.3459 18.0499 53.2282 18.7314 53.2648 19.4134C53.3015 20.0954 53.4916 20.7603 53.821 21.3582C54.0592 21.8283 54.422 22.2235 54.8695 22.5006C55.317 22.7776 55.8319 22.9258 56.3579 22.9288C57.5801 22.9809 58.5328 22.5005 59.1757 21.4469C59.603 20.7562 59.7474 19.9786 59.8013 19.1585V19.1585Z" fill="#0065DD"/>
<path d="M49.5805 25.1768C48.7817 25.1768 48.0079 25.1768 47.2342 25.1768C47.0417 25.1768 47.0417 25.0668 47.0417 24.9221C47.0571 24.4474 47.0687 23.9728 47.0802 23.4981C47.0802 23.3958 47.0802 23.2936 47.0802 23.1122C47.0013 23.2106 46.9666 23.2473 46.9397 23.2878C45.9042 24.8989 44.3817 25.5743 42.5243 25.5453C41.0497 25.5341 39.6296 24.9851 38.5294 24.0007C37.4292 23.0164 36.7241 21.6641 36.546 20.1966C36.288 18.3443 36.5729 16.5922 37.7278 15.0814C39.0443 13.3448 40.8478 12.6386 42.9862 12.737C44.2758 12.7968 45.4307 13.2136 46.3449 14.1629C46.6033 14.464 46.8425 14.781 47.061 15.1123V13.1191H49.5805V25.1768ZM46.4547 19.0775C46.4373 16.6906 45.2363 15.3361 43.0594 15.1296C41.3482 14.9676 39.872 15.8513 39.2984 17.4181C39.0809 17.9849 38.9777 18.5893 38.9945 19.1964C39.0114 19.8034 39.148 20.4011 39.3965 20.955C39.6338 21.526 40.0147 22.0256 40.502 22.405C40.9894 22.7844 41.5665 23.0306 42.1771 23.1196C42.7877 23.2087 43.411 23.1374 43.9859 22.9129C44.5609 22.6884 45.068 22.3183 45.4576 21.8387C46.0884 21.0558 46.4394 20.0837 46.4547 19.0775Z" fill="#0065DD"/>
<path d="M93.4768 17.335C93.4768 16.1772 93.4768 15.0967 93.4768 14.0065C93.4768 13.3466 93.6847 13.1421 94.3488 13.1401C94.5759 13.1401 94.8011 13.1401 95.0282 13.1401C95.571 13.1556 95.8116 13.3948 95.8135 13.9409C95.8135 14.9443 95.8135 15.9496 95.8135 16.9529V17.3388H96.5507C97.4342 17.3388 98.3157 17.3388 99.1992 17.3388C99.7477 17.3388 99.9903 17.5858 99.998 18.13C99.998 18.3769 99.9845 18.6278 99.998 18.8748C100.006 18.9847 99.99 19.095 99.9512 19.1981C99.9124 19.3012 99.8518 19.3946 99.7734 19.4719C99.695 19.5491 99.6009 19.6084 99.4974 19.6456C99.3939 19.6827 99.2836 19.6969 99.1742 19.6871C98.1848 19.6678 97.1936 19.6871 96.2023 19.6871H95.8174V20.0537C95.8174 21.0474 95.8174 22.0411 95.8174 23.0349C95.8174 23.6234 95.5941 23.853 95.0051 23.8761C94.7356 23.8877 94.4662 23.8858 94.1967 23.8761C93.7271 23.8626 93.4826 23.6176 93.4807 23.1468C93.4807 22.1203 93.4807 21.0957 93.4807 20.0595V19.6736H92.5472C91.7388 19.6736 90.9304 19.6736 90.1239 19.6736C89.5195 19.6736 89.2885 19.4324 89.2866 18.8246C89.2866 18.5757 89.2866 18.3287 89.2866 18.0798C89.2866 17.582 89.5388 17.335 90.0565 17.3311C91.0362 17.3311 92.0159 17.3311 92.9957 17.3311L93.4768 17.335Z" fill="#0065DD"/>
<path d="M81.7899 10.8287C81.2125 11.34 80.635 11.8417 80.0576 12.3472C79.6226 12.7332 79.5475 12.7332 79.1145 12.3472C78.8412 12.106 78.5678 11.861 78.3003 11.6121C78.0328 11.3632 78.0135 11.2262 78.2888 10.9734C79.0317 10.2865 79.7843 9.61114 80.5369 8.93387C80.7756 8.71776 81.0123 8.49586 81.2644 8.29519C81.6205 8.00768 81.9747 7.99611 82.3173 8.29519C83.3182 9.17892 84.3101 10.0723 85.293 10.9753C85.5625 11.2204 85.5432 11.3747 85.2737 11.614C84.9677 11.8861 84.6655 12.1601 84.3575 12.4321C84.0496 12.7042 83.9264 12.71 83.6107 12.4321C83.0506 11.944 82.5001 11.4461 81.9439 10.9541C81.9054 10.9194 81.8554 10.8808 81.7899 10.8287Z" fill="#0065DD"/>
</svg>
