<svg width="68" height="50" viewBox="0 0 68 50" fill="none" xmlns="http://www.w3.org/2000/svg">
<g clip-path="url(#clip0_27_1490)">
<path d="M28.0528 12.0896L27.4275 18.0129C27.4101 18.2213 27.497 18.4297 27.662 18.5513C27.8357 18.6729 28.0528 18.699 28.2439 18.6121L33.6894 16.189L39.135 18.6121C39.2131 18.6469 39.2913 18.6642 39.3695 18.6642C39.4911 18.6642 39.6127 18.6295 39.7169 18.5513C39.8906 18.4297 39.9774 18.2213 39.9514 18.0129L39.326 12.0896L43.3125 7.66024C43.4515 7.50391 43.5036 7.28678 43.4341 7.08702C43.3733 6.88727 43.1996 6.73962 42.9998 6.6962L37.1721 5.45423L34.2019 0.295293C34.0976 0.112906 33.9066 0 33.6894 0C33.4723 0 33.2899 0.112906 33.177 0.295293L30.198 5.45423L24.3703 6.6962C24.1619 6.73962 23.9969 6.88727 23.9361 7.08702C23.8666 7.28678 23.9187 7.50391 24.0577 7.66024L28.0528 12.0896ZM30.7105 6.54855C30.8755 6.51381 31.0144 6.40959 31.1013 6.27063L33.6981 1.77176L36.295 6.26194C36.3818 6.40959 36.5208 6.50512 36.6858 6.53986L41.7666 7.6255L38.2838 11.4904C38.1709 11.6119 38.1188 11.777 38.1362 11.942L38.6834 17.1183L33.9239 15.0078C33.7676 14.9383 33.6026 14.9383 33.4462 15.0078L28.6868 17.1183L29.234 11.942C29.2514 11.777 29.1992 11.6119 29.0863 11.4904L25.621 7.6255L30.7105 6.54855Z" fill="#FD4A19" stroke="#FD4A19" stroke-width="0.5"/>
<path d="M43.3125 10.4134L45.0756 14.782L43.0085 19.0203C42.913 19.2114 42.9303 19.4285 43.0519 19.6022C43.1648 19.7759 43.3993 19.8715 43.5817 19.8628L48.289 19.5414L51.6849 22.8157C51.7978 22.9199 51.9455 22.9807 52.0931 22.9807C52.1452 22.9807 52.1973 22.972 52.2581 22.9547C52.4579 22.8939 52.6142 22.7375 52.6663 22.5291L53.8041 17.9521L57.9642 15.7374C58.1466 15.6418 58.2682 15.4507 58.2769 15.2423C58.2856 15.0339 58.1813 14.8341 57.999 14.7212L54.0038 12.2199L53.1874 7.58207C53.1527 7.37363 53.005 7.19992 52.814 7.13044C52.6229 7.06096 52.3971 7.0957 52.2321 7.23466L48.6278 10.2658L43.9552 9.60569C43.7554 9.57964 43.5383 9.6578 43.408 9.82282C43.2691 9.99652 43.2343 10.2223 43.3125 10.4134ZM48.7059 11.4643C48.8623 11.4904 49.036 11.4382 49.1662 11.334L52.1973 8.78929L52.8834 12.6802C52.9095 12.8452 53.005 12.9842 53.1527 13.0797L56.5138 15.1815L53.0224 17.0401C52.8748 17.1183 52.7705 17.2572 52.7271 17.4136L51.7718 21.2524L48.923 18.4992C48.8188 18.395 48.6712 18.3342 48.5148 18.3342C48.4975 18.3342 48.4888 18.3342 48.4714 18.3342L44.5197 18.6034L46.2567 15.0426C46.3262 14.8949 46.3349 14.7212 46.2741 14.5649L44.7976 10.8911L48.7059 11.4643Z" fill="#FD4A19" stroke="#FD4A19" stroke-width="0.5"/>
<path d="M55.9753 18.4124C55.8451 18.5774 55.819 18.8032 55.8972 18.9943L57.1913 22.2164L55.6714 25.3344C55.5758 25.5255 55.5932 25.7426 55.7148 25.9163C55.8277 26.09 56.0622 26.1855 56.2446 26.1768L59.7099 25.9337L62.2112 28.3394C62.3241 28.4436 62.4718 28.5044 62.6194 28.5044C62.6715 28.5044 62.7236 28.4958 62.7844 28.4784C62.9842 28.4176 63.1405 28.2613 63.1926 28.0528L64.0351 24.683L67.1009 23.0502C67.2833 22.9547 67.4049 22.7636 67.4136 22.5552C67.4223 22.3467 67.3181 22.147 67.1357 22.0341L64.1914 20.1928L63.5922 16.7796C63.5574 16.5711 63.4098 16.3974 63.2187 16.328C63.0276 16.2585 62.8018 16.2932 62.6368 16.4322L59.9792 18.6642L56.5399 18.1779C56.3314 18.1692 56.1056 18.2474 55.9753 18.4124ZM60.0573 19.8802C60.2137 19.9062 60.3874 19.8541 60.5176 19.7499L62.5934 18.0042L63.0624 20.6705C63.0884 20.8355 63.184 20.9745 63.3316 21.07L65.6418 22.5117L63.2448 23.7884C63.0971 23.8666 62.9929 24.0056 62.9495 24.1619L62.2894 26.8022L60.3353 24.9175C60.2223 24.8133 60.0747 24.7525 59.9271 24.7525C59.9097 24.7525 59.901 24.7525 59.8836 24.7525L57.1739 24.9436L58.3637 22.503C58.4332 22.3554 58.4419 22.1817 58.3811 22.0254L57.365 19.5067L60.0573 19.8802Z" fill="#FD4A19" stroke="#FD4A19" stroke-width="0.5"/>
<path d="M9.4233 15.6853L13.5835 17.9L14.7212 22.477C14.7733 22.6768 14.9296 22.8418 15.1294 22.9026C15.1815 22.92 15.2336 22.9287 15.2944 22.9287C15.4421 22.9287 15.5897 22.8679 15.7026 22.7636L19.0985 19.4894L23.8058 19.8107C23.9882 19.8194 24.214 19.7239 24.3356 19.5502C24.4572 19.3765 24.4659 19.1506 24.379 18.9683L22.312 14.7299L24.075 10.3613C24.1532 10.1703 24.1185 9.94446 23.9969 9.77944C23.8666 9.61443 23.6495 9.52758 23.4497 9.56232L18.7771 10.2224L15.1728 7.19129C15.0165 7.06101 14.7907 7.01759 14.5909 7.08707C14.3912 7.15655 14.2522 7.33025 14.2175 7.53869L13.4011 12.1765L9.40593 14.6778C9.23223 14.7907 9.11932 14.9905 9.12801 15.1989C9.11932 15.3987 9.24091 15.5898 9.4233 15.6853ZM14.2348 13.0277C14.3738 12.9408 14.4693 12.7932 14.5041 12.6281L15.1902 8.73724L18.2213 11.282C18.3516 11.3862 18.5253 11.4383 18.6816 11.4122L22.6073 10.8564L21.1308 14.5302C21.07 14.6865 21.07 14.8602 21.1482 15.0079L22.8852 18.5687L18.9335 18.2995C18.7858 18.2908 18.6034 18.3429 18.4905 18.4645L15.6418 21.2177L14.6865 17.3789C14.643 17.2139 14.5388 17.0836 14.3912 17.0054L10.8998 15.1468L14.2348 13.0277Z" fill="#FD4A19" stroke="#FD4A19" stroke-width="0.5"/>
<path d="M0.295288 23.0155L3.36112 24.6483L4.20357 28.0181C4.25568 28.2179 4.41202 28.3829 4.61177 28.4437C4.66388 28.4611 4.71599 28.4697 4.77679 28.4697C4.92444 28.4697 5.07208 28.409 5.18499 28.3047L7.68629 25.899L11.1516 26.1335C11.334 26.1421 11.5598 26.0466 11.6814 25.8729C11.803 25.6992 11.8117 25.4734 11.7249 25.291L10.205 22.1731L11.499 18.9509C11.5772 18.7598 11.5425 18.534 11.4209 18.369C11.2906 18.204 11.0648 18.1171 10.8737 18.1519L7.43442 18.6382L4.77679 16.4062C4.62046 16.2672 4.39465 16.2325 4.19489 16.302C3.99513 16.3714 3.85617 16.5451 3.82143 16.7536L3.22216 20.1668L0.277918 22.0081C0.104216 22.121 -0.00869002 22.3207 -4.94305e-06 22.5292C-0.00869002 22.7289 0.112901 22.9113 0.295288 23.0155ZM4.04724 21.0093C4.1862 20.9224 4.28174 20.7748 4.31648 20.6098L4.78547 17.9434L6.86121 19.6891C6.99148 19.7934 7.16519 19.8455 7.32152 19.8194L10.0139 19.4373L8.99774 21.9559C8.93694 22.1123 8.93694 22.286 9.01511 22.4336L10.205 24.8741L7.49522 24.6917C7.34757 24.6831 7.16519 24.7352 7.04359 24.8568L5.08945 26.7414L4.42939 24.1012C4.38596 23.9361 4.28174 23.8059 4.13409 23.7277L1.73701 22.451L4.04724 21.0093Z" fill="#FD4A19" stroke="#FD4A19" stroke-width="0.5"/>
<path d="M34.8098 22.9199C33.8371 22.5638 32.8035 22.8591 32.0914 23.6928C32.0479 23.745 32.0132 23.8058 31.9872 23.8752L28.3481 34.0628H21.5303C21.209 34.0628 20.9397 34.3234 20.9397 34.6534V48.4714C20.9397 48.7927 21.2003 49.062 21.5303 49.062H28.765C28.7824 49.062 28.7997 49.0533 28.8258 49.0533C31.6397 49.6786 34.5579 49.9999 37.5109 49.9999C38.7615 49.9999 40.0208 49.9391 41.2802 49.8262C42.774 49.8262 44.0507 48.758 44.32 47.2815L46.0657 37.5716C46.0744 36.6336 45.8572 35.852 45.4143 35.1832C43.7207 32.708 39.3434 33.203 36.9898 33.4722C36.9898 33.4722 36.9898 33.4722 36.9811 33.4722C36.8595 33.4896 36.7466 33.4983 36.6337 33.5157V25.7686C36.6337 24.4484 35.9215 23.3281 34.8098 22.9199ZM28.1657 47.8808H22.1035V35.2353H28.1657V47.8808ZM37.12 34.6274C39.0742 34.4015 43.1388 33.9412 44.4329 35.8259C44.7455 36.2862 44.8932 36.8507 44.8932 37.45L43.1562 47.0557C42.9911 47.9676 42.1921 48.6364 41.2194 48.6364C37.1635 48.9925 33.1944 48.7667 29.4077 47.959L29.3469 34.7489L33.0554 24.379C33.4376 23.9795 33.9239 23.8492 34.4103 24.0229C34.8967 24.2053 35.4699 24.7698 35.4699 25.7686V34.1931C35.4699 34.3668 35.548 34.5318 35.6783 34.6447C35.8086 34.7576 35.9823 34.8097 36.156 34.775C36.4513 34.7142 36.7726 34.6708 37.12 34.6274Z" fill="#FD4A19" stroke="#FD4A19" stroke-width="0.5"/>
</g>
<defs>
<clipPath id="clip0_27_1490">
<rect width="67.4136" height="50" fill="white"/>
</clipPath>
</defs>
</svg>
