<svg width="52" height="55" viewBox="0 0 52 55" fill="none" xmlns="http://www.w3.org/2000/svg">
<g clip-path="url(#clip0_27_1498)">
<path d="M51.2249 46.1127H48.4811V25.9872C48.4811 24.4175 47.179 23.1511 45.5746 23.1436H34.4677C34.0414 23.1436 33.6927 23.4848 33.6927 23.9019C33.6927 24.3189 34.0414 24.6602 34.4677 24.6602H45.5746C46.3187 24.6602 46.9232 25.2516 46.931 25.9872V46.1051H30.9799C30.6233 46.1051 30.3133 46.3402 30.2281 46.6814L29.7553 48.5772H22.2525L21.7797 46.6814C21.6944 46.3402 21.3844 46.1051 21.0279 46.1051H5.06901V25.9872C5.06901 25.2592 5.67357 24.6678 6.4254 24.6602H17.1835C17.6098 24.6602 17.9586 24.3189 17.9586 23.9019C17.9586 23.4848 17.6098 23.1436 17.1835 23.1436H6.4254C4.82099 23.1436 3.52661 24.4175 3.51886 25.9872V46.1051H0.775078C0.348785 46.1051 0 46.4463 0 46.8634V48.7819C0.00775078 52.2095 2.84454 54.9849 6.34789 54.9924H45.6521C49.1555 54.9849 51.9922 52.2095 52 48.7819V46.8634C52 46.4539 51.6512 46.1127 51.2249 46.1127ZM50.4498 48.7895C50.4498 51.3829 48.3029 53.4758 45.6521 53.4834H6.34789C3.69712 53.4758 1.55016 51.3753 1.55016 48.7895V47.6293H20.4156L20.8884 49.525C20.9736 49.8663 21.2836 50.1014 21.6402 50.1014H30.3598C30.7164 50.1014 31.0264 49.8663 31.1116 49.525L31.5844 47.6293H50.4498V48.7895Z" fill="#FD4A19" stroke="#FD4A19" stroke-width="0.5"/>
<path d="M35.8474 17.0543C36.2737 18.5709 37.8781 19.4657 39.436 19.0486C40.9939 18.6316 41.9008 17.0619 41.4745 15.5377C41.0482 14.0135 39.4438 13.1263 37.8859 13.5433C36.8938 13.8087 36.1264 14.567 35.8474 15.5377H30.6466C30.2203 15.5377 29.8716 15.8789 29.8716 16.296V38.0745H26.7557V5.60385C28.3059 5.18678 29.2205 3.61708 28.7942 2.09289C28.3679 0.568689 26.7635 -0.31853 25.2056 0.0985391C23.6554 0.515608 22.7408 2.0853 23.1671 3.6095C23.4384 4.58013 24.2135 5.33086 25.2056 5.60385V38.0745H22.0898V11.276C22.0898 10.8589 21.741 10.5177 21.3147 10.5177H16.1139C15.6876 9.00106 14.0832 8.10626 12.5253 8.52333C10.9751 8.9404 10.0606 10.5101 10.4868 12.0343C10.9131 13.5585 12.5175 14.4457 14.0755 14.0286C15.0676 13.7632 15.8349 13.0049 16.1139 12.0343H20.5396V38.0745H17.1835C16.7572 38.0745 16.4084 38.4158 16.4084 38.8329C16.4084 39.2499 16.7572 39.5912 17.1835 39.5912H36.1962C36.6225 39.5912 36.9713 39.2499 36.9713 38.8329C36.9713 38.4158 36.6225 38.0745 36.1962 38.0745H31.4217V17.0543H35.8474ZM38.6454 14.9614C39.3973 14.9614 40.0096 15.5604 40.0096 16.296C40.0096 17.0315 39.3973 17.6306 38.6454 17.6306C37.8936 17.6306 37.2813 17.0315 37.2813 16.296C37.2813 15.5604 37.8859 14.9614 38.6454 14.9614ZM24.6165 2.86636C24.6165 2.1308 25.2288 1.53174 25.9807 1.53174C26.7325 1.53174 27.3448 2.1308 27.3448 2.86636C27.3448 3.60192 26.7325 4.20098 25.9807 4.20098C25.2211 4.20098 24.6165 3.60192 24.6165 2.86636ZM13.3159 12.6106C12.5641 12.6106 11.9517 12.0115 11.9517 11.276C11.9517 10.5404 12.5641 9.94136 13.3159 9.94136C14.0677 9.94136 14.68 10.5404 14.68 11.276C14.68 12.0115 14.0677 12.6106 13.3159 12.6106Z" fill="#FD4A19" stroke="#FD4A19" stroke-width="0.5"/>
</g>
<defs>
<clipPath id="clip0_27_1498">
<rect width="52" height="55" fill="white"/>
</clipPath>
</defs>
</svg>
