<svg width="57" height="66" viewBox="0 0 57 66" fill="none" xmlns="http://www.w3.org/2000/svg">
<path d="M28.6209 66C20.6742 66 12.7275 66 4.78467 66C3.97033 65.9916 3.15992 65.891 2.36525 65.7108C1.03555 65.4509 0.0638476 64.2187 0.0559796 62.7769C0.0559796 62.4248 0.0559796 62.0728 0.0559796 61.7207C0.0363095 53.0112 0.0913857 44.3102 0.00483729 35.6216C-0.0817112 32.5746 0.99621 29.6197 2.99076 27.4319C10.4654 18.823 17.8496 10.1387 25.2652 1.48372C26.9529 -0.486181 29.4943 -0.502946 31.1662 1.48372L52.7522 26.9499C53.3423 27.6457 53.9599 28.3204 54.4871 29.0455C55.6161 30.6592 56.2102 32.6249 56.1748 34.6367C56.1748 43.8575 56.1748 53.0783 56.1748 62.2991C56.1748 64.4492 54.9434 65.803 52.9253 65.8952C51.9575 65.9371 50.9897 65.9707 50.022 65.9707C42.8896 65.9707 35.7572 65.9707 28.6248 65.9707L28.6209 66Z" fill="#4BB7F1" fill-opacity="0.8"/>
</svg>
