<svg width="52" height="56" viewBox="0 0 52 56" fill="none" xmlns="http://www.w3.org/2000/svg">
<g clip-path="url(#clip0_27_1560)">
<path d="M26.7519 46.1202V52.8012H36.007V55.0957H15.1324V52.8012H24.3875V46.1202H0V9.00368H2.29688V43.7583H48.8425V11.5006H22.9688V9.20613H51.2069V46.0528H26.7519V46.1202ZM6.75553 31.0712L5.80975 29.9239V6.64172C5.80975 2.99754 8.78218 0.0957031 12.3626 0.0957031C16.0106 0.0957031 18.9155 3.06503 18.9155 6.64172V29.9239L17.9697 31.0712L14.6595 35.3902H41.0736V37.6847H12.2951C11.9573 37.6847 11.6195 37.5497 11.4168 37.2123L6.75553 31.0712ZM15.5377 30.5988H12.3626H9.18752L12.3626 34.7153L15.5377 30.5988ZM16.6862 7.78895H13.5111V28.3718H16.6862V7.78895ZM8.24174 5.49448H12.4302H16.6186C16.1457 3.67239 14.4568 2.25521 12.4302 2.25521C10.4035 2.3227 8.71463 3.67239 8.24174 5.49448ZM8.10663 28.3718H11.2817V7.78895H8.10663V28.3718Z" fill="#FD4A19"/>
</g>
<defs>
<clipPath id="clip0_27_1560">
<rect width="51.2069" height="55" fill="white" transform="translate(0 0.0957031)"/>
</clipPath>
</defs>
</svg>
