<svg width="40" height="58" viewBox="0 0 40 58" fill="none" xmlns="http://www.w3.org/2000/svg">
<g clip-path="url(#clip0_27_1485)">
<path d="M26.5407 15.8494C26.1069 15.5427 25.5492 15.6653 25.2393 16.0334L18.1131 25.9085L14.8908 21.4923C14.5809 21.063 14.0232 21.0016 13.5895 21.3083C13.1557 21.615 13.0937 22.167 13.4035 22.5964L17.3695 28.0553C17.5554 28.3007 17.8032 28.4233 18.1131 28.4233C18.4229 28.4233 18.6708 28.3007 18.8567 28.0553L26.7885 17.1374C27.0984 16.7081 26.9744 16.156 26.5407 15.8494Z" fill="#FD4A19"/>
<path d="M20.0961 7.44629C12.8459 7.44629 6.95895 13.2733 6.95895 20.4496C6.95895 27.626 12.8459 33.453 20.0961 33.453C27.3463 33.453 33.2332 27.626 33.2332 20.4496C33.2332 13.2733 27.3463 7.44629 20.0961 7.44629ZM20.0961 31.6129C13.8993 31.6129 8.81798 26.5833 8.81798 20.4496C8.81798 14.316 13.8993 9.28638 20.0961 9.28638C26.2928 9.28638 31.3741 14.316 31.3741 20.4496C31.3741 26.5833 26.2928 31.6129 20.0961 31.6129Z" fill="#FD4A19"/>
<path d="M37.0139 30.6308C37.3237 30.4468 37.4476 30.1401 37.4476 29.8334V25.0491L39.8644 20.8783C40.0503 20.5716 40.0503 20.2649 39.8644 19.9582L37.4476 15.8487V11.0644C37.4476 10.7577 37.2617 10.4511 36.9519 10.2671L32.7381 7.87493L30.3214 3.70405C30.1355 3.39737 29.8256 3.21336 29.5158 3.21336H24.6823L20.4685 0.821235C20.1587 0.637225 19.8489 0.637225 19.539 0.821235L15.3252 3.21336H10.4918C10.1819 3.21336 9.8721 3.39737 9.6862 3.70405L7.26947 7.87493L3.05568 10.2671C2.74584 10.4511 2.55994 10.7577 2.55994 11.0644V15.8487L0.143211 20.0196C-0.0426914 20.3262 -0.0426914 20.6329 0.143211 20.9396L2.55994 25.1105V29.8334C2.55994 30.1401 2.74584 30.4468 3.05568 30.6308L7.26947 33.0229L8.75669 35.599L1.94027 52.8959C1.81633 53.2639 1.8783 53.632 2.18814 53.8773C2.43601 54.1226 2.86978 54.184 3.24158 54.0613L8.81866 51.5465L11.1734 57.1281C11.2974 57.4961 11.6692 57.6802 12.041 57.6802C12.4128 57.6802 12.7846 57.4348 12.9085 57.0668L19.663 40.0153C19.7869 40.0766 19.9108 40.0766 20.0348 40.0766C20.1587 40.0766 20.2826 40.0153 20.4066 40.0153L27.161 57.0668C27.285 57.4348 27.6568 57.6188 28.0286 57.6802C28.4004 57.6802 28.7102 57.4348 28.8961 57.1281L31.2509 51.5465L36.828 54.0613C37.1998 54.2453 37.5716 54.1226 37.8814 53.8773C38.1293 53.632 38.2532 53.2026 38.1293 52.8959L31.3128 35.599L32.8001 33.0229L37.0139 30.6308ZM12.1029 54.3741L10.2439 50.0192C10.12 49.7739 9.93407 49.5899 9.74817 49.5285C9.62423 49.4672 9.5003 49.4672 9.43833 49.4672C9.3144 49.4672 9.19046 49.4672 9.06653 49.5285L4.7288 51.4913L10.2439 37.5066C10.3059 37.5066 10.3678 37.5679 10.4298 37.5679H10.4918C10.5537 37.5679 10.6777 37.6293 10.7396 37.6293C11.4833 37.6293 12.1029 37.6293 12.6606 37.6293C14.8915 37.5679 15.6351 37.5679 17.742 38.856C17.742 38.856 17.742 38.856 17.8039 38.856C17.9279 38.9173 18.0518 38.9787 18.1757 39.1013C18.1757 39.1013 18.2377 39.1013 18.2377 39.1627L12.1029 54.3741ZM31.2509 49.5224C31.003 49.3997 30.7551 49.3997 30.5073 49.5224C30.2594 49.5837 30.0735 49.7677 30.0115 50.0131L28.1525 54.368L22.1417 39.0952C24.6204 37.5005 25.302 37.5618 27.7187 37.5618C28.2764 37.5618 28.8341 37.5618 29.5778 37.5618C29.7637 37.5618 29.9496 37.5005 30.1355 37.4391L35.5886 51.4852L31.2509 49.5224ZM31.3128 31.8575L29.4538 35.047L29.0201 35.783C28.5243 35.783 28.0905 35.783 27.6568 35.783C27.5948 35.783 27.5328 35.783 27.4709 35.783C24.8063 35.7217 23.8148 35.8444 21.0262 37.6231C20.8403 37.7458 20.6544 37.8685 20.4066 37.9911L20.0967 38.1752L19.7869 37.9911C19.601 37.8685 19.4151 37.7458 19.2292 37.6231C19.1672 37.5618 19.0433 37.5005 18.9813 37.5005C18.9194 37.4391 18.7954 37.3778 18.7335 37.3164C18.6095 37.2551 18.5476 37.1938 18.4856 37.1324C18.4236 37.0711 18.3616 37.0711 18.2997 37.0098C18.2377 36.9484 18.1138 36.8871 18.0518 36.8871C17.9898 36.8258 17.9279 36.8258 17.8659 36.7644C17.8039 36.7031 17.68 36.7031 17.618 36.6417C17.5561 36.6417 17.4941 36.5804 17.4321 36.5804C17.3702 36.5191 17.2462 36.5191 17.1843 36.4577C17.1223 36.4577 17.0603 36.3964 17.0603 36.3964C16.9984 36.3351 16.8744 36.3351 16.8125 36.2737C16.7505 36.2737 16.7505 36.2124 16.6885 36.2124C16.5646 36.1511 16.4407 36.0897 16.2548 36.0897C16.1928 36.0897 16.1308 36.0284 16.0689 36.0284C16.0069 36.0284 15.9449 35.967 15.8829 35.967C15.759 35.967 15.697 35.967 15.6351 35.967C15.5731 35.967 15.5111 35.967 15.4492 35.9057C15.3872 35.9057 15.3252 35.9057 15.2633 35.8444C15.2013 35.8444 15.1393 35.8444 15.0774 35.8444C15.0154 35.8444 14.9534 35.8444 14.8915 35.8444C14.8295 35.8444 14.7675 35.8444 14.7056 35.8444C14.6436 35.8444 14.5816 35.8444 14.4577 35.8444C14.3957 35.8444 14.3338 35.8444 14.3338 35.8444C14.2718 35.8444 14.1479 35.8444 14.0239 35.8444C13.962 35.8444 13.962 35.8444 13.9 35.8444C13.7761 35.8444 13.5902 35.8444 13.4662 35.8444C13.1564 35.8444 12.7846 35.8444 12.4128 35.8444C12.041 35.8444 11.5452 35.8444 11.0495 35.8444L10.6157 35.1083L8.75669 31.9188C8.69472 31.7962 8.57079 31.6735 8.44685 31.6122L4.60487 29.2814V24.8038C4.60487 24.6198 4.5429 24.4971 4.48093 24.3131L2.18814 20.3876L4.48093 16.462C4.5429 16.3394 4.60487 16.1554 4.60487 15.9713V11.4938L8.57079 9.22433C8.69472 9.163 8.81866 9.04032 8.88062 8.91765L11.1734 4.99212H15.697C15.8829 4.99212 16.0069 4.93078 16.1928 4.86944L20.0967 2.72267L24.0627 4.99212C24.1866 5.05345 24.3725 5.11479 24.5584 5.11479H29.082L31.3748 9.04032C31.4368 9.163 31.5607 9.28567 31.6847 9.34701L35.6506 11.6165V16.094C35.6506 16.278 35.7125 16.4007 35.7745 16.5847L38.0673 20.5102L35.7125 24.3131C35.6506 24.4358 35.5886 24.6198 35.5886 24.8038V29.2814L31.6227 31.5508C31.4987 31.6122 31.4368 31.7348 31.3128 31.8575Z" fill="#FD4A19"/>
</g>
<defs>
<clipPath id="clip0_27_1485">
<rect width="40" height="57" fill="white" transform="translate(0 0.687012)"/>
</clipPath>
</defs>
</svg>
