<svg width="29" height="32" viewBox="0 0 29 32" fill="none" xmlns="http://www.w3.org/2000/svg">
<path d="M14.7477 32C10.6529 32 6.55887 32 2.46549 32C2.04631 31.995 1.62868 31.948 1.21882 31.8598C0.886263 31.7987 0.585401 31.6232 0.368162 31.3635C0.150923 31.1038 0.0309372 30.7762 0.0289136 30.4373C0.0289136 30.2666 0.0289136 30.0959 0.0289136 29.9252C0.0187781 25.7024 0.0471575 21.4837 0.00256131 17.2711C-0.0198356 16.5396 0.104841 15.8111 0.369166 15.1289C0.63349 14.4467 1.03206 13.8248 1.54113 13.3003C5.39262 9.12631 9.19748 4.91573 13.0186 0.719378C13.8882 -0.235724 15.1977 -0.243853 16.0592 0.719378L27.1819 13.0666C27.486 13.404 27.8042 13.7311 28.0758 14.0827C28.6571 14.8649 28.9629 15.8183 28.9455 16.7935C28.9455 21.2642 28.9455 25.7349 28.9455 30.2056C28.9455 31.2481 28.311 31.9045 27.2711 31.9492C26.7724 31.9695 26.2738 31.9858 25.7751 31.9858C22.1006 31.9858 18.4255 31.9858 14.7497 31.9858L14.7477 32ZM2.17966 28.0658C2.3094 27.9865 2.38237 27.9439 2.45535 27.8931C4.97706 26.1387 7.49945 24.3856 10.0225 22.6339C10.1125 22.5805 10.1856 22.5029 10.2336 22.4098C10.2817 22.3167 10.3026 22.212 10.2941 22.1076C10.286 18.867 10.286 15.6264 10.2941 12.3859V11.9591H18.8282V12.394C18.8282 15.6454 18.8282 18.8968 18.8282 22.1482C18.8199 22.2389 18.8369 22.33 18.8773 22.4115C18.9178 22.493 18.9801 22.5616 19.0573 22.6095C21.5425 24.2786 24.0237 25.9517 26.5008 27.6289C26.5798 27.6817 26.667 27.7224 26.7724 27.7813C26.7724 27.6858 26.7826 27.6309 26.7826 27.5781C26.7826 23.9636 26.7826 20.3484 26.7826 16.7326C26.7816 16.1353 26.5515 15.5612 26.14 15.1292C24.7521 13.5984 23.3676 12.0648 21.9864 10.5285C19.9945 8.31481 18.0045 6.10318 16.0166 3.89357C15.5342 3.35709 15.0497 2.82467 14.549 2.26786C14.3848 2.44466 14.245 2.59097 14.1091 2.74135C10.3806 6.83271 6.65617 10.9207 2.93577 15.0053C2.68711 15.2612 2.4914 15.5638 2.35989 15.8958C2.22839 16.2279 2.16369 16.5827 2.16953 16.9399C2.17966 20.5083 2.16953 24.0787 2.16953 27.6492L2.17966 28.0658ZM3.57836 29.7565H25.7062C25.6818 29.7139 25.6778 29.7017 25.6697 29.6956C22.9669 27.8666 20.2641 26.0377 17.5613 24.2088C17.4382 24.1374 17.2981 24.1009 17.1559 24.1031C15.4207 24.095 13.6855 24.095 11.9503 24.1031C11.7855 24.1107 11.6262 24.1642 11.4901 24.2576C10.0793 25.2289 8.67314 26.205 7.27174 27.1859L3.57836 29.7565ZM12.4571 14.1233V21.9044H16.6248V14.1233H12.4571Z" fill="white"/>
</svg>
