<svg width="106" height="32" viewBox="0 0 106 32" fill="none" xmlns="http://www.w3.org/2000/svg">
<path d="M15.0895 32C10.9947 32 6.90067 32 2.80728 32C2.38811 31.995 1.97048 31.948 1.56062 31.8598C1.22806 31.7987 0.927198 31.6232 0.709959 31.3635C0.49272 31.1038 0.372734 30.7762 0.37071 30.4373C0.37071 30.2666 0.37071 30.0959 0.37071 29.9252C0.360575 25.7024 0.388954 21.4837 0.344358 17.2711C0.321961 16.5396 0.446638 15.8111 0.710962 15.1289C0.975287 14.4467 1.37385 13.8248 1.88293 13.3003C5.73441 9.12631 9.53927 4.91573 13.3604 0.719378C14.23 -0.235724 15.5395 -0.243853 16.401 0.719378L27.5237 13.0666C27.8278 13.404 28.146 13.7311 28.4176 14.0827C28.9989 14.8649 29.3047 15.8183 29.2873 16.7935C29.2873 21.2642 29.2873 25.7349 29.2873 30.2056C29.2873 31.2481 28.6528 31.9045 27.6129 31.9492C27.1142 31.9695 26.6155 31.9858 26.1169 31.9858C22.4424 31.9858 18.7673 31.9858 15.0915 31.9858L15.0895 32ZM2.52146 28.0658C2.6512 27.9865 2.72417 27.9439 2.79715 27.8931C5.31886 26.1387 7.84124 24.3856 10.3643 22.6339C10.4542 22.5805 10.5274 22.5029 10.5754 22.4098C10.6235 22.3167 10.6444 22.212 10.6359 22.1076C10.6278 18.867 10.6278 15.6264 10.6359 12.3859V11.9591H19.17V12.394C19.17 15.6454 19.17 18.8968 19.17 22.1482C19.1617 22.2389 19.1787 22.33 19.2191 22.4115C19.2596 22.493 19.3219 22.5616 19.3991 22.6095C21.8843 24.2786 24.3655 25.9517 26.8426 27.6289C26.9216 27.6817 27.0088 27.7224 27.1142 27.7813C27.1142 27.6858 27.1244 27.6309 27.1244 27.5781C27.1244 23.9636 27.1244 20.3484 27.1244 16.7326C27.1234 16.1353 26.8933 15.5612 26.4818 15.1292C25.0939 13.5984 23.7094 12.0648 22.3282 10.5285C20.3363 8.31481 18.3463 6.10318 16.3584 3.89357C15.876 3.35709 15.3915 2.82467 14.8908 2.26786C14.7266 2.44466 14.5867 2.59097 14.4509 2.74135C10.7224 6.83271 6.99797 10.9207 3.27757 15.0053C3.02891 15.2612 2.83319 15.5638 2.70169 15.8958C2.57018 16.2279 2.50549 16.5827 2.51133 16.9399C2.52146 20.5083 2.51133 24.0787 2.51133 27.6492L2.52146 28.0658ZM3.92016 29.7565H26.048C26.0236 29.7139 26.0196 29.7017 26.0115 29.6956C23.3087 27.8666 20.6059 26.0377 17.9031 24.2088C17.78 24.1374 17.6399 24.1009 17.4977 24.1031C15.7625 24.095 14.0273 24.095 12.2921 24.1031C12.1273 24.1107 11.968 24.1642 11.8319 24.2576C10.4211 25.2289 9.01493 26.205 7.61353 27.1859L3.92016 29.7565ZM12.7988 14.1233V21.9044H16.9666V14.1233H12.7988Z" fill="white"/>
<path d="M66.834 13.7982H69.751V15.4239C69.9395 15.2024 70.0611 15.0439 70.199 14.9017C71.1051 13.973 72.2382 13.5604 73.5031 13.5117C76.6837 13.3897 79.0047 15.3223 79.5459 18.5087C79.7607 19.7886 79.7401 21.0972 79.4851 22.3697C79.6878 22.0893 79.9027 21.817 80.0932 21.5244C80.5554 20.7867 80.6892 19.9454 80.8554 19.1082C81.3298 16.6879 82.5724 14.8407 84.9806 14.0421C86.9023 13.4101 88.7266 13.788 90.3341 15.0073C92.422 16.5782 91.9822 18.8887 90.8267 20.2197C89.8983 21.2886 88.68 21.8454 87.3259 22.0974C86.6994 22.1905 86.0678 22.2448 85.4346 22.26C85.1427 22.2783 84.8508 22.26 84.5366 22.26C84.6767 22.7482 84.983 23.1717 85.4022 23.4569C86.6975 24.4141 88.6699 24.349 90.0645 23.2822C90.427 22.9911 90.7659 22.6717 91.0781 22.3271C91.2443 22.1543 91.4004 22.1238 91.5788 22.262C91.972 22.5851 92.3734 22.9022 92.7362 23.2578C93.0991 23.6134 93.0809 23.7394 92.8052 24.1458C92.3714 24.8227 91.8051 25.4044 91.1407 25.8557C90.4763 26.3069 89.7274 26.6184 88.9395 26.7713C86.7847 27.2062 84.7738 26.8729 83.0467 25.4464C82.4386 24.9485 81.9724 24.2942 81.4615 23.7333C80.7338 24.2617 79.9615 24.8713 79.1446 25.4078C77.6913 26.4024 75.9722 26.9337 74.2126 26.9319C73.4887 26.9118 72.7684 26.8213 72.0619 26.6616C71.2835 26.497 70.9226 26.2267 69.8321 25.2696V31.9756H66.834V13.7982ZM76.6614 20.173C76.5985 19.7483 76.5681 19.3154 76.4728 18.8989C76.1201 17.3829 75.0194 16.3953 73.5599 16.2571C72.8552 16.1696 72.1415 16.3201 71.5317 16.6849C70.9219 17.0496 70.4508 17.6077 70.1929 18.2709C69.8944 18.9442 69.7563 19.6779 69.7894 20.414C69.8224 21.15 70.0258 21.8683 70.3834 22.512C70.9693 23.5931 71.9179 24.1377 73.1606 24.1621C73.7476 24.1948 74.3317 24.0594 74.8447 23.7715C75.3577 23.4836 75.7783 23.0552 76.0573 22.5364C76.4513 21.8115 76.6563 20.9985 76.6532 20.173H76.6614ZM83.9731 19.8214C84.7807 19.9233 85.6 19.8779 86.3914 19.6873C87.1577 19.5044 87.8976 19.2545 88.4712 18.6713C89.2192 17.9173 89.0591 17.011 88.0962 16.5843C87.6683 16.377 87.1912 16.2935 86.7186 16.343C86.2459 16.3926 85.7964 16.5732 85.4204 16.8647C84.9394 17.1851 84.5513 17.6274 84.2957 18.1467C84.0401 18.6659 83.926 19.2437 83.965 19.8214H83.9731Z" fill="white"/>
<path d="M53.4785 13.7962H56.3915V15.4422C56.5719 15.2268 56.6854 15.0784 56.8151 14.9443C57.7212 13.9973 58.8605 13.5747 60.1375 13.5218C63.3302 13.3958 65.6614 15.3386 66.1925 18.5432C66.4783 20.2644 66.3729 21.9471 65.6289 23.5463C63.9464 27.1717 60.0301 27.4562 57.8895 26.3405C57.3888 26.0804 56.957 25.6882 56.4867 25.3529V31.9858H53.4785V13.7962ZM63.3221 20.1771C63.2584 19.6727 63.1677 19.172 63.0505 18.6774C62.645 17.2406 61.5119 16.3282 60.1091 16.2388C58.5929 16.1514 57.3604 16.9053 56.8009 18.3461C56.5236 19.0095 56.3995 19.7272 56.4382 20.4455C56.4768 21.1638 56.677 21.864 57.0239 22.4937C57.2748 22.9888 57.6568 23.405 58.1281 23.6968C58.5994 23.9886 59.1417 24.1446 59.6956 24.1479C60.9828 24.2027 61.9862 23.6967 62.6633 22.5872C63.1133 21.8597 63.2653 21.0407 63.3221 20.1771Z" fill="white"/>
<path d="M52.5584 26.5153C51.7172 26.5153 50.9023 26.5153 50.0874 26.5153C49.8847 26.5153 49.8847 26.3994 49.8847 26.247C49.9009 25.7471 49.913 25.2472 49.9252 24.7473C49.9252 24.6396 49.9252 24.5319 49.9252 24.3409C49.8421 24.4445 49.8056 24.4831 49.7772 24.5258C48.6866 26.2226 47.0832 26.9339 45.1271 26.9034C43.5741 26.8916 42.0785 26.3133 40.9198 25.2767C39.7611 24.24 39.0185 22.8158 38.8309 21.2703C38.5593 19.3195 38.8593 17.4743 40.0755 15.8832C41.4621 14.0542 43.3615 13.3105 45.6136 13.4141C46.9717 13.4771 48.188 13.9161 49.1509 14.9159C49.423 15.2329 49.6748 15.5668 49.9049 15.9157V13.8165H52.5584V26.5153ZM49.2664 20.0917C49.2482 17.578 47.9832 16.1514 45.6906 15.934C43.8885 15.7633 42.3337 16.694 41.7297 18.3441C41.5007 18.941 41.3919 19.5776 41.4096 20.2169C41.4274 20.8562 41.5713 21.4857 41.833 22.069C42.0829 22.6704 42.484 23.1965 42.9973 23.5961C43.5105 23.9956 44.1184 24.255 44.7615 24.3487C45.4045 24.4425 46.0609 24.3675 46.6664 24.1311C47.2719 23.8946 47.806 23.5048 48.2164 22.9997C48.8806 22.1752 49.2503 21.1514 49.2664 20.0917Z" fill="white"/>
<path d="M98.788 18.2567C98.788 17.0374 98.788 15.8994 98.788 14.7513C98.788 14.0563 99.0069 13.8409 99.7063 13.8389C99.9455 13.8389 100.183 13.8389 100.422 13.8389C100.993 13.8551 101.247 14.1071 101.249 14.6822C101.249 15.7389 101.249 16.7977 101.249 17.8544V18.2608H102.025C102.956 18.2608 103.884 18.2608 104.815 18.2608C105.392 18.2608 105.648 18.5209 105.656 19.094C105.656 19.3541 105.642 19.6183 105.656 19.8784C105.664 19.9941 105.647 20.1103 105.607 20.2189C105.566 20.3274 105.502 20.4258 105.419 20.5072C105.337 20.5886 105.238 20.651 105.129 20.6901C105.02 20.7293 104.903 20.7442 104.788 20.7339C103.746 20.7136 102.702 20.7339 101.658 20.7339H101.253V21.12C101.253 22.1665 101.253 23.2131 101.253 24.2596C101.253 24.8794 101.018 25.1213 100.398 25.1457C100.114 25.1578 99.8299 25.1558 99.5461 25.1457C99.0515 25.1314 98.7941 24.8733 98.792 24.3775C98.792 23.2964 98.792 22.2174 98.792 21.1261V20.7197H97.8089C96.9575 20.7197 96.1061 20.7197 95.2568 20.7197C94.6203 20.7197 94.377 20.4657 94.375 19.8255C94.375 19.5634 94.375 19.3033 94.375 19.0411C94.375 18.5168 94.6405 18.2567 95.1858 18.2527C96.2176 18.2527 97.2494 18.2527 98.2812 18.2527L98.788 18.2567Z" fill="white"/>
<path d="M86.4797 11.4044C85.8716 11.9429 85.2635 12.4712 84.6553 13.0037C84.1972 13.4101 84.1182 13.4101 83.6621 13.0037C83.3742 12.7496 83.0864 12.4916 82.8046 12.2294C82.5228 11.9673 82.5026 11.823 82.7924 11.5568C83.5749 10.8333 84.3675 10.1221 85.1601 9.40881C85.4115 9.18121 85.6608 8.94751 85.9263 8.73617C86.3013 8.43338 86.6743 8.42119 87.0352 8.73617C88.0892 9.66689 89.1339 10.6078 90.1691 11.5588C90.4528 11.8169 90.4326 11.9795 90.1488 12.2314C89.8265 12.518 89.5082 12.8065 89.1839 13.0931C88.8595 13.3796 88.7298 13.3857 88.3974 13.0931C87.8075 12.5789 87.2277 12.0546 86.6419 11.5365C86.6014 11.4999 86.5487 11.4592 86.4797 11.4044Z" fill="white"/>
</svg>
