<svg width="60" height="52" viewBox="0 0 60 52" fill="none" xmlns="http://www.w3.org/2000/svg">
<rect width="60" height="52" rx="6" fill="#0065DD"/>
<path d="M35.6583 19.9917L37.3384 21.6717L31.645 27.365L27.8067 23.5267C27.3517 23.0717 26.6167 23.0717 26.1617 23.5267L19.1617 30.5383C18.7067 30.9933 18.7067 31.7283 19.1617 32.1833C19.6167 32.6383 20.3517 32.6383 20.8067 32.1833L26.9784 26L30.8167 29.8383C31.2717 30.2933 32.0067 30.2933 32.4617 29.8383L38.9834 23.3283L40.6634 25.0083C41.025 25.37 41.655 25.1133 41.655 24.6V19.5833C41.6667 19.2567 41.41 19 41.0834 19H36.0783C35.5533 19 35.2967 19.63 35.6583 19.9917Z" fill="white"/>
</svg>
