<svg width="60" height="52" viewBox="0 0 60 52" fill="none" xmlns="http://www.w3.org/2000/svg">
<rect width="60" height="52" rx="6" fill="#0065DD"/>
<path fill-rule="evenodd" clip-rule="evenodd" d="M24.1667 34.1667C23.5238 34.1667 23 33.6428 23 33C23 32.3572 23.5238 31.8333 24.1667 31.8333H37V34.1667H24.1667ZM24.1667 17.8333H37V29.5H24.1667C23.7548 29.5 23.3663 29.584 23 29.7147V19C23 18.3572 23.5238 17.8333 24.1667 17.8333ZM38.1667 15.5H24.1667C22.237 15.5 20.6667 17.0703 20.6667 19V33C20.6667 34.9297 22.237 36.5 24.1667 36.5H37H38.1667C38.8107 36.5 39.3333 35.9773 39.3333 35.3333V34.1667V31.8333V16.6667C39.3333 16.0227 38.8107 15.5 38.1667 15.5Z" fill="white"/>
<mask id="mask0_1451_31928" style="mask-type:alpha" maskUnits="userSpaceOnUse" x="20" y="15" width="20" height="22">
<path fill-rule="evenodd" clip-rule="evenodd" d="M24.1667 34.1667C23.5238 34.1667 23 33.6428 23 33C23 32.3572 23.5238 31.8333 24.1667 31.8333H37V34.1667H24.1667ZM24.1667 17.8333H37V29.5H24.1667C23.7548 29.5 23.3663 29.584 23 29.7147V19C23 18.3572 23.5238 17.8333 24.1667 17.8333ZM38.1667 15.5H24.1667C22.237 15.5 20.6667 17.0703 20.6667 19V33C20.6667 34.9297 22.237 36.5 24.1667 36.5H37H38.1667C38.8107 36.5 39.3333 35.9773 39.3333 35.3333V34.1667V31.8333V16.6667C39.3333 16.0227 38.8107 15.5 38.1667 15.5Z" fill="white"/>
</mask>
<g mask="url(#mask0_1451_31928)">
<rect x="16" y="12" width="28" height="28" fill="white"/>
</g>
</svg>
