<svg width="60" height="52" viewBox="0 0 60 52" fill="none" xmlns="http://www.w3.org/2000/svg">
<rect width="60" height="52" rx="6" fill="#0065DD"/>
<path fill-rule="evenodd" clip-rule="evenodd" d="M40.4965 24.8032H40.5C41.1428 24.8032 41.6655 25.3235 41.6666 25.9663C41.676 29.0825 40.4708 32.0167 38.2728 34.2263C36.076 36.436 33.15 37.6575 30.0338 37.6668H30C26.8955 37.6668 23.9753 36.4628 21.7738 34.273C19.5641 32.0762 18.3426 29.1502 18.3333 26.034C18.324 22.9167 19.5291 19.9837 21.7271 17.774C23.924 15.5643 26.85 14.3428 29.9661 14.3335C30.8936 14.3475 31.8386 14.4408 32.744 14.6578C33.3693 14.8095 33.7555 15.4395 33.6038 16.066C33.4533 16.6913 32.8198 17.0763 32.1968 16.927C31.4723 16.752 30.7035 16.6785 29.9731 16.6668C27.48 16.6738 25.1385 17.6515 23.3815 19.419C21.6233 21.1865 20.6596 23.5338 20.6666 26.027C20.6736 28.5202 21.6513 30.8605 23.4188 32.6187C25.1805 34.3698 27.5161 35.3335 30 35.3335H30.0268C32.52 35.3265 34.8615 34.3488 36.6185 32.5813C38.3766 30.8127 39.3403 28.4665 39.3333 25.9733C39.3321 25.3293 39.8525 24.8043 40.4965 24.8032ZM25.6751 25.1752C26.1313 24.719 26.8686 24.719 27.3248 25.1752L29.9428 27.7932L37.2893 19.3979C37.714 18.916 38.4501 18.8647 38.9355 19.2894C39.4196 19.7129 39.4686 20.4502 39.044 20.9355L30.8773 30.2689C30.665 30.5115 30.3616 30.655 30.0385 30.6667H30C29.6908 30.6667 29.3945 30.5442 29.1751 30.3249L25.6751 26.8249C25.219 26.3687 25.219 25.6314 25.6751 25.1752Z" fill="white"/>
<mask id="mask0_1451_31920" style="mask-type:alpha" maskUnits="userSpaceOnUse" x="18" y="14" width="24" height="24">
<path fill-rule="evenodd" clip-rule="evenodd" d="M40.4965 24.8032H40.5C41.1428 24.8032 41.6655 25.3235 41.6666 25.9663C41.676 29.0825 40.4708 32.0167 38.2728 34.2263C36.076 36.436 33.15 37.6575 30.0338 37.6668H30C26.8955 37.6668 23.9753 36.4628 21.7738 34.273C19.5641 32.0762 18.3426 29.1502 18.3333 26.034C18.324 22.9167 19.5291 19.9837 21.7271 17.774C23.924 15.5643 26.85 14.3428 29.9661 14.3335C30.8936 14.3475 31.8386 14.4408 32.744 14.6578C33.3693 14.8095 33.7555 15.4395 33.6038 16.066C33.4533 16.6913 32.8198 17.0763 32.1968 16.927C31.4723 16.752 30.7035 16.6785 29.9731 16.6668C27.48 16.6738 25.1385 17.6515 23.3815 19.419C21.6233 21.1865 20.6596 23.5338 20.6666 26.027C20.6736 28.5202 21.6513 30.8605 23.4188 32.6187C25.1805 34.3698 27.5161 35.3335 30 35.3335H30.0268C32.52 35.3265 34.8615 34.3488 36.6185 32.5813C38.3766 30.8127 39.3403 28.4665 39.3333 25.9733C39.3321 25.3293 39.8525 24.8043 40.4965 24.8032ZM25.6751 25.1752C26.1313 24.719 26.8686 24.719 27.3248 25.1752L29.9428 27.7932L37.2893 19.3979C37.714 18.916 38.4501 18.8647 38.9355 19.2894C39.4196 19.7129 39.4686 20.4502 39.044 20.9355L30.8773 30.2689C30.665 30.5115 30.3616 30.655 30.0385 30.6667H30C29.6908 30.6667 29.3945 30.5442 29.1751 30.3249L25.6751 26.8249C25.219 26.3687 25.219 25.6314 25.6751 25.1752Z" fill="white"/>
</mask>
<g mask="url(#mask0_1451_31920)">
<rect x="16" y="12" width="28" height="28" fill="white"/>
</g>
</svg>
