<svg width="60" height="52" viewBox="0 0 60 52" fill="none" xmlns="http://www.w3.org/2000/svg">
<rect width="60" height="52" rx="6" fill="#0065DD"/>
<path fill-rule="evenodd" clip-rule="evenodd" d="M27.6667 24.8333C30.2403 24.8333 32.3333 22.7403 32.3333 20.1667C32.3333 17.593 30.2403 15.5 27.6667 15.5C25.093 15.5 23 17.593 23 20.1667C23 22.7403 25.093 24.8333 27.6667 24.8333ZM41.2657 16.9532C40.7792 16.5309 40.043 16.581 39.6195 17.0675L37.4425 19.57L36.7029 18.7429C36.2747 18.2622 35.5373 18.2214 35.0555 18.6519C34.576 19.0812 34.534 19.8197 34.9645 20.2992L36.585 22.111C36.8067 22.3584 37.1229 22.4995 37.4542 22.4995H37.4624C37.7972 22.4972 38.1157 22.3514 38.335 22.0994L41.3812 18.5994C41.8035 18.1129 41.7522 17.3755 41.2657 16.9532ZM35.8333 35.3333C35.8333 35.9773 35.3118 36.5 34.6667 36.5H20.6667C20.0215 36.5 19.5 35.9773 19.5 35.3333C19.5 30.83 23.1645 27.1667 27.6667 27.1667C32.1688 27.1667 35.8333 30.83 35.8333 35.3333Z" fill="white"/>
<mask id="mask0_1451_31896" style="mask-type:alpha" maskUnits="userSpaceOnUse" x="19" y="15" width="23" height="22">
<path fill-rule="evenodd" clip-rule="evenodd" d="M27.6667 24.8333C30.2403 24.8333 32.3333 22.7403 32.3333 20.1667C32.3333 17.593 30.2403 15.5 27.6667 15.5C25.093 15.5 23 17.593 23 20.1667C23 22.7403 25.093 24.8333 27.6667 24.8333ZM41.2657 16.9532C40.7792 16.5309 40.043 16.581 39.6195 17.0675L37.4425 19.57L36.7029 18.7429C36.2747 18.2622 35.5373 18.2214 35.0555 18.6519C34.576 19.0812 34.534 19.8197 34.9645 20.2992L36.585 22.111C36.8067 22.3584 37.1229 22.4995 37.4542 22.4995H37.4624C37.7972 22.4972 38.1157 22.3514 38.335 22.0994L41.3812 18.5994C41.8035 18.1129 41.7522 17.3755 41.2657 16.9532ZM35.8333 35.3333C35.8333 35.9773 35.3118 36.5 34.6667 36.5H20.6667C20.0215 36.5 19.5 35.9773 19.5 35.3333C19.5 30.83 23.1645 27.1667 27.6667 27.1667C32.1688 27.1667 35.8333 30.83 35.8333 35.3333Z" fill="white"/>
</mask>
<g mask="url(#mask0_1451_31896)">
<rect x="16" y="12" width="28" height="28" fill="white"/>
</g>
</svg>
