<svg width="60" height="52" viewBox="0 0 60 52" fill="none" xmlns="http://www.w3.org/2000/svg">
<rect width="60" height="52" rx="6" fill="#0065DD"/>
<path d="M31.1666 14.3917V17.9267C35.1216 18.4984 38.1666 21.8817 38.1666 26.0001C38.1666 27.0501 37.9566 28.0417 37.6066 28.9634L40.6399 30.7484C41.2933 29.3017 41.6666 27.6917 41.6666 26.0001C41.6666 19.9567 37.0583 14.9751 31.1666 14.3917ZM29.9999 34.1667C25.4849 34.1667 21.8333 30.5151 21.8333 26.0001C21.8333 21.8817 24.8783 18.4984 28.8333 17.9267V14.3917C22.9299 14.9751 18.3333 19.9451 18.3333 26.0001C18.3333 32.4401 23.5483 37.6667 29.9883 37.6667C33.8499 37.6667 37.2683 35.7884 39.3916 32.8951L36.3583 31.1101C34.8649 32.9767 32.5783 34.1667 29.9999 34.1667Z" fill="white"/>
</svg>
