<svg width="60" height="52" viewBox="0 0 60 52" fill="none" xmlns="http://www.w3.org/2000/svg">
<rect width="60" height="52" rx="6" fill="#FD4A19"/>
<path fill-rule="evenodd" clip-rule="evenodd" d="M35.8491 32.1765L34.3178 35.7492C34.1202 36.2098 33.6657 36.507 33.1645 36.5035C32.6633 36.4999 32.2131 36.1962 32.022 35.7328L27.7619 25.3884C27.5704 24.9234 27.6772 24.3889 28.0328 24.0334C28.3883 23.6778 28.9228 23.571 29.3877 23.7625L39.7322 28.0226C40.1956 28.2137 40.4993 28.6639 40.5029 29.1651C40.5064 29.6663 40.2092 30.1208 39.7486 30.3184L36.1759 31.8497C36.029 31.9125 35.9119 32.0296 35.8491 32.1765V32.1765Z" stroke="white" stroke-width="2" stroke-linecap="round" stroke-linejoin="round"/>
<path d="M23.4217 29.8889L22.1133 31.1973" stroke="white" stroke-width="2" stroke-linecap="round" stroke-linejoin="round"/>
<path d="M28.6558 15.4956V17.3455" stroke="white" stroke-width="2" stroke-linecap="round" stroke-linejoin="round"/>
<path d="M22.1133 18.1123L23.4217 19.4207" stroke="white" stroke-width="2" stroke-linecap="round" stroke-linejoin="round"/>
<path d="M19.4961 24.6554H21.346" stroke="white" stroke-width="2" stroke-linecap="round" stroke-linejoin="round"/>
<path d="M35.197 18.1123L33.8887 19.4207" stroke="white" stroke-width="2" stroke-linecap="round" stroke-linejoin="round"/>
</svg>
