<svg width="60" height="52" viewBox="0 0 60 52" fill="none" xmlns="http://www.w3.org/2000/svg">
<rect width="60" height="52" rx="6" fill="#0065DD"/>
<path d="M29.7666 24.7167C27.1183 24.0283 26.2666 23.3167 26.2666 22.2083C26.2666 20.9367 27.4449 20.05 29.4166 20.05C31.0733 20.05 31.9016 20.68 32.2049 21.6833C32.3449 22.15 32.7299 22.5 33.2199 22.5H33.5699C34.3399 22.5 34.8883 21.7417 34.6199 21.0183C34.1299 19.6417 32.9866 18.4983 31.1666 18.055V17.25C31.1666 16.2817 30.3849 15.5 29.4166 15.5C28.4483 15.5 27.6666 16.2817 27.6666 17.25V18.02C25.4033 18.51 23.5833 19.98 23.5833 22.2317C23.5833 24.9267 25.8116 26.2683 29.0666 27.05C31.9833 27.75 32.5666 28.7767 32.5666 29.8617C32.5666 30.6667 31.9949 31.95 29.4166 31.95C27.4916 31.95 26.4999 31.2617 26.1149 30.2817C25.9399 29.8267 25.5433 29.5 25.0649 29.5H24.7383C23.9566 29.5 23.4083 30.2933 23.6999 31.0167C24.3649 32.6383 25.9166 33.595 27.6666 33.9683V34.75C27.6666 35.7183 28.4483 36.5 29.4166 36.5C30.3849 36.5 31.1666 35.7183 31.1666 34.75V33.9917C33.4416 33.56 35.2499 32.2417 35.2499 29.85C35.2499 26.5367 32.4149 25.405 29.7666 24.7167Z" fill="white"/>
</svg>
