<svg width="60" height="52" viewBox="0 0 60 52" fill="none" xmlns="http://www.w3.org/2000/svg">
<rect width="60" height="52" rx="6" fill="#FD4A19"/>
<path fill-rule="evenodd" clip-rule="evenodd" d="M26.2974 33.7676H23.4017C22.7554 33.7676 22.2315 33.2438 22.2315 32.5974V29.7018C22.2315 29.3914 22.1079 29.0939 21.8885 28.8746L19.841 26.8271C19.3837 26.3698 19.3837 25.6289 19.841 25.1728L21.9095 23.1043C22.116 22.8978 22.2315 22.6189 22.2315 22.3273V19.4024C22.2315 18.7561 22.7554 18.2323 23.4017 18.2323H26.2974C26.6077 18.2323 26.9052 18.1086 27.1245 17.8893L29.172 15.8418C29.6294 15.3844 30.3702 15.3844 30.8264 15.8418L32.8739 17.8893C33.0932 18.1086 33.3907 18.2323 33.701 18.2323H36.5967C37.243 18.2323 37.7669 18.7561 37.7669 19.4024V22.2981C37.7669 22.6084 37.8905 22.9059 38.1099 23.1253L40.1574 25.1728C40.6147 25.6301 40.6147 26.3709 40.1574 26.8271L38.1099 28.8746C37.8905 29.0939 37.7669 29.3914 37.7669 29.7018V32.5974C37.7669 33.2438 37.243 33.7676 36.5967 33.7676H33.701C33.3907 33.7676 33.0932 33.8913 32.8739 34.1106L30.8264 36.1581C30.369 36.6154 29.6282 36.6154 29.172 36.1581L27.1245 34.1106C26.9052 33.8901 26.6077 33.7676 26.2974 33.7676Z" stroke="white" stroke-width="2" stroke-linecap="round" stroke-linejoin="round"/>
<path fill-rule="evenodd" clip-rule="evenodd" d="M29.9993 21.9166C27.7442 21.9166 25.916 23.7448 25.916 26C25.916 28.2551 27.7442 30.0833 29.9993 30.0833C32.2545 30.0833 34.0827 28.2551 34.0827 26C34.0827 23.7448 32.2545 21.9166 29.9993 21.9166Z" stroke="white" stroke-width="2" stroke-linecap="round" stroke-linejoin="round"/>
</svg>
