<svg width="60" height="52" viewBox="0 0 60 52" fill="none" xmlns="http://www.w3.org/2000/svg">
<rect width="60" height="52" rx="6" fill="#FD4A19"/>
<path d="M35.6582 19.9917L37.3382 21.6717L31.6449 27.365L27.8066 23.5267C27.3516 23.0717 26.6166 23.0717 26.1616 23.5267L19.1616 30.5383C18.7066 30.9933 18.7066 31.7283 19.1616 32.1833C19.6166 32.6383 20.3516 32.6383 20.8066 32.1833L26.9782 26L30.8166 29.8383C31.2716 30.2933 32.0066 30.2933 32.4616 29.8383L38.9832 23.3283L40.6632 25.0083C41.0249 25.37 41.6549 25.1133 41.6549 24.6V19.5833C41.6666 19.2567 41.4099 19 41.0832 19H36.0782C35.5532 19 35.2966 19.63 35.6582 19.9917V19.9917Z" fill="white"/>
</svg>
