<svg width="60" height="52" viewBox="0 0 60 52" fill="none" xmlns="http://www.w3.org/2000/svg">
<rect width="60" height="52" rx="6" fill="#FD4A19"/>
<path d="M34.0841 28.3333H33.1624L32.8357 28.0183C34.2357 26.385 34.9591 24.1567 34.5624 21.7883C34.0141 18.545 31.3074 15.955 28.0407 15.5583C23.1057 14.9517 18.9524 19.105 19.5591 24.04C19.9557 27.3067 22.5457 30.0133 25.7891 30.5617C28.1574 30.9583 30.3857 30.235 32.0191 28.835L32.3341 29.1617V30.0833L37.2924 35.0417C37.7707 35.52 38.5524 35.52 39.0307 35.0417C39.5091 34.5633 39.5091 33.7817 39.0307 33.3033L34.0841 28.3333ZM27.0841 28.3333C24.1791 28.3333 21.8341 25.9883 21.8341 23.0833C21.8341 20.1783 24.1791 17.8333 27.0841 17.8333C29.9891 17.8333 32.3341 20.1783 32.3341 23.0833C32.3341 25.9883 29.9891 28.3333 27.0841 28.3333Z" fill="white"/>
</svg>
