<svg width="60" height="52" viewBox="0 0 60 52" fill="none" xmlns="http://www.w3.org/2000/svg">
<rect width="60" height="52" rx="6" fill="#0065DD"/>
<path d="M22.9999 27.1667C20.4333 27.1667 18.3333 29.2667 18.3333 31.8333C18.3333 34.4 20.4333 36.5 22.9999 36.5C25.5666 36.5 27.6666 34.4 27.6666 31.8333C27.6666 29.2667 25.5666 27.1667 22.9999 27.1667ZM29.9999 15.5C27.4333 15.5 25.3333 17.6 25.3333 20.1667C25.3333 22.7333 27.4333 24.8333 29.9999 24.8333C32.5666 24.8333 34.6666 22.7333 34.6666 20.1667C34.6666 17.6 32.5666 15.5 29.9999 15.5ZM36.9999 27.1667C34.4333 27.1667 32.3333 29.2667 32.3333 31.8333C32.3333 34.4 34.4333 36.5 36.9999 36.5C39.5666 36.5 41.6666 34.4 41.6666 31.8333C41.6666 29.2667 39.5666 27.1667 36.9999 27.1667Z" fill="white"/>
</svg>
