<svg width="60" height="52" viewBox="0 0 60 52" fill="none" xmlns="http://www.w3.org/2000/svg">
<rect width="60" height="52" rx="6" fill="#FD4A19"/>
<path d="M38.9257 22.5467L33.279 22.0567L31.074 16.865C30.6774 15.92 29.324 15.92 28.9274 16.865L26.7224 22.0683L21.0874 22.5467C20.0607 22.6283 19.6407 23.9117 20.4224 24.5883L24.704 28.2983L23.4207 33.805C23.1874 34.8083 24.2724 35.6017 25.159 35.065L30.0007 32.1483L34.8424 35.0767C35.729 35.6133 36.814 34.82 36.5807 33.8167L35.2974 28.2983L39.579 24.5883C40.3607 23.9117 39.9524 22.6283 38.9257 22.5467V22.5467ZM30.0007 29.9667V19.1167L31.9957 23.83L37.1057 24.2733L33.2324 27.6333L34.399 32.6267L30.0007 29.9667Z" fill="white"/>
</svg>
