<svg width="36" height="36" viewBox="0 0 36 36" fill="none" xmlns="http://www.w3.org/2000/svg">
<path d="M25.1279 29.2547H13.498" stroke="#0065DD" stroke-width="1.5" stroke-linecap="round" stroke-linejoin="round"/>
<path d="M13.1767 23.4648L11.9577 27.1219" stroke="#0065DD" stroke-width="1.5" stroke-linecap="round" stroke-linejoin="round"/>
<circle cx="11.2465" cy="29.2548" r="2.25094" stroke="#0065DD" stroke-width="1.5" stroke-linecap="round" stroke-linejoin="round"/>
<path d="M22.8696 23.4478L26.0033 31.5057" stroke="#0065DD" stroke-width="1.5" stroke-linecap="round" stroke-linejoin="round"/>
<path fill-rule="evenodd" clip-rule="evenodd" d="M7.49525 11.9976H28.504C29.3328 11.9976 30.0046 12.6694 30.0046 13.4982V13.4982C30.0046 18.4708 25.9735 22.5019 21.0009 22.5019H14.9984C10.0257 22.5019 5.99463 18.4708 5.99463 13.4982V13.4982C5.99463 12.6694 6.66648 11.9976 7.49525 11.9976Z" stroke="#0065DD" stroke-width="1.5" stroke-linecap="round" stroke-linejoin="round"/>
<path d="M12.3729 7.49553C11.8727 6.82858 11.8727 5.91153 12.3729 5.24459C12.8731 4.57765 12.8731 3.6606 12.3729 2.99365" stroke="#0065DD" stroke-width="1.5" stroke-linecap="round" stroke-linejoin="round"/>
<path d="M23.6268 7.49553C23.1266 6.82858 23.1266 5.91153 23.6268 5.24459C24.127 4.57765 24.127 3.6606 23.6268 2.99365" stroke="#0065DD" stroke-width="1.5" stroke-linecap="round" stroke-linejoin="round"/>
<path d="M17.9993 7.49553C17.4991 6.82858 17.4991 5.91153 17.9993 5.24459C18.4995 4.57765 18.4995 3.6606 17.9993 2.99365" stroke="#0065DD" stroke-width="1.5" stroke-linecap="round" stroke-linejoin="round"/>
</svg>
