<svg width="37" height="38" viewBox="0 0 37 38" fill="none" xmlns="http://www.w3.org/2000/svg">
<path fill-rule="evenodd" clip-rule="evenodd" d="M27.692 28.706L25.2857 34.3202C24.9751 35.044 24.2609 35.5111 23.4733 35.5056C22.6857 35.4999 21.9782 35.0227 21.678 34.2945L14.9835 18.0389C14.6825 17.3083 14.8504 16.4684 15.4092 15.9097C15.9679 15.3509 16.8078 15.183 17.5384 15.484L33.794 22.1785C34.5222 22.4787 34.9994 23.1862 35.0051 23.9738C35.0106 24.7614 34.5435 25.4756 33.8197 25.7862L28.2055 28.1925C27.9747 28.2912 27.7907 28.4751 27.692 28.706V28.706Z" stroke="#4BB7F1" stroke-width="3" stroke-linecap="round" stroke-linejoin="round"/>
<path d="M8.15954 25.1112L6.10352 27.1672" stroke="#4BB7F1" stroke-width="3" stroke-linecap="round" stroke-linejoin="round"/>
<path d="M16.3858 2.49316V5.40021" stroke="#4BB7F1" stroke-width="3" stroke-linecap="round" stroke-linejoin="round"/>
<path d="M6.10352 6.60522L8.15954 8.66125" stroke="#4BB7F1" stroke-width="3" stroke-linecap="round" stroke-linejoin="round"/>
<path d="M1.99219 16.8871H4.89923" stroke="#4BB7F1" stroke-width="3" stroke-linecap="round" stroke-linejoin="round"/>
<path d="M26.6654 6.60522L24.6094 8.66125" stroke="#4BB7F1" stroke-width="3" stroke-linecap="round" stroke-linejoin="round"/>
</svg>
