<svg width="36" height="36" viewBox="0 0 36 36" fill="none" xmlns="http://www.w3.org/2000/svg">
<path d="M4.5 24.9271C6.219 24.1636 8.181 24.1636 9.9 24.9271C11.619 25.6906 13.581 25.6906 15.3 24.9271C17.019 24.1636 18.981 24.1636 20.7 24.9271C22.419 25.6906 24.381 25.6906 26.1 24.9271C27.819 24.1636 29.781 24.1636 31.5 24.9271" stroke="#0065DD" stroke-width="1.5" stroke-linecap="round" stroke-linejoin="round"/>
<path d="M12 12H24" stroke="#0065DD" stroke-width="1.5" stroke-linecap="round" stroke-linejoin="round"/>
<path d="M12 18H24" stroke="#0065DD" stroke-width="1.5" stroke-linecap="round" stroke-linejoin="round"/>
<path d="M24 21V6.75C24 5.508 25.008 4.5 26.25 4.5V4.5C27.492 4.5 28.5 5.508 28.5 6.75" stroke="#0065DD" stroke-width="1.5" stroke-linecap="round" stroke-linejoin="round"/>
<path d="M12 21V6.75C12 5.508 13.008 4.5 14.25 4.5V4.5C15.492 4.5 16.5 5.508 16.5 6.75" stroke="#0065DD" stroke-width="1.5" stroke-linecap="round" stroke-linejoin="round"/>
<path d="M4.5 30.9271C6.219 30.1636 8.181 30.1636 9.9 30.9271C11.619 31.6906 13.581 31.6906 15.3 30.9271C17.019 30.1636 18.981 30.1636 20.7 30.9271C22.419 31.6906 24.381 31.6906 26.1 30.9271C27.819 30.1636 29.781 30.1636 31.5 30.9271" stroke="#0065DD" stroke-width="1.5" stroke-linecap="round" stroke-linejoin="round"/>
</svg>
