<svg width="36" height="36" viewBox="0 0 36 36" fill="none" xmlns="http://www.w3.org/2000/svg">
<path d="M13.5 30V22.5C13.5 21.6716 14.1716 21 15 21H18" stroke="#0065DD" stroke-width="1.5" stroke-linecap="round" stroke-linejoin="round"/>
<path d="M27.75 24.675C27.7086 24.675 27.675 24.7086 27.675 24.75C27.675 24.7914 27.7086 24.825 27.75 24.825C27.7914 24.825 27.825 24.7914 27.825 24.75C27.825 24.7086 27.7914 24.675 27.75 24.675V24.675" stroke="#0065DD" stroke-width="1.5" stroke-linecap="round" stroke-linejoin="round"/>
<path d="M22.7964 26.4224L19.9383 29.2863C19.6576 29.5675 19.5 29.9486 19.5 30.3458V31.4999C19.5 32.3283 20.1716 32.9999 21 32.9999H22.1567C22.5551 32.9999 22.9371 32.8414 23.2185 32.5594L26.0721 29.7" stroke="#0065DD" stroke-width="1.5" stroke-linecap="round" stroke-linejoin="round"/>
<path d="M4.5 15.8704L16.0476 5.97225C17.1711 5.00925 18.8289 5.00925 19.9524 5.97225L31.5 15.8704" stroke="#0065DD" stroke-width="1.5" stroke-linecap="round" stroke-linejoin="round"/>
<path d="M15 30H4.5" stroke="#0065DD" stroke-width="1.5" stroke-linecap="round" stroke-linejoin="round"/>
<path d="M23.4351 8.95773V5.625C23.4351 5.00368 23.9387 4.5 24.5601 4.5H28.4464C29.0677 4.5 29.5714 5.00368 29.5714 5.625V14.2176" stroke="#0065DD" stroke-width="1.5" stroke-linecap="round" stroke-linejoin="round"/>
<path d="M6.42822 14.2173V29.9997" stroke="#0065DD" stroke-width="1.5" stroke-linecap="round" stroke-linejoin="round"/>
<path d="M22.7977 26.4239C22.6073 25.8861 22.5067 25.3206 22.5 24.7502C22.5 22.6267 23.7791 20.7124 25.7409 19.8998C27.7027 19.0872 29.9608 19.5364 31.4623 21.0378C32.9638 22.5393 33.413 24.7975 32.6004 26.7592C31.7878 28.721 29.8734 30.0002 27.75 30.0002C27.1784 29.9935 26.6119 29.8925 26.0732 29.7014" stroke="#0065DD" stroke-width="1.5" stroke-linecap="round" stroke-linejoin="round"/>
</svg>
