<svg width="60" height="52" viewBox="0 0 60 52" fill="none" xmlns="http://www.w3.org/2000/svg">
<rect width="60" height="52" rx="6" fill="#0065DD"/>
<path fill-rule="evenodd" clip-rule="evenodd" d="M33.4999 24.8334H31.1666V22.5C31.1666 21.8584 30.6416 21.3334 29.9999 21.3334C29.3583 21.3334 28.8333 21.8584 28.8333 22.5V24.8334H26.4999C25.8583 24.8334 25.3333 25.3584 25.3333 26C25.3333 26.6417 25.8583 27.1667 26.4999 27.1667H28.8333V29.5C28.8333 30.1417 29.3583 30.6667 29.9999 30.6667C30.6416 30.6667 31.1666 30.1417 31.1666 29.5V27.1667H33.4999C34.1416 27.1667 34.6666 26.6417 34.6666 26C34.6666 25.3584 34.1416 24.8334 33.4999 24.8334ZM29.9999 35.3334C24.8538 35.3334 20.6666 31.1462 20.6666 26C20.6666 20.8539 24.8538 16.6667 29.9999 16.6667C35.1461 16.6667 39.3333 20.8539 39.3333 26C39.3333 31.1462 35.1461 35.3334 29.9999 35.3334ZM29.9999 14.3334C23.5669 14.3334 18.3333 19.567 18.3333 26C18.3333 32.433 23.5669 37.6667 29.9999 37.6667C36.4329 37.6667 41.6666 32.433 41.6666 26C41.6666 19.567 36.4329 14.3334 29.9999 14.3334Z" fill="white"/>
<mask id="mask0_1451_31872" style="mask-type:alpha" maskUnits="userSpaceOnUse" x="18" y="14" width="24" height="24">
<path fill-rule="evenodd" clip-rule="evenodd" d="M33.4999 24.8334H31.1666V22.5C31.1666 21.8584 30.6416 21.3334 29.9999 21.3334C29.3583 21.3334 28.8333 21.8584 28.8333 22.5V24.8334H26.4999C25.8583 24.8334 25.3333 25.3584 25.3333 26C25.3333 26.6417 25.8583 27.1667 26.4999 27.1667H28.8333V29.5C28.8333 30.1417 29.3583 30.6667 29.9999 30.6667C30.6416 30.6667 31.1666 30.1417 31.1666 29.5V27.1667H33.4999C34.1416 27.1667 34.6666 26.6417 34.6666 26C34.6666 25.3584 34.1416 24.8334 33.4999 24.8334ZM29.9999 35.3334C24.8538 35.3334 20.6666 31.1462 20.6666 26C20.6666 20.8539 24.8538 16.6667 29.9999 16.6667C35.1461 16.6667 39.3333 20.8539 39.3333 26C39.3333 31.1462 35.1461 35.3334 29.9999 35.3334ZM29.9999 14.3334C23.5669 14.3334 18.3333 19.567 18.3333 26C18.3333 32.433 23.5669 37.6667 29.9999 37.6667C36.4329 37.6667 41.6666 32.433 41.6666 26C41.6666 19.567 36.4329 14.3334 29.9999 14.3334Z" fill="white"/>
</mask>
<g mask="url(#mask0_1451_31872)">
<rect x="16" y="12" width="28" height="28" fill="white"/>
</g>
</svg>
