<svg width="33" height="32" viewBox="0 0 33 32" fill="none" xmlns="http://www.w3.org/2000/svg">
<path fill-rule="evenodd" clip-rule="evenodd" d="M27.1666 16.0894H5.83329C4.35996 16.0894 3.16663 17.2827 3.16663 18.756V22.6667C3.16663 23.4027 3.76396 24 4.49996 24H28.5C29.236 24 29.8333 23.4027 29.8333 22.6667V18.756C29.8333 17.2827 28.64 16.0894 27.1666 16.0894Z" stroke="#0065DD" stroke-width="1.5" stroke-linecap="round" stroke-linejoin="round"/>
<path d="M5.16663 16.1733V16.0893V16.0893C5.16663 13.8307 6.99729 12 9.25596 12H12.3666C14.2813 12 15.8333 13.552 15.8333 15.4667V16.0893" stroke="#0065DD" stroke-width="1.5" stroke-linecap="round" stroke-linejoin="round"/>
<path d="M15.8333 16.0893V16.0893C15.8333 13.8307 17.6639 12 19.9226 12H23.7453C26.0039 12 27.8346 13.8307 27.8346 16.0893V16.0893V16.1733" stroke="#0065DD" stroke-width="1.5" stroke-linecap="round" stroke-linejoin="round"/>
<path d="M5.83325 13.8535V9.3335C5.83325 7.12416 7.62392 5.3335 9.83325 5.3335H23.1666C25.3759 5.3335 27.1666 7.12416 27.1666 9.3335V13.8535" stroke="#0065DD" stroke-width="1.5" stroke-linecap="round" stroke-linejoin="round"/>
<path d="M28.4999 24V26.6667" stroke="#0065DD" stroke-width="1.5" stroke-linecap="round" stroke-linejoin="round"/>
<path d="M4.49992 24V26.6667" stroke="#0065DD" stroke-width="1.5" stroke-linecap="round" stroke-linejoin="round"/>
</svg>
