<svg width="60" height="52" viewBox="0 0 60 52" fill="none" xmlns="http://www.w3.org/2000/svg">
<rect width="60" height="52" rx="6" fill="#0065DD"/>
<path fill-rule="evenodd" clip-rule="evenodd" d="M26.2981 33.7676H23.4024C22.7561 33.7676 22.2323 33.2438 22.2323 32.5974V29.7018C22.2323 29.3914 22.1086 29.0939 21.8893 28.8746L19.8418 26.8271C19.3844 26.3698 19.3844 25.6289 19.8418 25.1728L21.9103 23.1043C22.1168 22.8978 22.2323 22.6189 22.2323 22.3273V19.4024C22.2323 18.7561 22.7561 18.2323 23.4024 18.2323H26.2981C26.6084 18.2323 26.9059 18.1086 27.1253 17.8893L29.1728 15.8418C29.6301 15.3844 30.3709 15.3844 30.8271 15.8418L32.8746 17.8893C33.0939 18.1086 33.3914 18.2323 33.7018 18.2323H36.5974C37.2438 18.2323 37.7676 18.7561 37.7676 19.4024V22.2981C37.7676 22.6084 37.8913 22.9059 38.1106 23.1253L40.1581 25.1728C40.6154 25.6301 40.6154 26.3709 40.1581 26.8271L38.1106 28.8746C37.8913 29.0939 37.7676 29.3914 37.7676 29.7018V32.5974C37.7676 33.2438 37.2438 33.7676 36.5974 33.7676H33.7018C33.3914 33.7676 33.0939 33.8913 32.8746 34.1106L30.8271 36.1581C30.3698 36.6154 29.6289 36.6154 29.1728 36.1581L27.1253 34.1106C26.9059 33.8901 26.6084 33.7676 26.2981 33.7676Z" stroke="white" stroke-width="2" stroke-linecap="round" stroke-linejoin="round"/>
<path fill-rule="evenodd" clip-rule="evenodd" d="M30.0001 21.9166C27.7449 21.9166 25.9167 23.7448 25.9167 26C25.9167 28.2551 27.7449 30.0833 30.0001 30.0833C32.2552 30.0833 34.0834 28.2551 34.0834 26C34.0834 23.7448 32.2552 21.9166 30.0001 21.9166Z" stroke="white" stroke-width="2" stroke-linecap="round" stroke-linejoin="round"/>
</svg>
