<svg width="32" height="32" viewBox="0 0 32 32" fill="none" xmlns="http://www.w3.org/2000/svg">
<path d="M12 10.6667V10.6667C12 6.98533 14.9853 4 18.6667 4V4C22.348 4 25.3333 6.98533 25.3333 10.6667V28" stroke="#0065DD" stroke-width="1.5" stroke-linecap="round" stroke-linejoin="round"/>
<path fill-rule="evenodd" clip-rule="evenodd" d="M15.2213 16.9972H8.77868C7.33868 16.9972 6.32134 15.5865 6.77734 14.2198V14.2198C7.48401 12.0972 9.46934 10.6665 11.7067 10.6665H12.2933C14.5293 10.6665 16.516 12.0972 17.2227 14.2198V14.2198C17.6787 15.5865 16.6613 16.9972 15.2213 16.9972V16.9972Z" stroke="#0065DD" stroke-width="1.5" stroke-linecap="round" stroke-linejoin="round"/>
<path d="M11.9999 26.6665V27.9998" stroke="#0065DD" stroke-width="1.5" stroke-linecap="round" stroke-linejoin="round"/>
<path d="M11.9999 22.6668V21.3335" stroke="#0065DD" stroke-width="1.5" stroke-linecap="round" stroke-linejoin="round"/>
<path d="M20 26.2L19.2667 25.0933" stroke="#0065DD" stroke-width="1.5" stroke-linecap="round" stroke-linejoin="round"/>
<path d="M16.3199 20.6666L17.0532 21.7732" stroke="#0065DD" stroke-width="1.5" stroke-linecap="round" stroke-linejoin="round"/>
<path d="M7.67994 20.6666L6.94661 21.7732" stroke="#0065DD" stroke-width="1.5" stroke-linecap="round" stroke-linejoin="round"/>
<path d="M4.73328 25.0933L3.99995 26.2" stroke="#0065DD" stroke-width="1.5" stroke-linecap="round" stroke-linejoin="round"/>
</svg>
