<svg width="60" height="52" viewBox="0 0 60 52" fill="none" xmlns="http://www.w3.org/2000/svg">
<rect width="60" height="52" rx="6" fill="#0065DD"/>
<path fill-rule="evenodd" clip-rule="evenodd" d="M37 34.1667C35.7132 34.1667 34.6667 33.1202 34.6667 31.8334C34.6667 30.5465 35.7132 29.5 37 29.5C38.2869 29.5 39.3334 30.5465 39.3334 31.8334C39.3334 33.1202 38.2869 34.1667 37 34.1667ZM23 29.5C24.2869 29.5 25.3334 30.5465 25.3334 31.8334C25.3334 33.1202 24.2869 34.1667 23 34.1667C21.7132 34.1667 20.6667 33.1202 20.6667 31.8334C20.6667 30.5465 21.7132 29.5 23 29.5ZM30 14.3334C23.567 14.3334 18.3334 19.7584 18.3334 26.427V31.8334C18.3334 34.407 20.4264 36.5 23 36.5C25.5737 36.5 27.6667 34.407 27.6667 31.8334C27.6667 29.2597 25.5737 27.1667 23 27.1667C22.146 27.1667 21.3562 27.414 20.6667 27.8165V26.427C20.6667 21.0452 24.8539 16.6667 30 16.6667C35.1462 16.6667 39.3334 21.0452 39.3334 26.427V27.8165C38.6439 27.414 37.854 27.1667 37 27.1667C34.4264 27.1667 32.3334 29.2597 32.3334 31.8334C32.3334 34.407 34.4264 36.5 37 36.5C39.5737 36.5 41.6667 34.407 41.6667 31.8334V26.427C41.6667 19.7584 36.433 14.3334 30 14.3334Z" fill="white"/>
<mask id="mask0_1451_31904" style="mask-type:alpha" maskUnits="userSpaceOnUse" x="18" y="14" width="24" height="23">
<path fill-rule="evenodd" clip-rule="evenodd" d="M37 34.1667C35.7132 34.1667 34.6667 33.1202 34.6667 31.8334C34.6667 30.5465 35.7132 29.5 37 29.5C38.2869 29.5 39.3334 30.5465 39.3334 31.8334C39.3334 33.1202 38.2869 34.1667 37 34.1667ZM23 29.5C24.2869 29.5 25.3334 30.5465 25.3334 31.8334C25.3334 33.1202 24.2869 34.1667 23 34.1667C21.7132 34.1667 20.6667 33.1202 20.6667 31.8334C20.6667 30.5465 21.7132 29.5 23 29.5ZM30 14.3334C23.567 14.3334 18.3334 19.7584 18.3334 26.427V31.8334C18.3334 34.407 20.4264 36.5 23 36.5C25.5737 36.5 27.6667 34.407 27.6667 31.8334C27.6667 29.2597 25.5737 27.1667 23 27.1667C22.146 27.1667 21.3562 27.414 20.6667 27.8165V26.427C20.6667 21.0452 24.8539 16.6667 30 16.6667C35.1462 16.6667 39.3334 21.0452 39.3334 26.427V27.8165C38.6439 27.414 37.854 27.1667 37 27.1667C34.4264 27.1667 32.3334 29.2597 32.3334 31.8334C32.3334 34.407 34.4264 36.5 37 36.5C39.5737 36.5 41.6667 34.407 41.6667 31.8334V26.427C41.6667 19.7584 36.433 14.3334 30 14.3334Z" fill="white"/>
</mask>
<g mask="url(#mask0_1451_31904)">
<rect x="16" y="12" width="28" height="28" fill="white"/>
</g>
</svg>
