<svg width="37" height="36" viewBox="0 0 37 36" fill="none" xmlns="http://www.w3.org/2000/svg">
<path d="M19.2035 4.53417C21.2491 6.57974 21.2491 9.89625 19.2035 11.9418C17.158 13.9874 13.8415 13.9874 11.7959 11.9418C9.75033 9.89625 9.75033 6.57974 11.7959 4.53417C13.8415 2.48861 17.158 2.48861 19.2035 4.53417" stroke="#ADADAD" stroke-width="1.5" stroke-linecap="round" stroke-linejoin="round"/>
<path d="M22.0445 19.1938C20.096 18.4153 17.81 17.9863 15.5 17.9863C9.428 17.9863 3.5 20.9368 3.5 25.4743V26.9743C3.5 27.8023 4.172 28.4743 5 28.4743H19.1195" stroke="#ADADAD" stroke-width="1.5" stroke-linecap="round" stroke-linejoin="round"/>
<path d="M26 33C21.8585 33 18.5 29.643 18.5 25.5C18.5 21.444 21.95 17.9955 26.006 18C30.146 18.003 33.5 21.36 33.5 25.5C33.5 29.6415 30.143 33 26 33" stroke="#ADADAD" stroke-width="1.5" stroke-linecap="round" stroke-linejoin="round"/>
<path d="M26 22.9951V28.0051" stroke="#ADADAD" stroke-width="1.5" stroke-linecap="round" stroke-linejoin="round"/>
<path d="M24.7554 24.255L26.0004 22.995" stroke="#ADADAD" stroke-width="1.5" stroke-linecap="round" stroke-linejoin="round"/>
<path d="M24.7549 28.0049H27.2449" stroke="#ADADAD" stroke-width="1.5" stroke-linecap="round" stroke-linejoin="round"/>
</svg>
