<svg width="24" height="24" viewBox="0 0 24 24" fill="none" xmlns="http://www.w3.org/2000/svg">
<path d="M16.4998 21.75H7.49976C6.10911 21.7473 4.77632 21.1931 3.79392 20.2088C2.81151 19.2245 2.25976 17.8907 2.25977 16.5V7.5C2.25977 6.10761 2.81289 4.77226 3.79745 3.78769C4.78202 2.80312 6.11738 2.25 7.50977 2.25H16.5098C17.9013 2.25264 19.2352 2.80659 20.2192 3.79059C21.2031 4.77458 21.7571 6.10843 21.7598 7.5V16.5C21.7571 17.8933 21.2018 19.2286 20.2156 20.2129C19.2295 21.1972 17.8931 21.75 16.4998 21.75ZM7.49976 3.75C6.5052 3.75 5.55138 4.14507 4.84811 4.84833C4.14485 5.55159 3.74976 6.50544 3.74976 7.5V16.5C3.74976 17.4928 4.14348 18.4451 4.84458 19.1481C5.54568 19.8511 6.49694 20.2473 7.48977 20.25H16.4898C17.4843 20.25 18.4382 19.8549 19.1414 19.1516C19.8447 18.4484 20.2398 17.4946 20.2398 16.5V7.5C20.2398 6.50544 19.8447 5.55159 19.1414 4.84833C18.4382 4.14507 17.4843 3.75 16.4898 3.75H7.49976Z" fill="#2E2E2E"/>
<path d="M15.4098 17.29H8.58984C7.79419 17.29 7.03113 16.9739 6.46852 16.4113C5.90592 15.8487 5.58984 15.0856 5.58984 14.29V9.75C5.58984 8.95435 5.90592 8.19127 6.46852 7.62866C7.03113 7.06605 7.79419 6.75 8.58984 6.75H15.4098C16.2055 6.75 16.9686 7.06605 17.5312 7.62866C18.0938 8.19127 18.4098 8.95435 18.4098 9.75V14.29C18.4098 15.0856 18.0938 15.8487 17.5312 16.4113C16.9686 16.9739 16.2055 17.29 15.4098 17.29ZM8.58984 8.19998C8.1858 8.20262 7.7992 8.365 7.51443 8.65164C7.22966 8.93829 7.06983 9.32593 7.06984 9.72998V14.27C7.06984 14.6731 7.22999 15.0597 7.51504 15.3448C7.8001 15.6298 8.18671 15.79 8.58984 15.79H15.4098C15.8078 15.7821 16.1867 15.6185 16.4653 15.3343C16.7439 15.0501 16.8999 14.668 16.8998 14.27V9.72998C16.8999 9.32593 16.74 8.93829 16.4553 8.65164C16.1705 8.365 15.7839 8.20262 15.3798 8.19998H8.58984Z" fill="#2E2E2E"/>
<path d="M11.9998 13.0799C11.6287 13.0897 11.2595 13.0228 10.9154 12.8834C10.5713 12.744 10.2596 12.5352 9.99984 12.2699L6.39984 8.67993C6.32615 8.61126 6.26705 8.52846 6.22606 8.43646C6.18507 8.34446 6.16303 8.24514 6.16125 8.14443C6.15947 8.04373 6.17799 7.94372 6.21572 7.85034C6.25344 7.75695 6.30958 7.6721 6.3808 7.60089C6.45202 7.52967 6.53686 7.47351 6.63024 7.43579C6.72363 7.39806 6.82366 7.37957 6.92436 7.38134C7.02506 7.38312 7.12438 7.40514 7.21638 7.44613C7.30838 7.48712 7.39118 7.54624 7.45984 7.61993L11.0598 11.2099C11.2986 11.4409 11.6177 11.57 11.9498 11.57C12.282 11.57 12.6011 11.4409 12.8398 11.2099L16.4298 7.61993C16.5705 7.47948 16.7611 7.40057 16.9598 7.40057C17.1586 7.40057 17.3492 7.47948 17.4898 7.61993C17.5606 7.68887 17.6168 7.77127 17.6552 7.8623C17.6936 7.95333 17.7134 8.05113 17.7134 8.14993C17.7134 8.24872 17.6936 8.3465 17.6552 8.43753C17.6168 8.52855 17.5606 8.61098 17.4898 8.67993L13.8998 12.2699C13.3989 12.7811 12.7155 13.0724 11.9998 13.0799Z" fill="#2E2E2E"/>
<path d="M6.72964 16.32C6.5308 16.3198 6.34016 16.2407 6.19964 16.1C6.12888 16.031 6.07265 15.9486 6.03425 15.8576C5.99585 15.7666 5.97607 15.6688 5.97607 15.57C5.97607 15.4712 5.99585 15.3734 6.03425 15.2824C6.07265 15.1914 6.12888 15.1089 6.19964 15.04L10.0496 11.19C10.1186 11.1192 10.201 11.063 10.292 11.0246C10.3831 10.9862 10.4809 10.9664 10.5796 10.9664C10.6784 10.9664 10.7762 10.9862 10.8673 11.0246C10.9583 11.063 11.0407 11.1192 11.1096 11.19C11.2501 11.3306 11.329 11.5213 11.329 11.72C11.329 11.9188 11.2501 12.1094 11.1096 12.25L7.25964 16.08C7.11994 16.2245 6.93041 16.3103 6.72964 16.32Z" fill="#2E2E2E"/>
<path d="M17.2698 16.3199C17.0718 16.3156 16.8827 16.2371 16.7398 16.0999L12.8998 12.25C12.8262 12.1813 12.767 12.0985 12.7261 12.0065C12.6851 11.9145 12.663 11.8152 12.6612 11.7145C12.6595 11.6138 12.678 11.5137 12.7157 11.4203C12.7534 11.327 12.8096 11.2421 12.8808 11.1709C12.952 11.0997 13.0369 11.0435 13.1302 11.0058C13.2236 10.9681 13.3237 10.9496 13.4244 10.9513C13.5251 10.9531 13.6244 10.9752 13.7164 11.0162C13.8084 11.0572 13.8912 11.1162 13.9598 11.1899L17.7998 15.08C17.9403 15.2206 18.0192 15.4112 18.0192 15.6099C18.0192 15.8087 17.9403 15.9993 17.7998 16.1399C17.6511 16.2626 17.4626 16.3266 17.2698 16.3199Z" fill="#2E2E2E"/>
</svg>
