<svg width="24" height="24" viewBox="0 0 24 24" fill="none" xmlns="http://www.w3.org/2000/svg">
<path d="M16.4998 21.76H7.49979C6.10913 21.7574 4.77635 21.2031 3.79395 20.2188C2.81154 19.2345 2.25976 17.9007 2.25977 16.51V7.51001C2.25977 6.11762 2.81289 4.78226 3.79745 3.7977C4.78202 2.81313 6.11738 2.26001 7.50977 2.26001H16.5098C17.9004 2.26001 19.2343 2.81176 20.2186 3.79416C21.2028 4.77657 21.7571 6.10935 21.7598 7.50001V16.5C21.7598 17.895 21.2056 19.2329 20.2191 20.2194C19.2327 21.2058 17.8948 21.76 16.4998 21.76ZM7.49979 3.76001C6.50522 3.76001 5.55141 4.1551 4.84814 4.85836C4.14488 5.56162 3.74979 6.51545 3.74979 7.51001V16.51C3.74978 17.5028 4.1435 18.4552 4.8446 19.1581C5.5457 19.8611 6.49695 20.2574 7.48978 20.26H16.4898C17.4843 20.26 18.4382 19.8649 19.1414 19.1617C19.8447 18.4584 20.2398 17.5046 20.2398 16.51V7.51001C20.2371 6.51718 19.8409 5.56592 19.1379 4.86482C18.4349 4.16372 17.4826 3.77 16.4898 3.77001L7.49979 3.76001Z" fill="#2E2E2E"/>
<path d="M16.5001 13.6602H11.1001C10.9012 13.6602 10.7104 13.5811 10.5698 13.4405C10.4291 13.2998 10.3501 13.1091 10.3501 12.9102C10.3501 12.7112 10.4291 12.5205 10.5698 12.3798C10.7104 12.2392 10.9012 12.1602 11.1001 12.1602H16.5001C16.699 12.1602 16.8898 12.2392 17.0304 12.3798C17.1711 12.5205 17.2501 12.7112 17.2501 12.9102C17.2501 13.1091 17.1711 13.2998 17.0304 13.4405C16.8898 13.5811 16.699 13.6602 16.5001 13.6602Z" fill="#2E2E2E"/>
<path d="M12.8999 21.7602C12.701 21.7602 12.5102 21.6811 12.3696 21.5405C12.2289 21.3998 12.1499 21.2091 12.1499 21.0102V11.0602C12.1499 10.1584 12.5081 9.29362 13.1458 8.65599C13.7834 8.01837 14.6482 7.66016 15.5499 7.66016H16.5499C16.7488 7.66016 16.9396 7.73918 17.0802 7.87983C17.2209 8.02048 17.2999 8.21124 17.2999 8.41016C17.2999 8.60907 17.2209 8.79983 17.0802 8.94049C16.9396 9.08114 16.7488 9.16016 16.5499 9.16016H15.5499C15.046 9.16016 14.5627 9.36034 14.2064 9.71666C13.8501 10.073 13.6499 10.5562 13.6499 11.0602V21.0602C13.6349 21.2494 13.5496 21.4263 13.4108 21.5558C13.272 21.6854 13.0898 21.7582 12.8999 21.7602Z" fill="#2E2E2E"/>
</svg>
