<svg width="24" height="24" viewBox="0 0 24 24" fill="none" xmlns="http://www.w3.org/2000/svg">
<path d="M16.4998 21.76H7.49977C6.10912 21.7574 4.77632 21.2031 3.79391 20.2188C2.81151 19.2345 2.25976 17.9007 2.25977 16.51V7.51002C2.26241 6.1211 2.81532 4.78982 3.79744 3.8077C4.77956 2.82558 6.11085 2.27266 7.49977 2.27002H16.4998C17.8904 2.27002 19.2243 2.82177 20.2085 3.80417C21.1928 4.78658 21.7471 6.11937 21.7498 7.51002V16.51C21.7471 17.9016 21.1931 19.2354 20.2092 20.2194C19.2252 21.2034 17.8913 21.7574 16.4998 21.76ZM7.49977 3.76002C6.50867 3.76266 5.55892 4.15754 4.85811 4.85836C4.15729 5.55917 3.76241 6.50892 3.75977 7.50002V16.5C3.75976 17.4929 4.15348 18.4452 4.85458 19.1481C5.55568 19.8511 6.50694 20.2474 7.49977 20.25H16.4998C17.4943 20.25 18.4482 19.8549 19.1514 19.1517C19.8547 18.4484 20.2498 17.4946 20.2498 16.5V7.50002C20.2471 6.50719 19.8509 5.55593 19.1479 4.85483C18.4449 4.15373 17.4926 3.76002 16.4998 3.76002H7.49977Z" fill="#2E2E2E"/>
<path d="M16.9499 8.15008C16.6678 8.13972 16.4007 8.02032 16.2049 7.81702C16.0091 7.61372 15.8997 7.34236 15.8999 7.06008C15.899 6.91685 15.9269 6.77489 15.9818 6.64262C16.0368 6.51036 16.1178 6.39047 16.2199 6.29008C16.3166 6.18577 16.4344 6.10327 16.5654 6.04809C16.6965 5.99291 16.8378 5.96631 16.9799 5.97008C17.269 5.97008 17.5463 6.08491 17.7507 6.28933C17.9551 6.49374 18.0699 6.77099 18.0699 7.06008C18.0699 7.34916 17.9551 7.62641 17.7507 7.83083C17.5463 8.03524 17.269 8.15008 16.9799 8.15008H16.9499Z" fill="#2E2E2E"/>
<path d="M12.0001 16.3602C11.1376 16.3601 10.2947 16.1037 9.57825 15.6234C8.86186 15.1432 8.3044 14.4609 7.97668 13.6631C7.64895 12.8653 7.56577 11.9881 7.73771 11.143C7.90965 10.2978 8.32894 9.52284 8.94231 8.91652C9.55568 8.3102 10.3354 7.89989 11.1825 7.73774C12.0296 7.57558 12.9058 7.66889 13.6997 8.00581C14.4936 8.34273 15.1695 8.90805 15.6414 9.62996C16.1133 10.3519 16.36 11.1977 16.3501 12.0602C16.3369 13.2052 15.8728 14.2988 15.0585 15.1038C14.2441 15.9088 13.1452 16.3602 12.0001 16.3602ZM12.0001 9.16016C11.4408 9.17006 10.8968 9.34433 10.4359 9.66125C9.97492 9.97817 9.61743 10.4237 9.40795 10.9424C9.19847 11.4611 9.14625 12.0299 9.2578 12.5781C9.36936 13.1262 9.63976 13.6294 10.0353 14.025C10.4308 14.4205 10.934 14.6909 11.4822 14.8025C12.0303 14.914 12.5992 14.8618 13.1178 14.6523C13.6365 14.4428 14.0821 14.0853 14.399 13.6244C14.7159 13.1635 14.8902 12.6195 14.9001 12.0602C14.9055 11.6778 14.8342 11.2983 14.6903 10.944C14.5465 10.5898 14.3331 10.2679 14.0627 9.99755C13.7923 9.72718 13.4705 9.51377 13.1162 9.36993C12.762 9.2261 12.3824 9.15477 12.0001 9.16016Z" fill="#2E2E2E"/>
</svg>
