<svg width="24" height="24" viewBox="0 0 24 24" fill="none" xmlns="http://www.w3.org/2000/svg">
<path d="M16.4998 21.7H7.49979C6.10913 21.6973 4.77635 21.143 3.79395 20.1587C2.81154 19.1744 2.25976 17.8406 2.25977 16.45V7.44995C2.25977 6.05756 2.81289 4.72221 3.79745 3.73764C4.78202 2.75307 6.11738 2.19995 7.50977 2.19995H16.5098C17.9004 2.19995 19.2343 2.7517 20.2186 3.7341C21.2028 4.7165 21.7571 6.04929 21.7598 7.43994V16.4399C21.7598 17.835 21.2056 19.1729 20.2191 20.1593C19.2327 21.1458 17.8948 21.7 16.4998 21.7ZM7.49979 3.69995C6.50522 3.69995 5.55141 4.09502 4.84814 4.79828C4.14488 5.50154 3.74979 6.45539 3.74979 7.44995V16.45C3.74978 17.4428 4.1435 18.3951 4.8446 19.0981C5.5457 19.801 6.49695 20.1973 7.48978 20.2H16.4898C17.4843 20.2 18.4382 19.8049 19.1414 19.1016C19.8447 18.3983 20.2398 17.4445 20.2398 16.45V7.44995C20.2371 6.45712 19.8409 5.50585 19.1379 4.80475C18.4349 4.10365 17.4826 3.70993 16.4898 3.70993L7.49979 3.69995Z" fill="#2E2E2E"/>
<path d="M14.4699 17.6999C12.8999 17.6999 11.0299 16.6999 9.13989 14.8499C6.13989 11.8499 5.43989 8.95993 7.19989 7.18993L7.59992 6.78994C7.80614 6.59279 8.05215 6.44205 8.32144 6.34783C8.59074 6.25361 8.87707 6.21807 9.16123 6.24364C9.44538 6.26922 9.72076 6.3553 9.9689 6.49609C10.217 6.63688 10.4322 6.82913 10.5999 7.05993L11.4799 8.31994C11.7379 8.69899 11.8579 9.15519 11.8197 9.61214C11.7814 10.0691 11.5873 10.499 11.2699 10.8299C11.8102 11.5436 12.4462 12.1796 13.1599 12.7199C13.4843 12.3946 13.9136 12.1949 14.3714 12.1564C14.8292 12.118 15.2858 12.2433 15.6599 12.5099L16.9299 13.3999C17.1648 13.5604 17.3611 13.771 17.5047 14.0166C17.6482 14.2621 17.7354 14.5365 17.7599 14.8199C17.7822 15.1056 17.7428 15.3927 17.6445 15.6619C17.5462 15.931 17.3911 16.1759 17.1899 16.3799L16.7899 16.7799C16.4859 17.0828 16.1234 17.3205 15.7246 17.4787C15.3257 17.6368 14.8988 17.7121 14.4699 17.6999ZM10.1599 13.6999C11.8799 15.4299 14.3599 16.9599 15.6899 15.6399L16.0899 15.2399C16.1379 15.194 16.1746 15.1376 16.1972 15.0752C16.2197 15.0127 16.2275 14.9459 16.2199 14.8799C16.2173 14.8137 16.1986 14.749 16.1655 14.6915C16.1324 14.634 16.0859 14.5855 16.0299 14.5499L14.7599 13.6599C14.6771 13.5908 14.5727 13.5529 14.4649 13.5529C14.3571 13.5529 14.2526 13.5908 14.1699 13.6599L13.7199 14.0999C13.5994 14.2195 13.4424 14.2952 13.2739 14.3152C13.1053 14.3351 12.935 14.2981 12.7899 14.2099C12.1576 13.7966 11.571 13.3172 11.0399 12.7799C10.5 12.2476 10.0205 11.6573 9.6099 11.0199C9.52048 10.8759 9.48176 10.7062 9.49988 10.5377C9.518 10.3692 9.59193 10.2116 9.7099 10.0899L10.1599 9.63995C10.233 9.56135 10.2777 9.46052 10.2867 9.35357C10.2958 9.24662 10.2687 9.13969 10.2099 9.04992C9.8799 8.58992 9.58992 8.16993 9.31992 7.77993C9.28166 7.72654 9.2324 7.68197 9.17548 7.64919C9.11856 7.61642 9.05528 7.5962 8.9899 7.58993C8.92241 7.58227 8.85409 7.59 8.79001 7.61251C8.72593 7.63502 8.66777 7.67175 8.6199 7.71993L8.21991 8.11993C6.89991 9.55993 8.44991 11.9999 10.1599 13.7399V13.6999Z" fill="#2E2E2E"/>
</svg>
